/* XPM */
static char * image[] = {
/* width height num_colors chars_per_pixel */
"32 32 28 1",
"a c #70805f",
"b c #a4513f",
"c c #3c312c",
"d c #5a5237",
"e c #bec49f",
"f c #834132",
"g c #512d23",
"h c #8dab5f",
"i c #5e724a",
"j c #677755",
"k c #342a25",
"l c #aa6d46",
"m c #453a35",
"n c #6a7a5a",
"o c #778667",
"p c #4a413c",
"q c #5b3c2c",
"r c #d07753",
"s c #7a2d18",
"t c #695d58",
"u c #000000",
"v c #d58858",
"w c #7c8a6e",
"x c #eb9661",
"y c #60583c",
"z c #645c3f",
"A c #b55945",
"B c #a2a97f",
"AxxxxxxxxxxxxxxxxArxxxxxrrAArAAA",
"rxxxxxxxxxxxxxxxxrxxxxxxxxxrrrrA",
"rxxxxxxxxxxxxxxxxxxxxxxxxxxxxxxr",
"rxxxxxxxxxxxxxxxxxxxxxxxxxxxxxxx",
"Axxxxxxxxxxxxuuuuuxxxxxxxxxxxxxx",
"Arxxxxxxxxxxuqgggguxxxxxxxxxxxxr",
"rAxxxxxxxxxuqiqggqiuxxxxxxxxxxAr",
"xrrrxxxxxxugqiqgqiiiuxxxxxxxxrxx",
"xxrrrrrxxxugqiqqjiiiuxxxxxxxxxxx",
"xxrxxxArrruqijqaajiiuxxxxxxxrxxx",
"xxxxxxrrxxuijaqaaajiuxxxxxxxrxxx",
"xxxxxxxrxxujuuaqauujuxxxxxxxrxxx",
"xxxxxxxArxujehaqahejuxxxxxxxArxx",
"xrxxxxxAAruaaaaaqaaauxxxxxxxAArr",
"rAxxxxxrrxuiaaaaaqaiuxxxxxxxrxxx",
"xrAxxxArxxxuiBaBaBquxrAxxxxrxxxx",
"xxrAAArxxxumciBsBscmuxrAArxxxxxx",
"xxxrArxxxummccissccmmuxAxxxxxxxx",
"xxxxArxxxummcccccccmmuxrxxxxxxxx",
"xxxxrrxxxugccccccccmmuxrxxxxxxxx",
"xxxxrrxxuppgkccscakmmuxrxxxxxxxx",
"xxxxrxxxuwwcukkknnummurrxxxxxxxx",
"xxxxAxxxxuuuukkknkummurxxxxxxxxx",
"xxxrArxxxxxxukkkkkmmuxrxxxxxxxxx",
"xxxArrxxxxxuzzzzzymmurxxxxxxxxxx",
"xxxrxxrxxxxuzzzdzyoouAxxxxxxxxxx",
"xxrrxxArxxxuzzdudzyurAxxxxxxxxxx",
"xxrxxrrArxxuzzuxuzzuAAxxxxxxxxxx",
"xxrxxxxxrAAuppuxunnurAxxxxxxxxxx",
"xrxxxxxxxxuttpurunaaurxxxxxxxxxx",
"rAxxxxxxvvlllllvlffllbrxxxxxxxxx",
"ArxxxxxxxxvvvvvvvbbbbAArxxxxxxxr",
};
