/* XPM */
static char * image[] = {
/* width height num_colors chars_per_pixel */
"32 32 29 1",
"a c #70805f",
"b c #a4513f",
"c c #3c312c",
"d c #5a5237",
"e c #2d2420",
"f c #bec49f",
"g c #834132",
"h c #512d23",
"i c #8dab5f",
"j c #5e724a",
"k c #677755",
"l c #342a25",
"m c #aa6d46",
"n c #453a35",
"o c #6a7a5a",
"p c #778667",
"q c #4a413c",
"r c #5b3c2c",
"s c #d07753",
"t c #7a2d18",
"u c #695d58",
"v c #000000",
"w c #d58858",
"x c #7c8a6e",
"y c #eb9661",
"z c #60583c",
"A c #645c3f",
"B c #b55945",
"C c #a2a97f",
"ByyyyyyyyyyyyyyyyBsyyyyyssBBsBBB",
"syyyyyyyyyyyyyyyysyyyyyyyyyssssB",
"syyyyyyyyyyyyyyyyyyyyyyyyyyyyyys",
"syyyyyyyyyyyyyyyyyyyyyyyyyyyyyyy",
"Byyyyyyyyyyyyyysyyyyyyyyyyyyyyyy",
"Bsyyyyyyyyyyyvvvvvyyyyyyyyyyyyys",
"sByyyyyyyyyyvrhhhhvyyyyyyyyyyyBs",
"ysssyyyyyyyvrjrhhrjvyyyyyyyyysyy",
"yysssssyyyvhrjrhrjjjvyyyyyyyyyyy",
"yysyyyBsssvhrjrrkjjjvyyyyyyysyyy",
"yyyyyyssyyvrjkraakjjvyyyyyyysyyy",
"yyyyyyysyyvjkaraaakjvyyyyyyysyyy",
"yyyyyyyBsyvkvvaravvkvyyyyyyyBsyy",
"ysyyyyyBBsvkfiaraifkvyyyyyyyBBss",
"sByyyyyssvvaaaaaraaavyyyyyyysyyy",
"ysByyyBsvxxjaaaaarajvsByyyysyyyy",
"yysBBBsyvxxvjCaCaCrvyysBBsyyyyyy",
"yyysBsyyvqqncjCtCtcnvyyByyyyyyyy",
"yyyyBsyyvnqnccjttccnnvysyyyyyyyy",
"yyyyssyyyvnqcccccccnnvysyyyyyyyy",
"yyyyssyyyvnqcccccccnnvysyyyyyyyy",
"yyyysyyyyvnqlccccalnnvssyyyyyyyy",
"yyyyByyyyvnnvlllolvnnvsyyyyyyyyy",
"yyysBsyyyyvvveeeeevnnvsyyyyyyyyy",
"yyyBssyyyyyvAAAAAAnnvsyyyyyyyyyy",
"yyysyysyyyyvAAAtAznnvByyyyyyyyyy",
"yyssyyBsyyyvAAdvdzppvByyyyyyyyyy",
"yysyyssBsyyvAAvyvAzvBByyyyyyyyyy",
"yysyyyyysBBvqqvyvoovsByyyyyyyyyy",
"ysyyyyyyyyvuuqvsvoaavsyyyyyyyyyy",
"sByyyyyywwmmmmmwmggmmbsyyyyyyyyy",
"BsyyyyyyywwwwwwwwbbbbBBsyyyyyyys",
};
