/* XPM */
static char * image[] = {
/* width height num_colors chars_per_pixel */
"32 32 23 1",
"a c #87947c",
"b c #3a2b28",
"c c #dbcbbc",
"d c #6e7d61",
"e c #8a382c",
"f c #634a45",
"g c #d2a394",
"h c #86362a",
"i c #291a18",
"j c #362623",
"k c #4c403d",
"l c #000000",
"m c #553d39",
"n c #57636b",
"o c #4c342f",
"p c #554c3c",
"q c #0c0a07",
"r c #657358",
"s c #b56a68",
"t c #425059",
"u c #c0ac98",
"v c #e4b5a5",
"w c #803125",
"llllllllllllllllllllllllllllllll",
"llllllllllllllllllllllllllllllll",
"llllllllllllllllllllllllllllllll",
"llllllllllllllllllllllllllllllll",
"llllllllllllllllllllllllllllllll",
"llllllllllllllllllllllllllllllll",
"llllllllllllllqqqlqlllllllllllll",
"llllllllllqqqqoooqoqllllllllllll",
"lllllllllqooomfffofqllllllllllll",
"llllllllllqmffffffffqlllllllllll",
"lllllllllqmfffffffffqlllllllllll",
"lllllllllqmffffoofffllllllllllll",
"llllllllqoomfffgofofmlllllllllll",
"lllllllllqofffgggfwfllllllllllll",
"lllllllllqmffggqvgqwmlllllllllll",
"llllllllqomfsggivvihllllllllllll",
"lllllllllqmmmggvvvvgllllllllllll",
"llllllllllqmmmgvvvglllllllllllll",
"llllllllllllqmmgggqlllllllllllll",
"lllllllllllqbdbuuubqllllllllllll",
"lllllllllllqbdkcewbqllllllllllll",
"llllllllllqbbakccebkqlllllllllll",
"llllllllllqkdkkuecbkqlllllllllll",
"lllllllllqkkrbkcucbbkqllllllllll",
"lllllllllqvgrbbtttbbgqllllllllll",
"llllllllllqqqtnntnnqqlllllllllll",
"llllllllllllqnnnqnnqllllllllllll",
"lllllllllllqtttqttqlllllllllllll",
"lllllllllllqjjjqjjqlllllllllllll",
"lllllllllllqjppqjppqllllllllllll",
"lllllllllqqqqqqqqqqqqqllllllllll",
"llllllllllqqqqqqqqqqqlllllllllll",
};
