/* XPM */
static char * image[] = {
/* width height num_colors chars_per_pixel */
"32 32 18 1",
"a c #5b3c2c",
"b c #677755",
"c c #70805f",
"d c #695d58",
"e c #000000",
"f c #342a25",
"g c #302723",
"h c #645c3f",
"i c #3c312c",
"j c #5a5237",
"k c #2d2420",
"l c #453a35",
"m c #667556",
"n c #778667",
"o c #4a413c",
"p c #512d23",
"q c #5e724a",
"r c #748363",
"eeeeeeeeeeeeeeeeeeeeeeeeeeeeeeee",
"eeeeeeeeeeeeeeeeeeeeeeeeeeeeeeee",
"eeeeeeeeeeeeeeeeeeeeeeeeeeeeeeee",
"eeeeeeeeeeeeeeeeeeeeeeeeeeeeeeee",
"eeeeeeeeeeeeeeeeeeeeeeeeeeeeeeee",
"eeeeeeeeeeeeeeeeeeeeeeeeeeeeeeee",
"eeeeeeeeeeeeeappppeeeeeeeeeeeeee",
"eeeeeeeeeeeeqqapaqqeeeeeeeeeeeee",
"eeeeeeeeeeeqqqaaqqqqeeeeeeeeeeee",
"eeeeeeeeeeeqqqabbqqqeeeeeeeeeeee",
"eeeeeeeeeeeqqbaccbqqeeeeeeeeeeee",
"eeeeeeeeeeeqbcacccbqeeeeeeeeeeee",
"eeeeeeeeeeebcacccccbeeeeeeeeeeee",
"eeeeeeeeeeebacnnnccbeeeeeeeeeeee",
"eeeeeeeeeeebacnnnccbeeeeeeeeeeee",
"eeeeeeeeeeeqacfffcbqeeeeeeeeeeee",
"eeeeeeeeeeefffffffffeeeeeeeeeeee",
"eeeeeeeeeeefffffffffeeeeeeeeeeee",
"eeeeeeeeeeefffffffffeeeeeeeeeeee",
"eeeeeeeeeeegfffffffgeeeeeeeeeeee",
"eeeeeeeeeeegkfffffkgeeeeeeeeeeee",
"eeeeeeeeeeeggiiicieggeeeeeeeeeee",
"eeeeeeeeeeeggiiciieggeeeeeeeeeee",
"eeeeeeeeeeegglrrrleggeeeeeeeeeee",
"eeeeeeeeeeemhhhhhhhmmeeeeeeeeeee",
"eeeeeeeeeeeehhhjhhheeeeeeeeeeeee",
"eeeeeeeeeeeehjjejjheeeeeeeeeeeee",
"eeeeeeeeeeeenneeehheeeeeeeeeeeee",
"eeeeeeeeeeeenneeeooeeeeeeeeeeeee",
"eeeeeeeeeeeeeeeeeddeeeeeeeeeeeee",
"eeeeeeeeeeeeeeeeeeeeeeeeeeeeeeee",
"eeeeeeeeeeeeeeeeeeeeeeeeeeeeeeee",
};
