/* XPM */
static char * image[] = {
/* width height num_colors chars_per_pixel */
"32 32 18 1",
"a c #5b3c2c",
"b c #677755",
"c c #70805f",
"d c #695d58",
"e c #000000",
"f c #342a25",
"g c #302723",
"h c #645c3f",
"i c #3c312c",
"j c #2d2420",
"k c #453a35",
"l c #667556",
"m c #70694f",
"n c #778667",
"o c #6a7a5a",
"p c #512d23",
"q c #5e724a",
"r c #748363",
"eeeeeeeeeeeeeeeeeeeeeeeeeeeeeeee",
"eeeeeeeeeeeeeeeeeeeeeeeeeeeeeeee",
"eeeeeeeeeeeeeeeeeeeeeeeeeeeeeeee",
"eeeeeeeeeeeeeeeeeeeeeeeeeeeeeeee",
"eeeeeeeeeeeeeeeeeeeeeeeeeeeeeeee",
"eeeeeeeeeeeeeeeeeeeeeeeeeeeeeeee",
"eeeeeeeeeeeappppeeeeeeeeeeeeeeee",
"eeeeeeeeeeqqapaqqeeeeeeeeeeeeeee",
"eeeeeeeeeqqqaaqqqqeeeeeeeeeeeeee",
"eeeeeeeeeqqqabbqqqeeeeeeeeeeeeee",
"eeeeeeeeeqqbaccbqqeeeeeeeeeeeeee",
"eeeeeeeeeqbcacccbqeeeeeeeeeeeeee",
"eeeeeeeeebcacccccbeeeeeeeeeeeeee",
"eeeeeeeeebacnnnccbeeeeeeeeeeeeee",
"eeeeeeeeebacnnnccbeeeeeeeeeeeeee",
"eeeeeeeeeqacfffcbqeeeeeeeeeeeeee",
"eeeeeeeeefffffffffeeeeeeeeeeeeee",
"eeeeeeeeefffffffffeeeeeeeeeeeeee",
"eeeeeeeeefffffffffeeeeeeeeeeeeee",
"eeeeeeeeegfffffffgeeeeeeeeeeeeee",
"eeeeeeeeegjfffffjgeeeeeeeeeeeeee",
"eeeeeeeeggeiiiciggeeeeeeeeeeeeee",
"eeeeeeeeggeiiciiggeeeeeeeeeeeeee",
"eeeeeeeeggekrrrkggeeeeeeeeeeeeee",
"eeeeeeeellhmmmmmhleeeeeeeeeeeeee",
"eeeeeeeeeehmmmmmheeeeeeeeeeeeeee",
"eeeeeeeeeehhhehhheeeeeeeeeeeeeee",
"eeeeeeeeeehheeeddeeeeeeeeeeeeeee",
"eeeeeeeeeeooeeeddeeeeeeeeeeeeeee",
"eeeeeeeeeenneeeeeeeeeeeeeeeeeeee",
"eeeeeeeeeeeeeeeeeeeeeeeeeeeeeeee",
"eeeeeeeeeeeeeeeeeeeeeeeeeeeeeeee",
};
