/* XPM */
static char * image[] = {
/* width height num_colors chars_per_pixel */
"32 32 18 1",
"a c #5b3c2c",
"b c #677755",
"c c #7a2d18",
"d c #70805f",
"e c #695d58",
"f c #000000",
"g c #342a25",
"h c #302723",
"i c #645c3f",
"j c #3c312c",
"k c #5a5237",
"l c #2d2420",
"m c #453a35",
"n c #667556",
"o c #6a7a5a",
"p c #778667",
"q c #512d23",
"r c #5e724a",
"ffffffffffffffffffffffffffffffff",
"ffffffffffffffffffffffffffffffff",
"ffffffffffffffffffffffffffffffff",
"ffffffffffffffffffffffffffffffff",
"ffffffffffffffffffffffffffffffff",
"ffffffffffffffffffffffffffffffff",
"fffffffffffaqqqqffffffffffffffff",
"ffffffffffrraqarrfffffffffffffff",
"fffffffffrrraarrrrffffffffffffff",
"fffffffffrrrabbrrrffffffffffffff",
"fffffffffrrbaddbrrffffffffffffff",
"fffffffffrbdadddbrffffffffffffff",
"fffffffffbdadddddbffffffffffffff",
"fffffffffbadpppddbffffffffffffff",
"fffffffffbadpppddbffffffffffffff",
"fffffffffradgggdbrffffffffffffff",
"fffffffffgggggggggffffffffffffff",
"fffffffffgggggggggffffffffffffff",
"ffffffffhgggggggggffffffffffffff",
"ffffffffhhggggggghffffffffffffff",
"ffffffffhhlggggglhffffffffffffff",
"ffffffffhffjjjdjhfffffffffffffff",
"fffffffhhffjjdjjhfffffffffffffff",
"fffffffhhffmpppmhfffffffffffffff",
"fffffffnnfiiiiiiifffffffffffffff",
"ffffffffffiiikiiifffffffffffffff",
"ffffffffffikkfkeefffffffffffffff",
"ffffffffffiifffeefffffffffffffff",
"ffffffffffooffffffffffffffffffff",
"ffffffffffppfffcffffffffffffffff",
"ffffffffffffffffffffffffffffffff",
"ffffffffffffffffffffffffffffffff",
};
