/* XPM */
static char * image[] = {
/* width height num_colors chars_per_pixel */
"32 32 31 1",
"a c #bc6b4b",
"b c #70805f",
"c c #3c312c",
"d c #5a5237",
"e c #2d2420",
"f c #bec49f",
"g c #512d23",
"h c #8dab5f",
"i c #5e724a",
"j c #677755",
"k c #342a25",
"l c #453a35",
"m c #6a7a5a",
"n c #778667",
"o c #4a413c",
"p c #d48757",
"q c #5b3c2c",
"r c #d07753",
"s c #7a2d18",
"t c #695d58",
"u c #000000",
"v c #a3503e",
"w c #96563c",
"x c #834032",
"y c #eb9661",
"z c #60583c",
"A c #645c3f",
"B c #70694f",
"C c #b55945",
"D c #a2a97f",
"E c #aa6c46",
"CyyyyyyyyyyyyyyyyCryyyyyrrCCrCCC",
"ryyyyyyyyyyyyyyyyryyyyyyyyyrrrrC",
"ryyyyyyyyyyyyyyyyyyyyyyyyyyyyyyr",
"ryyyyyyyyyyyyyyyyyyyyyyyyyyyyyyy",
"Cyyyyyyyyyyyyyyryyyyyyyyyyyyyyyy",
"Cryyyyyyyyyyyyyryuuuuuyyyyyyyyyr",
"rCyyyyyyyyyyyyyruiqggguyyyyyyyCr",
"yrrryyyyyyyyyyyugqqggqiuyyyyyryy",
"yyrrrrryyyyyyruggqiqgqiiuyyyyyyy",
"yyryyyCrrryyyyugqiiqqjiiuyyyryyy",
"yyyyyyrryyyyyyuqijjbqbjiuyyyryyy",
"yyyyyyyryyyyyyuijbbbqbbjuyyyryyy",
"yyyyyyyCryyyyyuibuuubquuuyyyCryy",
"yryyyyyCCrryyyyubbfhbqhfuyyyCCrr",
"rCyyyyyrryyyyyyubbbbbqbjuyyyryyy",
"yrCyyyCryyyyyyyuibbbbbqjuyyryyyy",
"yyrCCCryyyyyyyulciDbDbDquryyyyyy",
"yyyrCryyyyyyyuggcciDsDsuyyyyyyyy",
"yyyyCryyyyyyyunglccisscuyyyyyyyy",
"yyyyrryyyyyyyyunlcccccluyyyyyyyy",
"yyyyrryyyyyyyyullcccbclluyyyyyyy",
"yyyyryyyyyyyyyullkkmmulluyyyyyyy",
"yyyyCyyyyyyyyyukllkmuyulluyyyyyy",
"yyyrCryyyyyyyyuenneeuyullluyyyyy",
"yyyCrryyyyyyyudAAAzzAuyunnuyyyyy",
"yyyryyryyyyyyudAAzdzAuyyuuyyyyyy",
"yyrryyCryyyyuooBBBdzAuyyyyyyyyyy",
"yyryyrrCryyyutudduuzAAuyyyyyyyyy",
"yyryyyyyrCCryuyuuryumbuyyyyyyyyy",
"yryyyyyyyyyrCCrrrrsumnnuyyyyyyyy",
"rCyyyyyyyyyyEEEppvvEExwEpppyyyyy",
"Cryyyyyyyyyyyppppvvvvvvappyyyyyr",
};
