/* XPM */
static char * image[] = {
/* width height num_colors chars_per_pixel */
"32 32 22 1",
"a c #70805f",
"b c #a4513f",
"c c #5a5237",
"d c #3c312c",
"e c #667556",
"f c #512d23",
"g c #5e724a",
"h c #677755",
"i c #342a25",
"j c #453a35",
"k c #778667",
"l c #5b3c2c",
"m c #d07753",
"n c #7a2d18",
"o c #854133",
"p c #000000",
"q c #6e635f",
"r c #d58858",
"s c #eb9661",
"t c #645c3f",
"u c #ac6e47",
"v c #b55945",
"vssssssssssssssssvmsssssmmvvmvvv",
"mssssssssssssssssmsssssssssmmmmv",
"mssssssssssssssssssssssssssssssm",
"msssssssssssssssssssssssssssssss",
"vssssssssssssssmssssssssssssssss",
"vmsssssssssssssmsssssssssssssssm",
"mvsssssssssssssmssssssssssssssvm",
"smmmsssssssssssvsssssssssssssmss",
"ssmmmmmssssssmmvssssssssssssssss",
"ssmsssvmmmsssssmmsssssssssssmsss",
"ssssssmmssssssssvsssssssssssmsss",
"sssssssmssssssssvmssssssssssmsss",
"sssssssvmsssssmvvvmsssssssssvmss",
"smsssssvvmmsspppppvmssssssssvvmm",
"mvsssssmmsssplffffpmmsssssssmsss",
"smvsssvmssspgglflggpsmvssssmssss",
"ssmvvvmssspgggnlngggpsmvvmssssss",
"sssmvmsssspgggnnhnggpssvssssssss",
"ssssvmsssspgghnaahngpssmssssssss",
"ssssmmsssspghnlaaangpssmssssssss",
"ssssmmssssphnlkkkaanpssmssssssss",
"ssssmsssssphnakkkaahpsmmssssssss",
"ssssvsssssphlaiiiaahpsmsssssssss",
"sssmvmsssspiiiiiiiiipsmsssssssss",
"sssvmmsssspiiiiiiiiipmssssssssss",
"sssmssmsspjiiiiiiiiijpssssssssss",
"ssmmssvmspjjiiiiiiijjpssssssssss",
"ssmssmmvmpjjtttctttjjpssssssssss",
"ssmsssssmpjjkkcdcqqjjpssssssssss",
"smssssssspeekkpppqqeepssssssssss",
"mvsssssssruuuuuuuoouubmsssssssss",
"vmssssssssrrrrrrrbbbbvvmsssssssm",
};
