/* XPM */
static char * image[] = {
/* width height num_colors chars_per_pixel */
"32 32 27 1",
"a c #70805f",
"b c #3c312c",
"c c #5a5237",
"d c #2d2420",
"e c #bec49f",
"f c #512d23",
"g c #8dab5f",
"h c #5e724a",
"i c #677755",
"j c #342a25",
"k c #453a35",
"l c #6a7a5a",
"m c #778667",
"n c #d48757",
"o c #5b3c2c",
"p c #d07753",
"q c #7a2d18",
"r c #000000",
"s c #a3503e",
"t c #834032",
"u c #eb9661",
"v c #60583c",
"w c #645c3f",
"x c #70694f",
"y c #b55945",
"z c #a2a97f",
"A c #aa6c46",
"yuuuuuuuuuuuuuuuuypuuuuuppyypyyy",
"puuuuuuuuuuuuuuuupuuuuuuuuuppppy",
"puuuuuuuuuuuuuuuuuuuuuuuuuuuuuup",
"puuuuuuuuuuuuuuuuuuuuuuuuuuuuuuu",
"yuuuuuuuuuuuuuupuuuuuuuuuuuuuuuu",
"ypuuuuuuuuuuuuupuuuuuuuuuuuuuuup",
"pyuuuuuuuuuuuuupuuuuuuuuuuuuuuyp",
"upppuuuuuuuuuuuyuuuuuuuuuuuuupuu",
"uupppppuurrrrrpyuuuuuuuuuuuuuuuu",
"uupuuuyprqffoqrppuuuuuuuuuuupuuu",
"uuuuuuproqffqhhryuuuuuuuuuuupuuu",
"uuuuuuroqqfqqhhhrpuuuuuuuuuupuuu",
"uuuuuurqhqqqqqhhrypuuuuuuuuuypuu",
"upuuuurqiqaaqqhhryypuuuuuuuuyypp",
"pyuuuuriaqaaaqqhruuppuuuuuuupuuu",
"upyuuurrraqrrrqhruuuupyuuuupuuuu",
"uupyyyregqogeqqruuuuuupyypuuuuuu",
"uuupypriaaoaaaaruuuuuuuyuuuuuuuu",
"uuuuypriaaaooahrruuuuuupuuuuuuuu",
"uuuupprhzazazombkruuuuupuuuuuuuu",
"uuuuppurhzqzqabbkruuuuupuuuuuuuu",
"uuuupuuurhqqbbbkkruuuuppuuuuuuuu",
"uuuuyuuuurfbbbbkfruuuupuuuuuuuuu",
"uuupypuuurmbbbaffruuuupuuuuuuuuu",
"uuuyppuuurkjjljfmruuupuuuuuuuuuu",
"uuupuupuurkkdddmkruuuyuuuuuuuuuu",
"uuppuuypurkwwwwkkcrupyuuuuuuuuuu",
"uupuuppyprkwwcwkkqrpyyuuuuuuuuuu",
"uupuuuuuprmwvqwqmhhrpyuuuuuuuuuu",
"upuuuuuuuuqxxrxxxllrupuuuuuuuuuu",
"pyuuuunnnnAAAAAAAttAuypuuuuuuuuu",
"ypuuuuunnnnnnnnnnssyyyypuuuuuuup",
};
