/* XPM */
static char * image[] = {
/* width height num_colors chars_per_pixel */
"32 32 22 1",
"a c #3a2b28",
"b c #6e7d61",
"c c #844233",
"d c #634a45",
"e c #d2a394",
"f c #6e6554",
"g c #a4513e",
"h c #ab6e47",
"i c #d07753",
"j c #8f9d84",
"k c #bc6c4b",
"l c #4c403d",
"m c #553d39",
"n c #57636b",
"o c #4c342f",
"p c #d48858",
"q c #817867",
"r c #0c0a07",
"s c #eb9661",
"t c #425059",
"u c #5f7050",
"v c #b55945",
"vssssssssssssssssvisssssiivvivvv",
"issssssssssssssssisssssssssiiiiv",
"issssssssssssssssssssssssssssssi",
"isssssssssssssssssssssssssssssss",
"vssssssssssssssissssssssssssssss",
"visssssssssssssisssssssssssssssi",
"ivsssssssssssssissssssssssssssvi",
"siiisssssssssssvsssssssssssssiss",
"ssiiiiissssssirvsrrsssssssssssss",
"ssisssviiisssrorroorrrssssssisss",
"ssssssiissssrodooddooorsssssisss",
"sssssssisssrdddddddddrssssssisss",
"sssssssvisrodddddddoodrsssssviss",
"sisssssvvrooddddddodddrsssssvvii",
"ivsssssiisrdddddddddddorssssisss",
"sivsssvissrmddododdddorssssissss",
"ssivvvissrmmdddodddddmrvvissssss",
"sssivissssrmmddddddddmmrssssssss",
"ssssvissssrmmmddddddmmrissssssss",
"ssssiisssssrmmddddmmmrsissssssss",
"ssssiissssssrmmmmmmmrssissssssss",
"ssssissssssrababbbabariissssssss",
"ssssvssssssraabbbbbaarisssssssss",
"sssivissssraaabbbbbaaarsssssssss",
"sssviissssrlbabjjjbablrsssssssss",
"sssississsrlrbbuuubbrlrsssssssss",
"ssiissvissrerabjjjbarersssssssss",
"ssissiivissrrnnntnnnrrssssssssss",
"ssisssssivvirqqtrtqqrvssssssssss",
"sisssssssssirffrirffrissssssssss",
"ivssssssspphhhhhhcchhckpssssssss",
"visssssssspppppppggggggisssssssi",
};
