/* XPM */
static char * image[] = {
/* width height num_colors chars_per_pixel */
"32 32 24 1",
"a c #3a2b28",
"b c #6e7d61",
"c c #844233",
"d c #634a45",
"e c #d2a394",
"f c #6e6554",
"g c #a4513e",
"h c #99583d",
"i c #ab6e47",
"j c #d07753",
"k c #8f9d84",
"l c #4c403d",
"m c #553d39",
"n c #4c342f",
"o c #647357",
"p c #d48858",
"q c #817867",
"r c #d58858",
"s c #0c0a07",
"t c #eb9661",
"u c #425059",
"v c #5f7050",
"w c #ac6e47",
"x c #b55945",
"xttttttttttttttttxjtttttjjxxjxxx",
"jttttttttttttttttjtttttttttjjjjx",
"jttttttttttttttttttttttttttttttj",
"jttttttttttttttttttttttttttttttt",
"xttttttttttttttjtttttttttttttttt",
"xjtttttttttttttjtttttttttttttttj",
"jxtttttttttttttjttttttttttttttxj",
"tjjjtttttttttttxtttttttttttttjtt",
"ttjjjjjttttttjjxtttttttttttttttt",
"ttjtttxjjjtttttjjtttttttttttjttt",
"ttttttjjttttttttxtttttttttttjttt",
"tttttttjttttttstxsstttttttttjttt",
"tttttttxjttttsnssnnsssttttttxjtt",
"tjtttttxxjjtsndnnddnnnstttttxxjj",
"jxtttttjjttsdddddddddsttttttjttt",
"tjxtttxjttsndddddddnndsttttjtttt",
"ttjxxxjttsnnddddddndddsxxjtttttt",
"tttjxjttttsdddddddddddnstttttttt",
"ttttxjttttsmddndnddddnsjtttttttt",
"ttttjjtttsmmdddndddddmsjtttttttt",
"ttttjjttttsmmddddddddmmstttttttt",
"ttttjtttttsmmmddddddmmsjtttttttt",
"ttttxttttttsmmdbbbmmmsjttttttttt",
"tttjxjtttttssmbbbbbmssjttttttttt",
"tttxjjttttslaobbbbboalsttttttttt",
"tttjttjtttsaaabkkkbaaasttttttttt",
"ttjjttxjtslaabbvvvbbaalstttttttt",
"ttjttjjxjslsoabkkkbaoslstttttttt",
"ttjtttttslassqquauqqssalsttttttt",
"tjttttttsesjsffsjsffsjsesttttttt",
"jxttttttrwwiiiiiicciichwrttttttt",
"xjttttttttpppppppggggggjtttttttj",
};
