/* XPM */
static char * image[] = {
/* width height num_colors chars_per_pixel */
"32 32 29 1",
"a c #70805f",
"b c #3c312c",
"c c #5a5237",
"d c #2d2420",
"e c #a86b45",
"f c #bec49f",
"g c #512d23",
"h c #8dab5f",
"i c #5e724a",
"j c #677755",
"k c #342a25",
"l c #453a35",
"m c #bb6b4b",
"n c #6a7a5a",
"o c #778667",
"p c #4a413c",
"q c #5b3c2c",
"r c #d07753",
"s c #7a2d18",
"t c #695d58",
"u c #000000",
"v c #a3503e",
"w c #814031",
"x c #eb9661",
"y c #60583c",
"z c #645c3f",
"A c #d38757",
"B c #b55945",
"C c #a2a97f",
"BxxxxxxxxxxxxxxxxBrxxxxxrrBBrBBB",
"rxxxxxxxxxxxxxxxxrxxxxxxxxxrrrrB",
"rxxxxxxxxxxxxxxxxxxxxxxxxxxxxxxr",
"rxxxxxxxxxxxxxxxxxxxxxxxxxxxxxxx",
"Bxxxxxxxxxxxxxxrxxxxxxxxxxxxxxxx",
"Brxxxxxxxxxxxxxuuuuuxxxxxxxxxxxr",
"rBxxxxxxxxxxxxuiqggguxxxxxxxxxBr",
"xrrrxxxxxxxxxugqqggqiuxxxxxxxrxx",
"xxrrrrrxxxxxuggqiqgqiiuxxxxxxxxx",
"xxrxxxBrrrxxugqiiqqjiiuxxxxxrxxx",
"xxxxxxrrxxxxuqijjaqajiuxxxxxrxxx",
"xxxxxxxrxxxxuijaaaqaajuxxxxxrxxx",
"xxxxxxxBrxxxuiauuuaquuuuxxxxBrxx",
"xrxxxxxBBrrxxuaafhaqhfkkuxxxBBrr",
"rBxxxxxrrxxxxuaaaaaqajnnuxxxrxxx",
"xrBxxxBrxxxxxuiaaaaaqjkuxxxrxxxx",
"xxrBBBrxxxxxuuuiCaCaCqkuBrxxxxxx",
"xxxrBrxxxxxuppboiCsCskkuxxxxxxxx",
"xxxxBrxxxxxulggppisskkkuxxxxxxxx",
"xxxxrrxxxxxudgollppppuurxxxxxxxx",
"xxxxrrxxxxxxubdddllllppuxxxxxxxx",
"xxxxrxxxxxxxubbbbaduuoouxxxxxxxx",
"xxxxBxxxxxxxukkknkuxxuuxxxxxxxxx",
"xxxrBrxxxxxxuddddduxxxrxxxxxxxxx",
"xxxBrrxxxxxuczzzzzzuxrxxxxxxxxxx",
"xxxrxxrxxxxuczzzczzuxBxxxxxxxxxx",
"xxrrxxBrxxxxuzzzuyzurBxxxxxxxxxx",
"xxrxxrrBrxxxuzzzuzzuBBxxxxxxxxxx",
"xxrxxxxxrBBrupppusnsrBxxxxxxxxxx",
"xrxxxxxxxxxrupttunaaurxxxxxxxxxx",
"rBxxxxxxxxxAeeeeewweevmAAAxxxxxx",
"BrxxxxxxxxxxAAAAAvvvvvvmAxxxxxxr",
};
