/* XPM */
static char * image[] = {
/* width height num_colors chars_per_pixel */
"32 32 17 1",
"a c #5b3c2c",
"b c #677755",
"c c #7a2d18",
"d c #70805f",
"e c #60583c",
"f c #695d58",
"g c #000000",
"h c #342a25",
"i c #3c312c",
"j c #453a35",
"k c #2d2420",
"l c #6a7a5a",
"m c #778667",
"n c #4a413c",
"o c #a2a97f",
"p c #512d23",
"q c #5e724a",
"gggggggggggggggggggggggggggggggg",
"gggggggggggggggggggggggggggggggg",
"gggggggggggggggggggggggggggggggg",
"gggggggggggggggggggggggggggggggg",
"gggggggggggggggggggggggggggggggg",
"gggggggggggggggggggggggggggggggg",
"gggggggggggggggggggggggggggggggg",
"gggggggggggggggggggggggggggggggg",
"gggggggggggggggggggggggggggggggg",
"gggggggggggggggggggggggggggggggg",
"gggggggggggggggggggggggggggggggg",
"gggggggggggggggggggggggggggggggg",
"gggggggggggggggggggggggggggggggg",
"gggggggggggggggggggggggggggggggg",
"gggggggggggggggggggqcpppgggggggg",
"ggggggggggggggggggpacppcqggggggg",
"gggggggggggggggggppaqcpccqgggggg",
"gggggggggggggggggpccqccbccgggggg",
"gggggggggggggggggaccbdcdccgggggg",
"gggggggggggggggggccdddcddcgggggg",
"gggggggggggggggggqdddddcddgggggg",
"ggggggggggggggggggdgggcagggggggg",
"ggggggggggggggggggdddddadbgggggg",
"ggggggggggggggggjiqdddddabgggggg",
"ggggggggggggggggjiiqododoagggggg",
"ggggggggggggggggjiiiqococggggggg",
"gggggggggggggggpjiiiiqccgggggggg",
"gggggggggggggggmpiiidijggggggggg",
"gggggggggggggnejhhhlchcggggggggg",
"gggggggggggggfcjkkkkkjgggggggggg",
"gggggggggggggggggggggggggggggggg",
"gggggggggggggggggggggggggggggggg",
};
