/* XPM */
static char * image[] = {
/* width height num_colors chars_per_pixel */
"32 32 12 1",
"a c #5b3c2c",
"b c #677755",
"c c #7a2d18",
"d c #60583c",
"e c #695d58",
"f c #000000",
"g c #3c312c",
"h c #453a35",
"i c #778667",
"j c #4a413c",
"k c #512d23",
"l c #5e724a",
"ffffffffffffffffffffffffffffffff",
"ffffffffffffffffffffffffffffffff",
"ffffffffffffffffffffffffffffffff",
"ffffffffffffffffffffffffffffffff",
"ffffffffffffffffffffffffffffffff",
"ffffffffffffffffffffffffffffffff",
"ffffffffffffffffffffffffffffffff",
"ffffffffffffffffffffffffffffffff",
"ffffffffffffffffffffffffffffffff",
"ffffffffffffffffffffffffffffffff",
"ffffffffffffffffffffffffffffffff",
"ffffffffffffffffffffffffffffffff",
"ffffffffffffffffffffffffffffffff",
"ffffffffffffffffffffffffffffffff",
"ffffffffffffffffffffffffffffffff",
"ffffffffffffffffffffffffffffffff",
"ffffffffffffffffffffffffffffffff",
"ffffffffffffffffffffffffffffffff",
"ffffffffffffffffffffffffffffffff",
"ffffffffffffffffffffffffffffffff",
"ffffffffffffffffffffffffffffffff",
"ffffffffffffffffffffffffffffffff",
"ffffffffffffffffffffffffffffffff",
"ffffffffffffffffffffffffffffffff",
"fffffffffffffffffffffffflalfffff",
"ffffffffffffffffffffffflllclffff",
"ffffffffffffffffffffffllbacalfff",
"fffffffffffffffffggggllbkckkalff",
"fffffffffffffjdddgggllllckkkklff",
"fffffffffffffedihhhcclcclckkclcf",
"ffffffffffffffffffffffffffffffff",
"ffffffffffffffffffffffffffffffff",
};
