/* XPM */
static char * image[] = {
/* width height num_colors chars_per_pixel */
"32 32 17 1",
"a c #5b3c2c",
"b c #677755",
"c c #7a2d18",
"d c #70805f",
"e c #695d58",
"f c #000000",
"g c #342a25",
"h c #645c3f",
"i c #3c312c",
"j c #5a5237",
"k c #453a35",
"l c #2d2420",
"m c #6a7a5a",
"n c #778667",
"o c #4a413c",
"p c #512d23",
"q c #5e724a",
"ffffffffffffffffffffffffffffffff",
"ffffffffffffffffffffffffffffffff",
"ffffffffffffffffffffffffffffffff",
"ffffffffffffffffffffffffffffffff",
"ffffffffffffffffffffffffffffffff",
"fffffffffffffappppffffffffffffff",
"ffffffffffffqqapaqqfffffffffffff",
"fffffffffffqqqaaqqqqffffffffffff",
"fffffffffffqqqabbqqqffffffffffff",
"fffffffffffqqbaddbqqffffffffffff",
"fffffffffffqbdadddbqffffffffffff",
"fffffffffffbdadddddbffffffffffff",
"fffffffffffbaddddddbffffffffffff",
"fffffffffffbadnnnddbffffffffffff",
"fffffffffffqadnnndbqffffffffffff",
"ffffffffffffabgggbqfffffffffffff",
"fffffffffffgggggggggffffffffffff",
"ffffffffffkgggggggggffffffffffff",
"ffffffffffkgggggggggffffffffffff",
"ffffffffffkkgggggggkkfffffffffff",
"fffffffffikklggggglkkfffffffffff",
"fffffffffbkkfiiidifkkfffffffffff",
"fffffffffffffiidiifkkfffffffffff",
"fffffffffffffinnnifkkfffffffffff",
"ffffffffffffhhhhhhhkffffffffffff",
"ffffffffffffhhhjhhhkffffffffffff",
"ffffffffffffhjjfjjhbffffffffffff",
"ffffffffffffhhfffhhfffffffffffff",
"ffffffffffffmmfffoofffffffffffff",
"fffffffffffdddfcfeeeffffffffffff",
"ffffffffffffffffffffffffffffffff",
"ffffffffffffffffffffffffffffffff",
};
