/* XPM */
static char * image[] = {
/* width height num_colors chars_per_pixel */
"32 32 26 1",
"a c #bc6b4b",
"b c #70805f",
"c c #3c312c",
"d c #2d2420",
"e c #512d23",
"f c #5e724a",
"g c #677755",
"h c #342a25",
"i c #453a35",
"j c #6a7a5a",
"k c #778667",
"l c #4a413c",
"m c #d48757",
"n c #5b3c2c",
"o c #d07753",
"p c #7a2d18",
"q c #695d58",
"r c #000000",
"s c #a3503e",
"t c #96563c",
"u c #834032",
"v c #eb9661",
"w c #60583c",
"x c #b55945",
"y c #a2a97f",
"z c #aa6c46",
"xvvvvvvvvvvvvvvvvxovvvvvooxxoxxx",
"ovvvvvvvvvvvvvvvvovvvvvvvvvoooox",
"ovvvvvvvvvvvvvvvvvvvvvvvvvvvvvvo",
"ovvvvvvvvvvvvvvvvvvvvvvvvvvvvvvv",
"xvvvvvvvvvvvvvvovvvvvvvvvvvvvvvv",
"xovvvvvvvvvvvvvovvvvvvvvvvvvvvvo",
"oxvvvvvvvvvvvvvovvvvvvvvvvvvvvxo",
"vooovvvvvvvvvvvxvvvvvvvvvvvvvovv",
"vvooooovvvvvvooxvvvvvvvvvvvvvvvv",
"vvovvvxooovvvvvoovvvvvvvvvvvovvv",
"vvvvvvoovvvvvvvvxvvvvvvvvvvvovvv",
"vvvvvvvovvvvvvvvxovvvvvvvvvvovvv",
"vvvvvvvxovvvvvoxxxovvvvvvvvvxovv",
"vovvvvvxxoovvvvvoxxrrrrrvvvvxxoo",
"oxvvvvvoovvvvvvvvvrfpeeervvvovvv",
"voxvvvxovvvvvvvvvrenpeepfrvovvvv",
"vvoxxxovvvvvvvvvreenfpeppfrvvvvv",
"vvvoxovvvvvvvvvvreppfppgpprvvvvv",
"vvvvxovvvvvvvvvvrnppgbpbpprvvvvv",
"vvvvoovvvvvvvvvvrppbbbpbbprvvvvv",
"vvvvoovvvvvvvvvvrfbbbbbpbbrvvvvv",
"vvvvovvvvvvvvvvvvrbrrrpnrrrvvvvv",
"vvvvxvvvvvvvvvvvrrbbbbbnbgrvvvvv",
"vvvoxovvvvvvvvvricfbbbbbngrvvvvv",
"vvvxoovvvvvvvvvriccfybybynrvvvvv",
"vvvovvovvvvvvvvricccfypyprvvvvvv",
"vvoovvxovvvvvvreiccccfpprvvvvvvv",
"vvovvooxovvvvrrkecccbcirvvvvvvvv",
"vvovvvvvoxxorlwihhhjphprvvvvvvvv",
"vovvvvvvvvvorqpidddddirvvvvvvvvv",
"oxvvvvvvvvvvzzzzzuuzzutmmmmvvvvv",
"xovvvvvvvvvvvmmmmssssssammvvvvvo",
};
