/* XPM */
static char * image[] = {
/* width height num_colors chars_per_pixel */
"32 32 25 1",
"a c #e3e3e3",
"b c #3a2b28",
"c c #6e7d61",
"d c #844233",
"e c #634a45",
"f c #a4513e",
"g c #b0b0b0",
"h c #d4d4d4",
"i c #ab6e47",
"j c #d07753",
"k c #8f9d84",
"l c #bc6c4b",
"m c #362623",
"n c #4c403d",
"o c #553d39",
"p c #57636b",
"q c #4c342f",
"r c #d48858",
"s c #554c3c",
"t c #0c0a07",
"u c #eb9661",
"v c #425059",
"w c #5f7050",
"x c #e4b5a5",
"y c #b55945",
"yuuuuuuuuuuuuuuuuyjuuuuujjyyjyyy",
"juuuuuuuuuuuuuuuujuuuuuuuuujjjjy",
"juuuuuuuuuuuuuuuuuuuuuuuuuuuuuuj",
"juuuuuuuuuuuuuuuuuuuuuuuuuuuuuuu",
"yuuuuuuuuuuuuuujuuuuuuuuuuuuuuuu",
"yjuuuuuuuuuuuuujuuuuuuuuuuuuuuuj",
"jyuuuuuuuuuuuutjuttuuuuuuuuuuuyj",
"ujjjuuuuuuuuutqttqqtttuuuuuuujuu",
"uujjjjjuuuuutqeqqeeqqqtuuuuuuuuu",
"uujuuuyjjjuteeeeeeeeetuuuuuujuuu",
"uuuuuujjuutqeeeeeeeqqetuuuuujuuu",
"uuuuuuujutqqeeeeeeqeeetuuuuujuuu",
"uuuuuuuyjuteeeeeeeeeeeqtuuuuyjuu",
"ujuuuuuyyjtoeeqeqeeeeqtuuuuuyyjj",
"jyuuuuujjtooeeeqeeeeeotuuuuujuuu",
"ujyuuuyjuutooeeeeeeeeootuuujuuuu",
"uujyyyjuuutoooeeeeeeootyyjuuuuuu",
"uuujyjuuuuutooeeeeoootuyuuuuuuuu",
"uuuuyjuuuuuutooooooottujuuuuuuuu",
"uuuujjuuuuutbcbcccbcnntjuuuuuuuu",
"uuuujjuuuuabnncccccnnnnauuuuuuuu",
"uuuujuuuutbnnncccccnnnhguuuuuuuu",
"uuuuyuuutbngcbckkkcbcgguuuuuuuuu",
"uuujyjuutxxttccwwwcctujuuuuuuuuu",
"uuuyjjuuuttutbckkkcbtjuuuuuuuuuu",
"uuujuujuuuuutvpppppvtyuuuuuuuuuu",
"uujjuuyjuuuutvvvttvvvtuuuuuuuuuu",
"uujuujjyjuuutvvtuutvvtuuuuuuuuuu",
"uujuuuuujyyjtmmtujtmmtuuuuuuuuuu",
"ujuuuuuuuuutsmmtjjtmmstuuuuuuuuu",
"jyuuuuuuurriiiiiiddiidlruuuuuuuu",
"yjuuuuuuuurrrrrrrffffffjuuuuuuuj",
};
