/* XPM */
static char * image[] = {
/* width height num_colors chars_per_pixel */
"32 32 17 1",
"a c #3a2b28",
"b c #8f9d84",
"c c #362623",
"d c #425059",
"e c #4c403d",
"f c #5f7050",
"g c #000000",
"h c #553d39",
"i c #634a45",
"j c #d2a394",
"k c #57636b",
"l c #4c342f",
"m c #e4b5a5",
"n c #554c3c",
"o c #b0b0b0",
"p c #6e7d61",
"q c #0c0a07",
"gggggggggggggggggggggggggggggggg",
"gggggggggggggggggggggggggggggggg",
"gggggggggggggggggggggggggggggggg",
"gggggggggggggggggggggggggggggggg",
"gggggggggggggggggggggggggggggggg",
"gggggggggggggggggggggggggggggggg",
"ggggggggggggggqggqqggggggggggggg",
"gggggggggggggqlqqllqqqgggggggggg",
"ggggggggggggqlilliilllqggggggggg",
"gggggggggggqiiiiiiiiiqgggggggggg",
"ggggggggggqliiiiiiilliqggggggggg",
"gggggggggqlliiiiiiliiiqggggggggg",
"ggggggggggqiiiiiiiiiiilqgggggggg",
"ggggggggggqhiililiiiilqggggggggg",
"gggggggggqhhiiiliiiiihqggggggggg",
"ggggggggggqhhiiiiiiiihhqgggggggg",
"ggggggggggqhhhiiiiiihhqggggggggg",
"ggggggggggqqhhiiiihhhqqggggggggg",
"gggggggggqjaahhhhhhhqeeqgggggggg",
"gggggggggqjaepapppapeeaqgggggggg",
"gggggggggqoeeepppppeeaqggggggggg",
"gggggggggqeeeepppppeaqgggggggggg",
"ggggggggqeeqpapbbbpapggggggggggg",
"ggggggggqmmqqppfffppqggggggggggg",
"gggggggggqqgqapbbbpaqggggggggggg",
"ggggggggggggqdkkkkkdqggggggggggg",
"ggggggggggggqdddqqdddqgggggggggg",
"ggggggggggggqddqggqddqgggggggggg",
"ggggggggggggqccqggqccqgggggggggg",
"gggggggggggqnccqggqccnqggggggggg",
"gggggggggqqqqqqqqqqqqqqqgggggggg",
"ggggggggggqqqqqqqqqqqqqggggggggg",
};
