/* XPM */
static char * image[] = {
/* width height num_colors chars_per_pixel */
"32 32 18 1",
"a c #e3e3e3",
"b c #3a2b28",
"c c #8f9d84",
"d c #362623",
"e c #425059",
"f c #4c403d",
"g c #5f7050",
"h c #000000",
"i c #553d39",
"j c #634a45",
"k c #57636b",
"l c #4c342f",
"m c #e4b5a5",
"n c #554c3c",
"o c #b0b0b0",
"p c #6e7d61",
"q c #0c0a07",
"r c #d4d4d4",
"hhhhhhhhhhhhhhhhhhhhhhhhhhhhhhhh",
"hhhhhhhhhhhhhhhhhhhhhhhhhhhhhhhh",
"hhhhhhhhhhhhhhhhhhhhhhhhhhhhhhhh",
"hhhhhhhhhhhhhhhhhhhhhhhhhhhhhhhh",
"hhhhhhhhhhhhhhhhhhhhhhhhhhhhhhhh",
"hhhhhhhhhhhhhhhhhhhhhhhhhhhhhhhh",
"hhhhhhhhhhhhhhqhhqqhhhhhhhhhhhhh",
"hhhhhhhhhhhhhqlqqllqqqhhhhhhhhhh",
"hhhhhhhhhhhhqljlljjlllqhhhhhhhhh",
"hhhhhhhhhhhqjjjjjjjjjqhhhhhhhhhh",
"hhhhhhhhhhqljjjjjjjlljqhhhhhhhhh",
"hhhhhhhhhqlljjjjjjljjjqhhhhhhhhh",
"hhhhhhhhhhqjjjjjjjjjjjlqhhhhhhhh",
"hhhhhhhhhhqijjljljjjjlqhhhhhhhhh",
"hhhhhhhhhqiijjjljjjjjiqhhhhhhhhh",
"hhhhhhhhhhqiijjjjjjjjiiqhhhhhhhh",
"hhhhhhhhhhqiiijjjjjjiiqhhhhhhhhh",
"hhhhhhhhhhhqiijjjjiiiqhhhhhhhhhh",
"hhhhhhhhhhhhqiiiiiiiqqhhhhhhhhhh",
"hhhhhhhhhhhqbpbpppbpffqhhhhhhhhh",
"hhhhhhhhhhabffpppppffffahhhhhhhh",
"hhhhhhhhhqbfffpppppfffrohhhhhhhh",
"hhhhhhhhqbfopbpcccpbpoohhhhhhhhh",
"hhhhhhhhqmmqqppgggppqhhhhhhhhhhh",
"hhhhhhhhhqqhqbpcccpbqhhhhhhhhhhh",
"hhhhhhhhhhhhqekkkkkeqhhhhhhhhhhh",
"hhhhhhhhhhhhqeeeqqeeeqhhhhhhhhhh",
"hhhhhhhhhhhhqeeqhhqeeqhhhhhhhhhh",
"hhhhhhhhhhhhqddqhhqddqhhhhhhhhhh",
"hhhhhhhhhhhqnddqhhqddnqhhhhhhhhh",
"hhhhhhhhhqqqqqqqqqqqqqqqhhhhhhhh",
"hhhhhhhhhhqqqqqqqqqqqqqhhhhhhhhh",
};
