/* XPM */
static char * image[] = {
/* width height num_colors chars_per_pixel */
"32 32 19 1",
"a c #3a2b28",
"b c #7f6f71",
"c c #6e7d61",
"d c #634a45",
"e c #d2a394",
"f c #b0b0b0",
"g c #d4d4d4",
"h c #8f9d84",
"i c #362623",
"j c #4c403d",
"k c #000000",
"l c #553d39",
"m c #57636b",
"n c #4c342f",
"o c #554c3c",
"p c #0c0a07",
"q c #425059",
"r c #5f7050",
"s c #e4b5a5",
"kkkkkkkkkkkkkkkkkkkkkkkkkkkkkkkk",
"kkkkkkkkkkkkkkkkkkkkkkkkkkkkkkkk",
"kkkkkkkkkkkkkkkkkkkkkkkkkkkkkkkk",
"kkkkkkkkkkkkkkkkkkkkkkkkkkkkkkkk",
"kkkkkkkkkkkkkkkkkkkkkkkkkkkkkkkk",
"kkkkkkkkkkkkkkpkkppkkkkkkkkkkkkk",
"kkkkkkkkkkkkkpnppnnpppkkkkkkkkkk",
"kkkkkkkkkkkkpndnnddnnnpkkkkkkkkk",
"kkkkkkkkkkkpdddddddddpkkkkkkkkkk",
"kkkkkkkkkkpndddddddnndpkkkkkkkkk",
"kkkkkkkkkpnnddddddndddpkkkkkkkkk",
"kkkkkkkkkkpdddddddddddnpkkkkkkkk",
"kkkkkkkkkkplddndnddddnpkkkkkkkkk",
"kkkkkkkkkplldddndddddlpkkkkkkkkk",
"kkkkkkkkkkpllddddddddllpkkkkkkkk",
"kkkkkkkkkkplllddddddllpkkkkkkkkk",
"kkkkkkkkkkkpllddddlllpkkkkkkkkkk",
"kkkkkkkkkkkkplllllllppkkkkkkpkkk",
"kkkkkkkkkkkpacacccacjjppkkkpgpkk",
"kkkkkkkkkkkpjjcccccjjjjjpppgfpkk",
"kkkkkkkkkkpajjcccccjjjjjjjgfpkkk",
"kkkkkkkkkkpjcachhhcacpppssfpkkkk",
"kkkkkkkkkpjjpccrrrccpkkbpppkkkkk",
"kkkkkkkkkpsepachhhcapkkkkkkkkkkk",
"kkkkkkkkkkpppqqqqqqqpkkkkkkkkkkk",
"kkkkkkkkkkkkpqmmmmmqpkkkkkkkkkkk",
"kkkkkkkkkkkkpqqqpqqqpkkkkkkkkkkk",
"kkkkkkkkkkkkpqqpkpqqpkkkkkkkkkkk",
"kkkkkkkkkkkkpiipkpiipkkkkkkkkkkk",
"kkkkkkkkkkkpoiipkpiiopkkkkkkkkkk",
"kkkkkkkkkpppppppppppppppkkkkkkkk",
"kkkkkkkkkkpppppppppppppkkkkkkkkk",
};
