/* XPM */
static char * image[] = {
/* width height num_colors chars_per_pixel */
"32 32 15 1",
"a c #5b3c2c",
"b c #677755",
"c c #70805f",
"d c #695d58",
"e c #000000",
"f c #342a25",
"g c #645c3f",
"h c #3c312c",
"i c #453a35",
"j c #6a7a5a",
"k c #778667",
"l c #70694f",
"m c #4a413c",
"n c #512d23",
"o c #5e724a",
"eeeeeeeeeeeeeeeeeeeeeeeeeeeeeeee",
"eeeeeeeeeeeeeeeeeeeeeeeeeeeeeeee",
"eeeeeeeeeeeeeeeeeeeeeeeeeeeeeeee",
"eeeeeeeeeeeeeeeeeeeeeeeeeeeeeeee",
"eeeeeeeeeeeeeeeeeeeeeeeeeeeeeeee",
"eeeeeeeeeeeeeeeeeeeeeeeeeeeeeeee",
"eeeeeeeeeeeeeeeeeeeeeeeeeeeeeeee",
"eeeeeeeeeeeannnneeeeeeeeeeeeeeee",
"eeeeeeeeeeooanaooeeeeeeeeeeeeeee",
"eeeeeeeeeoooaaooooeeeeeeeeeeeeee",
"eeeeeeeeeoooabboooeeeeeeeeeeeeee",
"eeeeeeeeeoobaccbooeeeeeeeeeeeeee",
"eeeeeeeeeobcacccboeeeeeeeeeeeeee",
"eeeeeeeeebcakkkccbeeeeeeeeeeeeee",
"eeeeeeeeebackkkccbeeeeeeeeeeeeee",
"eeeeeeeeebeefffeeeeeeeeeeeeeeeee",
"eeeeeeeeeeifffffffeeeeeeeeeeeeee",
"eeeeeeeeeeifffffffheeeeeeeeeeeee",
"eeeeeeeeeeiiffffffhheeeeeeeeeeee",
"eeeeeeeeeeeiffffffhiieeeeeeeeeee",
"eeeeeeeeeeeiifffjfeiieeeeeeeeeee",
"eeeeeeeeeiiiihhhcheiieeeeeeeeeee",
"eeeeeeeeekkeehhchheiieeeeeeeeeee",
"eeeeeeeeeeeeehcccheeiieeeeeeeeee",
"eeeeeeeeeeeelllllleeiieeeeeeeeee",
"eeeeeeeeeeeglllllleekkeeeeeeeeee",
"eeeeeeeeeeggllglleeeeeeeeeeeeeee",
"eeeeeeeeeegggeegggeeeeeeeeeeeeee",
"eeeeeeeeeeeooeeemmeeeeeeeeeeeeee",
"eeeeeeeeeeeeeeeeddeeeeeeeeeeeeee",
"eeeeeeeeeeeeeeeeeeeeeeeeeeeeeeee",
"eeeeeeeeeeeeeeeeeeeeeeeeeeeeeeee",
};
