/* XPM */
static char * image[] = {
/* width height num_colors chars_per_pixel */
"32 32 79 1",
"a c #c5704f",
"b c #713e2b",
"c c #54a62d",
"d c #a48758",
"e c #b56e54",
"f c #794635",
"g c #852f2d",
"h c #e1ca89",
"i c #906634",
"j c #c27f39",
"k c #b98c4e",
"l c #ab5741",
"m c #b9a774",
"n c #f5db93",
"o c #a57544",
"p c #ae6138",
"q c #23802d",
"r c #af523a",
"s c #844f31",
"t c #c3744f",
"u c #b36941",
"v c #907c57",
"w c #964f3a",
"x c #a84e3e",
"y c #765137",
"z c #39cc2d",
"A c #8f5c33",
"B c #9c542f",
"C c #9e533b",
"D c #89975f",
"E c #b4613d",
"F c #9e5344",
"G c #80482d",
"H c #dd905c",
"I c #8f512f",
"J c #a2785b",
"K c #804432",
"L c #bd673f",
"M c #f7fac8",
"N c #a5583b",
"O c #c46b40",
"P c #547e46",
"Q c #a65c37",
"R c #aba76f",
"S c #943534",
"T c #df8d5c",
"U c #ddbd80",
"V c #5b4528",
"W c #bfb979",
"X c #ac5e3f",
"Y c #30b32d",
"Z c #eb9661",
"0 c #a95631",
"1 c #991f2f",
"2 c #f4f3a7",
"3 c #7b362f",
"4 c #ebdf42",
"5 c #b55945",
"6 c #758c38",
"7 c #d7af3d",
"8 c #8a4139",
"9 c #927533",
"! c #996c44",
"@ c #905f39",
"# c #45822d",
"$ c #944432",
"% c #27992d",
"^ c #b89f6b",
"& c #dab65f",
"* c #d07753",
"( c #b25e37",
") c #ac5441",
"_ c #be804e",
"+ c #819a3e",
"- c #eee664",
"= c #20662d",
"[ c #cdb87f",
"] c #f1ed85",
"{ c #ccb176",
"5ZZZZZZZZZZZZZZZZ5*ZZZZZ**55*555",
"*ZZZZZZZZZZZZZZZZ*ZZZZZZZZZ****5",
"*ZZZZZZZZZZZZZZZZZZZZZZZZZZZZZZ*",
"*ZZZZZZZZZZZZZZZZZZZZZZZZZZZZZZZ",
"5ZZZZZZZZZZZZZZ*ZZZZZZZZZZZZZZZZ",
"5*ZZZZZZZZZZZZZ*ZZZZZZZZZZZZZZZ*",
"*5ZZZZZZZZZZZZZ*ZZZZZZZZZZZZZZ5*",
"Z***ZZZZZZZZZZZ5ZZZZZZZZZZZZZ*ZZ",
"ZZ*****ZZZZZZ**5ZZZZZZZZZZZZZZZZ",
"ZZ*ZZZ5***ZZZZZa*ZZZZZZZZZZZ*ZZZ",
"ZZZZZZ**ZZZZZXx&)ZZZZZZZZZZZ*ZZZ",
"ZZZZZZZ*ZZZZutZe)auZZZZZZZZZ*ZZZ",
"ZZZZZZZ5*ZZtUT*5))UtZZZZZZZZ5*ZZ",
"Z*ZZZZZ55**Z_kkuj$s*ZZZZZZZZ55**",
"*5ZZZZZ**Zkc0#9--3%z6HZZZZZZ*ZZZ",
"Z*5ZZZ5*H+%=1A42]7AiqY@HZZZ*ZZZZ",
"ZZ*555*+YqDF472MM-4jVP%Yl*ZZZZZZ",
"ZZZ*5*+qPWhbj-MMMM-BynDPYHZZZZZZ",
"ZZZZ56qWnnhv8-MMM]7J[nnnPYHZZZZZ",
"ZZZZ6qWnnnn^p(4]]7f[nnnnn=zZZZZZ",
"ZZZZz=nnnn{IECggSrO!nnnnn=zZZZZZ",
"ZZZZo%DnnndLGKvvbwNQ!nnnPYHZZZZZ",
"ZZZZ5+qDWn[ybvhhmyKpGnnWq+ZZZZZZ",
"ZZZ*5*+%qWn[[hnnnmybvnWq+ZZZZZZZ",
"ZZZ5**ZkYPnnnnnnnn[[RDq+ZZZZZZZZ",
"ZZZ*ZZ*ZHY==DDDDDDP=q%+ZZZZZZZZZ",
"ZZ**ZZ5*ZHzz%%%%%%Yz6@ZZZZZZZZZZ",
"ZZ*ZZ**5*ZZZkkkkkkH*55ZZZZZZZZZZ",
"ZZ*ZZZZZ*55*ZZZZZ*ZZ*5ZZZZZZZZZZ",
"Z*ZZZZZZZZZ*55****ZZZ*ZZZZZZZZZZ",
"*5ZZZZZZZZZZZZZZZ55ZZ5*ZZZZZZZZZ",
"5*ZZZZZZZZZZZZZZZ555555*ZZZZZZZ*",
};
