/* XPM */
static char * image[] = {
/* width height num_colors chars_per_pixel */
"32 32 71 1",
"a c #804432",
"b c #a57544",
"c c #ae6138",
"d c #927533",
"e c #996c44",
"f c #23802d",
"g c #bd673f",
"h c #af523a",
"i c #713e2b",
"j c #3a5626",
"k c #f7fac8",
"l c #a5583b",
"m c #758c38",
"n c #905f39",
"o c #ab4337",
"p c #c46b40",
"q c #547e46",
"r c #b36941",
"s c #944432",
"t c #27992d",
"u c #b89f6b",
"v c #a48758",
"w c #a65c37",
"x c #726846",
"y c #aba76f",
"z c #907c57",
"A c #964f3a",
"B c #943534",
"C c #df8d5c",
"D c #d07753",
"E c #9b473a",
"F c #90754e",
"G c #ac5441",
"H c #39cc2d",
"I c #765137",
"J c #f5db93",
"K c #5b4528",
"L c #994437",
"M c #852f2d",
"N c #8f5c33",
"O c #a75c3b",
"P c #819a3e",
"Q c #bfb979",
"R c #e1ca89",
"S c #c27f39",
"T c #b98c4e",
"U c #30b32d",
"V c #89975f",
"W c #eb9661",
"X c #9c6a3e",
"Y c #eee664",
"Z c #965339",
"0 c #9e5344",
"1 c #20662d",
"2 c #ab5741",
"3 c #b4613d",
"4 c #4b4729",
"5 c #cdb87f",
"6 c #80482d",
"7 c #ab5a36",
"8 c #b9a774",
"9 c #dd905c",
"! c #ccb176",
"@ c #8f512f",
"# c #b55945",
"$ c #aa6944",
"% c #42732e",
"^ c #f1ed85",
"& c #d7af3d",
"* c #874933",
"( c #8a4139",
"#WWWWWWWWWWWWWWWW#DWWWWWDD##D###",
"DWWWWWWWWWWWWWWWWDWWWWWWWWWDDDD#",
"DWWWWWWWWWWWWWWWWWWWWWWWWWWWWWWD",
"DWWWWWWWWWWWWWWWWWWWWWWWWWWWWWWW",
"#WWWWWWWWWWWWWWDWWWWWWWWWWWWWWWW",
"#DWWWWWWWWWWWWWDWWWWWWWWWWWWWWWD",
"D#WWWWWWWWWWWWWDWWWWWWWWWWWWWW#D",
"WDDDWWWWWWWWWWW#WWWWWWWWWWWWWDWW",
"WWDDDDDWWWWWWDDGWWWWWWWWWWWWWWWW",
"WWDWWW#DDDWWWWCODWWWWWWWWWWWDWWW",
"WWWWWWDDWWWWrCWW#CrWWWWWWWWWDWWW",
"WWWWWWWDWWWWCWWWGDCWWWWWWWWWDWWW",
"WWWWWWW#DWWWWWDEs#DWWWWWWWWW#DWW",
"WDWWWWW##DDW9TX&$sZDWWWWWWWW##DD",
"D#WWWWWDDWTHUtSYd%tHm9WWWWWWDWWW",
"WD#WWW#D9Pt14NYkYNxjfUn9WWWDWWWW",
"WWD###DPUfV0&YkkkY&oKqtU2DWWWWWW",
"WWWD#DPfqQRi7^kkk^7*IJVqU9WWWWWW",
"WWWW#mfQJJRz(YkkkY0z5JJJqU9WWWWW",
"WWWWmfQJJJJucSY^YSF5JJJJJ1HWWWWW",
"WWWWH1JJJJ!@3LMMBhpeJJJJJ1HWWWWW",
"WWWWbtVJJJvg6azziAlweJJJqU9WWWWW",
"WWWW#PfVQJ5IizRR8Iac6JJQfPWWWWWW",
"WWWD#DPtfQJ55RJJJ8IizJQfPWWWWWWW",
"WWW#DDWTUqJJJJJJJJ55yVfPWWWWWWWW",
"WWWDWWDW9U11VVVVVVq1ftPWWWWWWWWW",
"WWDDWW#DW9HHttttttUHmnWWWWWWWWWW",
"WWDWWDD#DWWWTTTTTT9D##WWWWWWWWWW",
"WWDWWWWWD##DWWWWWDWWD#WWWWWWWWWW",
"WDWWWWWWWWWD##DDDDWWWDWWWWWWWWWW",
"D#WWWWWWWWWWWWWWW##WW#DWWWWWWWWW",
"#DWWWWWWWWWWWWWWW######DWWWWWWWD",
};
