/* XPM */
static char * image[] = {
/* width height num_colors chars_per_pixel */
"32 32 74 1",
"a c #804432",
"b c #a57544",
"c c #ae6138",
"d c #927533",
"e c #996c44",
"f c #23802d",
"g c #bd673f",
"h c #af523a",
"i c #c5704f",
"j c #713e2b",
"k c #f7fac8",
"l c #a14c34",
"m c #a5583b",
"n c #c3744f",
"o c #54a62d",
"p c #758c38",
"q c #905f39",
"r c #c46b40",
"s c #547e46",
"t c #b36941",
"u c #944432",
"v c #27992d",
"w c #b89f6b",
"x c #9e533b",
"y c #762926",
"z c #a48758",
"A c #a65c37",
"B c #aba76f",
"C c #907c57",
"D c #964f3a",
"E c #943534",
"F c #794635",
"G c #d07753",
"H c #9b473a",
"I c #5c432e",
"J c #ac5441",
"K c #765137",
"L c #835130",
"M c #39cc2d",
"N c #5b4528",
"O c #852f2d",
"P c #8f5c33",
"Q c #819a3e",
"R c #bfb979",
"S c #e1ca89",
"T c #906634",
"U c #4e9c2d",
"V c #c27f39",
"W c #9c542f",
"X c #ac5e3f",
"Y c #b98c4e",
"Z c #30b32d",
"0 c #605c2e",
"1 c #eb9661",
"2 c #9c6a3e",
"3 c #eee664",
"4 c #89975f",
"5 c #9e5344",
"6 c #ab5741",
"7 c #20662d",
"8 c #b4613d",
"9 c #f4f3a7",
"! c #cdb87f",
"@ c #ebdf42",
"# c #80482d",
"$ c #b9a774",
"% c #dd905c",
"^ c #ccb176",
"& c #8f512f",
"* c #b55945",
"( c #9b4e35",
") c #f5db93",
"_ c #d7af3d",
"+ c #a2785b",
"*1111111111111111*G11111GG**G***",
"G1111111111111111G111111111GGGG*",
"G111111111111111111111111111111G",
"G1111111111111111111111111111111",
"*11111111111111G1111111111111111",
"*G1111111111111G111111111111111G",
"G*1111111111111G11111111111111*G",
"1GGG11111111111*1111111111111G11",
"11GGGGG111111GG*1111111111111111",
"11G111*GGG11111iG11111111111G111",
"111111GG1111111XJ11111111111G111",
"1111111G1111111tJG1111111111G111",
"1111111*G11111i_H*G111111111*G11",
"1G11111**GG1nX23Vu(i11111111**GG",
"G*11111GG1YUTLV9_0dop%111111G111",
"1G*111*G%QvI_P3k9__VfZq%111G1111",
"11G***GQZf4533kkk99VNsvZ6G111111",
"111G*GQfsRSy3kkkkk3WK)4sZ%111111",
"1111*pfR))SCV39kk3_+!)))sZ%11111",
"1111pfR))))wlV@3@_F!)))))7M11111",
"1111M7))))^&8xOOEhre)))))7M11111",
"1111bv4)))zg#aCCjDmAe)))sZ%11111",
"1111*Qf4R)!KjCSS$Kac#))RfQ111111",
"111G*GQvfR)!!S)))$KjC)RfQ1111111",
"111*GG1YZs))))))))!!B4fQ11111111",
"111G11G1%Z77444444s7fvQ111111111",
"11GG11*G1%MMvvvvvvZMpq1111111111",
"11G11GG*G111YYYYYY%G**1111111111",
"11G11111G**G11111G11G*1111111111",
"1G111111111G**GGGG111G1111111111",
"G*111111111111111**11*G111111111",
"*G111111111111111******G1111111G",
};
