/* XPM */
static char * image[] = {
/* width height num_colors chars_per_pixel */
"32 32 74 1",
"a c #804432",
"b c #a57544",
"c c #4c512a",
"d c #ae6138",
"e c #927533",
"f c #996c44",
"g c #23802d",
"h c #bd673f",
"i c #af523a",
"j c #c5704f",
"k c #713e2b",
"l c #f7fac8",
"m c #a5583b",
"n c #905f39",
"o c #c46b40",
"p c #547e46",
"q c #b36941",
"r c #27992d",
"s c #b89f6b",
"t c #a48758",
"u c #a65c37",
"v c #916742",
"w c #aba76f",
"x c #907c57",
"y c #964f3a",
"z c #943534",
"A c #df8d5c",
"B c #794635",
"C c #d07753",
"D c #b25e37",
"E c #ac5441",
"F c #39cc2d",
"G c #835130",
"H c #765137",
"I c #5b4528",
"J c #f5db93",
"K c #852f2d",
"L c #be804e",
"M c #8f5c33",
"N c #819a3e",
"O c #bfb979",
"P c #e1ca89",
"Q c #906634",
"R c #4e9c2d",
"S c #c27f39",
"T c #9c542f",
"U c #ac5e3f",
"V c #b98c4e",
"W c #30b32d",
"X c #605c2e",
"Y c #eb9661",
"Z c #89975f",
"0 c #eee664",
"1 c #965339",
"2 c #ab5741",
"3 c #20662d",
"4 c #b4613d",
"5 c #9e533b",
"6 c #f4f3a7",
"7 c #cdb87f",
"8 c #ebdf42",
"9 c #493d29",
"! c #80482d",
"@ c #b9a774",
"# c #dd905c",
"$ c #ccb176",
"% c #8f512f",
"^ c #b55945",
"& c #4b8c2e",
"* c #758c38",
"( c #ab5a36",
") c #f1ed85",
"_ c #d7af3d",
"+ c #8a4139",
"^YYYYYYYYYYYYYYYY^CYYYYYCC^^C^^^",
"CYYYYYYYYYYYYYYYYCYYYYYYYYYCCCC^",
"CYYYYYYYYYYYYYYYYYYYYYYYYYYYYYYC",
"CYYYYYYYYYYYYYYYYYYYYYYYYYYYYYYY",
"^YYYYYYYYYYYYYYCYYYYYYYYYYYYYYYY",
"^CYYYYYYYYYYYYYCYYYYYYYYYYYYYYYC",
"C^YYYYYYYYYYYYYCYYYYYYYYYYYYYY^C",
"YCCCYYYYYYYYYYY^YYYYYYYYYYYYYCYY",
"YYCCCCCYYYYYYCC^YYYYYYYYYYYYYYYY",
"YYCYYY^CCCYYYYYCCYYYYYYYYYYYCYYY",
"YYYYYYCCYYYYYYYY^YAYYYYYYYYYCYYY",
"YYYYYYYCYYYYYYUA^jUYYYYYYYYYCYYY",
"YYYYYYY^CYYYYYj^E^CYYYYYYYYY^CYY",
"YCYYYYY^^CCYULVqSn1CYYYYYYYY^^CC",
"C^YYYYYCCYVF&re00XGR*#YYYYYYCYYY",
"YC^YYY^C#Nr3QM86)_9cgWn#YYYCYYYY",
"YYC^^^CNWgZvS)6ll0_SIprW2CYYYYYY",
"YYYC^CNgpOPk()llll0THJZpW#YYYYYY",
"YYYY^*gOJJPx+0lll)Sx7JJJpW#YYYYY",
"YYYY*gOJJJJsdD8))_B7JJJJJ3FYYYYY",
"YYYYF3JJJJ$%45KKziofJJJJJ3FYYYYY",
"YYYYbrZJJJth!axxkymufJJJpW#YYYYY",
"YYYY^NgZOJ7HkxPP@Had!JJOgNYYYYYY",
"YYYC^CNrgOJ77PJJJ@HkxJOgNYYYYYYY",
"YYY^CCYVWpJJJJJJJJ77wZgNYYYYYYYY",
"YYYCYYCY#W33ZZZZZZp3grNYYYYYYYYY",
"YYCCYY^CY#FFrrrrrrWF*nYYYYYYYYYY",
"YYCYYCC^CYYYVVVVVV#C^^YYYYYYYYYY",
"YYCYYYYYC^^CYYYYYCYYC^YYYYYYYYYY",
"YCYYYYYYYYYC^^CCCCYYYCYYYYYYYYYY",
"C^YYYYYYYYYYYYYYY^^YY^CYYYYYYYYY",
"^CYYYYYYYYYYYYYYY^^^^^^CYYYYYYYC",
};
