/* XPM */
static char * image[] = {
/* width height num_colors chars_per_pixel */
"32 32 74 1",
"a c #804432",
"b c #a57544",
"c c #ae6138",
"d c #927533",
"e c #996c44",
"f c #23802d",
"g c #bd673f",
"h c #af523a",
"i c #c5704f",
"j c #713e2b",
"k c #f7fac8",
"l c #a5583b",
"m c #b16d43",
"n c #758c38",
"o c #905f39",
"p c #45822d",
"q c #733329",
"r c #c46b40",
"s c #547e46",
"t c #b36941",
"u c #27992d",
"v c #b89f6b",
"w c #9e533b",
"x c #a48758",
"y c #a65c37",
"z c #aba76f",
"A c #907c57",
"B c #9f5a4d",
"C c #964f3a",
"D c #943534",
"E c #df8d5c",
"F c #d07753",
"G c #b25e37",
"H c #5c432e",
"I c #ac5441",
"J c #39cc2d",
"K c #765137",
"L c #f5db93",
"M c #5b4528",
"N c #852f2d",
"O c #be804e",
"P c #8f5c33",
"Q c #819a3e",
"R c #bfb979",
"S c #e1ca89",
"T c #a05139",
"U c #c27f39",
"V c #9c542f",
"W c #ac5e3f",
"X c #b98c4e",
"Y c #30b32d",
"Z c #605c2e",
"0 c #eb9661",
"1 c #9c6a3e",
"2 c #eee664",
"3 c #42732e",
"4 c #89975f",
"5 c #9e5344",
"6 c #ab5741",
"7 c #20662d",
"8 c #f4f3a7",
"9 c #cdb87f",
"! c #b4613d",
"@ c #ebdf42",
"# c #80482d",
"$ c #b9a774",
"% c #dd905c",
"^ c #ccb176",
"& c #8f512f",
"* c #b55945",
"( c #9b4e35",
") c #997f33",
"_ c #f1ed85",
"+ c #d7af3d",
"*0000000000000000*F00000FF**F***",
"F0000000000000000F000000000FFFF*",
"F000000000000000000000000000000F",
"F0000000000000000000000000000000",
"*00000000000000F0000000000000000",
"*F0000000000000F000000000000000F",
"F*0000000000000F00000000000000*F",
"0FFF00000000000*0000000000000F00",
"00FFFFF000000FF*E000000000000000",
"00F000*FFF00000iT00000000000F000",
"000000FF0000000E*0E000000000F000",
"0000000F0000EW0tIiW000000000F000",
"0000000*F0000EFU(*F000000000*F00",
"0F00000**FF0tO12Uooi00000000**FF",
"F*00000FF0XJ)pd_2Z3dn%000000F000",
"0F*000*F%QuH@U2k8+PUfYo%000F0000",
"00F***FQYf45@_kkk8_UMsuY6F000000",
"000F*FQfsRSq+_kkkk2UKL4sY%000000",
"0000*nfRLLSAm@8kk2@B9LLLsY%00000",
"0000nfRLLLLvcG@2@+V9LLLLL7J00000",
"0000J7LLLL^&!wNNDhreLLLLL7J00000",
"0000bu4LLLxg#aAAjClyeLLLsY%00000",
"0000*Qf4RL9KjASS$Kac#LLRfQ000000",
"000F*FQufRL99SLLL$KjALRfQ0000000",
"000*FF0XYsLLLLLLLL99z4fQ00000000",
"000F00F0%Y77444444s7fuQ000000000",
"00FF00*F0%JJuuuuuuYJno0000000000",
"00F00FF*F000XXXXXX%F**0000000000",
"00F00000F**F00000F00F*0000000000",
"0F000000000F**FFFF000F0000000000",
"F*000000000000000**00*F000000000",
"*F000000000000000******F0000000F",
};
