/* XPM */
static char * image[] = {
/* width height num_colors chars_per_pixel */
"32 32 77 1",
"a c #c5704f",
"b c #713e2b",
"c c #a48758",
"d c #9c8655",
"e c #794635",
"f c #852f2d",
"g c #e1ca89",
"h c #c27f39",
"i c #b98c4e",
"j c #ab5741",
"k c #5e4d2f",
"l c #b9a774",
"m c #f5db93",
"n c #3f592e",
"o c #a57544",
"p c #ae6138",
"q c #23802d",
"r c #af523a",
"s c #b36941",
"t c #817138",
"u c #907c57",
"v c #964f3a",
"w c #9b473a",
"x c #765137",
"y c #39cc2d",
"z c #8f5c33",
"A c #9e533b",
"B c #605c2e",
"C c #89975f",
"D c #b4613d",
"E c #9e5344",
"F c #80482d",
"G c #dd905c",
"H c #8f512f",
"I c #42732e",
"J c #a2785b",
"K c #804432",
"L c #9d5347",
"M c #bd673f",
"N c #f7fac8",
"O c #a5583b",
"P c #68312a",
"Q c #c46b40",
"R c #547e46",
"S c #a65c37",
"T c #aba76f",
"U c #943534",
"V c #df8d5c",
"W c #c5865a",
"X c #bfb979",
"Y c #30b32d",
"Z c #eb9661",
"0 c #f4f3a7",
"1 c #ebdf42",
"2 c #493d29",
"3 c #b55945",
"4 c #733329",
"5 c #758c38",
"6 c #9b4e35",
"7 c #d7af3d",
"8 c #8a4139",
"9 c #927533",
"! c #996c44",
"@ c #905f39",
"# c #27992d",
"$ c #b89f6b",
"% c #dab65f",
"^ c #d07753",
"& c #b25e37",
"* c #ac5441",
"( c #a75c3b",
") c #819a3e",
"_ c #eee664",
"+ c #20662d",
"- c #cdb87f",
"= c #f1ed85",
"[ c #ccb176",
"3ZZZZZZZZZZZZZZZZ3^ZZZZZ^^33^333",
"^ZZZZZZZZZZZZZZZZ^ZZZZZZZZZ^^^^3",
"^ZZZZZZZZZZZZZZZZZZZZZZZZZZZZZZ^",
"^ZZZZZZZZZZZZZZZZZZZZZZZZZZZZZZZ",
"3ZZZZZZZZZZZZZZ^ZZZZZZZZZZZZZZZZ",
"3^ZZZZZZZZZZZZZ^ZZZZZZZZZZZZZZZ^",
"^3ZZZZZZZZZZZZZ^ZZZZZZZZZZZZZZ3^",
"Z^^^ZZZZZZZZZZZ3ZZZZZZZZZZZZZ^ZZ",
"ZZ^^^^^ZZZZZZ^^3ZZZZZZZZZZZZZZZZ",
"ZZ^ZZZ3^^^ZZZZZ^^ZZZZZZZZZZZ^ZZZ",
"ZZZZZZ^^ZZZZZZZV6ZZZZZZZZZZZ^ZZZ",
"ZZZZZZZ^ZZZZZZV%L^ZZZZZZZZZZ^ZZZ",
"ZZZZZZZ3^ZZZVs^w*3aZZZZZZZZZ3^ZZ",
"Z^ZZZZZ33^^V%dish@W(ZZZZZZZZ33^^",
"^3ZZZZZ^^ZiyB#9__BIWtGZZZZZZ^ZZZ",
"Z^3ZZZ3^G)#nhz10=72kqY@GZZZ^ZZZZ",
"ZZ^333^)YqCE1_0NN_71PR#Yj^ZZZZZZ",
"ZZZ^3^)qRXg470NNNN07emCRYGZZZZZZ",
"ZZZZ35qXmmgu8_NNN07J-mmmRYGZZZZZ",
"ZZZZ5qXmmmm$p&1==7e-mmmmm+yZZZZZ",
"ZZZZy+mmmm[HDAffUrQ!mmmmm+yZZZZZ",
"ZZZZo#CmmmcMFKuubvOS!mmmRYGZZZZZ",
"ZZZZ3)qCXm-xbugglxKpFmmXq)ZZZZZZ",
"ZZZ^3^)#qXm--gmmmlxbumXq)ZZZZZZZ",
"ZZZ3^^ZiYRmmmmmmmm--TCq)ZZZZZZZZ",
"ZZZ^ZZ^ZGY++CCCCCCR+q#)ZZZZZZZZZ",
"ZZ^^ZZ3^ZGyy######Yy5@ZZZZZZZZZZ",
"ZZ^ZZ^^3^ZZZiiiiiiG^33ZZZZZZZZZZ",
"ZZ^ZZZZZ^33^ZZZZZ^ZZ^3ZZZZZZZZZZ",
"Z^ZZZZZZZZZ^33^^^^ZZZ^ZZZZZZZZZZ",
"^3ZZZZZZZZZZZZZZZ33ZZ3^ZZZZZZZZZ",
"3^ZZZZZZZZZZZZZZZ333333^ZZZZZZZ^",
};
