/* XPM */
static char * image[] = {
/* width height num_colors chars_per_pixel */
"32 32 6 1",
"a c #7f8582",
"b c #a6b04f",
"c c #585c5b",
"d c #8f9845",
"e c #227a2e",
"f c #a6ada9",
"bbbbbbbbbbbbbbbbbbbbbbbbbbbbbbbb",
"bbbbbbbbbbbbbbbbbbbbbbbbbbbbbbbb",
"bbbbbbbbbbbbbbbbbbbbbbbbbbbbbbbb",
"bbbbbbbbbbbbbbbbbbbbbbbbbbbbbbbb",
"bbbbbbbbbbbbbbbbbbbbbbbbbbbbbbbb",
"bbbbbbbbbbbbbbbbbbbbbbbbbbbbbbbb",
"bbbbbbbbbbbbbbbbbbbbbbbbbbbbbbbb",
"bbbbbbbbbbbbbbbbbbbbbbbbbbbbbbbb",
"bbbbbbbbbbbbbbbbbbbbbbbbbbbbbbbb",
"bbbbbbbbbbbbbbbbbbbbbbbbbbbbbbbb",
"bbbbbbbbbbbbbbbbbbbbbbbbbbbbbbbb",
"bbbbbbbbbbbbbbcccbbbbbbbbbbbbbbb",
"bbbbbbbbbbbbccfffccbbbbbbbbbbbbb",
"bbbbbbbbbbbcffffffacccbbbbbbbbbb",
"bbbbbbbbbbcffffffaaaffcbbbbbbbbb",
"bbbbbbbbbcaffffaaaffffacbbbbbbbb",
"bbbbbbbbcaefffaaaffffaecbbbbbbbb",
"bbbbbbbbeeeffaaaaaffaaeebbbbbbbb",
"bbbbbbbbdeeeaeaaaaaaeaedbbbbbbbb",
"bbbbbbbbddeeceeaaaaeeeddbbbbbbbb",
"bbbbbbbbbddddeeecccddddbbbbbbbbb",
"bbbbbbbbbbbbddddddddbbbbbbbbbbbb",
"bbbbbbbbbbbbbbbbbbbbbbbbbbbbbbbb",
"bbbbbbbbbbbbbbbbbbbbbbbbbbbbbbbb",
"bbbbbbbbbbbbbbbbbbbbbbbbbbbbbbbb",
"bbbbbbbbbbbbbbbbbbbbbbbbbbbbbbbb",
"bbbbbbbbbbbbbbbbbbbbbbbbbbbbbbbb",
"bbbbbbbbbbbbbbbbbbbbbbbbbbbbbbbb",
"bbbbbbbbbbbbbbbbbbbbbbbbbbbbbbbb",
"bbbbbbbbbbbbbbbbbbbbbbbbbbbbbbbb",
"bbbbbbbbbbbbbbbbbbbbbbbbbbbbbbbb",
"bbbbbbbbbbbbbbbbbbbbbbbbbbbbbbbb",
};
