/* XPM */
static char * image[] = {
/* width height num_colors chars_per_pixel */
"32 32 2 1",
"a c #eb9661",
"b c #a6b04f",
"bbbbbbbbbbbbbbbbbbbbbbbbbbbbbbbb",
"bbbbbbbbbbbbbbbbbbbbbbbbbbbbbbbb",
"bbbbbbbbbbbbbbbbbbbbbbbbbbbbbbbb",
"bbbbbbbbbbbbbbbbbbbbbbbbbbbbbbbb",
"bbbbbbbbbbbbbbbbbbbbbbbbbbbbbbbb",
"bbbbbbbbbbbbbbbbbbbbbbbbbbbbbbbb",
"bbbbbbbbbbbbbbbbbbbbbbbbbbbbbbbb",
"bbbbbbbbbbbbbbbbbbbbbbbbbbbbbbbb",
"bbbbbbbbbbbbbbbbbbbbbbbbbbbbbbbb",
"bbbbbbbbbaabbbbbbbbbbbbbbbbbbbbb",
"bbbbbbbbaaaabbbbbbbbbbbbbbbbbbbb",
"bbbbbbbbaaaabbbbbbbbbbbbbbbbbbbb",
"bbaaaaabbaabbbbbbbbbbbbbbbbbbbbb",
"baaaaaaabbbbbaabbbbbbbbbbbbbbbbb",
"aaaaaaaaabbbaaabbbbbbbbbbbbbbbbb",
"aaaaaaaaaabbaaaabbbbbbbbbbbbbbbb",
"aaaaaaaaaaabaaaabbbbbbbbbbbbbbbb",
"aaaaaaaaaaabbaaabbbbbbbbbbbbbbbb",
"aaaaaaaaaaabbaabbbbbbbbbbbbbbbbb",
"baaaaaaaaaabbbbbbbbbbbbbbbbbbbbb",
"bbaaaaaaaaabbbbbbbbbbbbbbbbbbbbb",
"bbbaaaaaaabbbbbbbbbbbbbbbbbbbbbb",
"bbbbaaaaabbbbbbbbbbbbbbbbbbbbbbb",
"bbbbbbbbbbbbbbbbbbbbbbbbbbbbbbbb",
"bbbbbbbbbbbbbbbbbbbbbbbbbbbbbbbb",
"bbbbbbbbbbbbbbbbbbbbbbbbbbbbbbbb",
"bbbbbbbbbbbbbbbbbbbbbbbbbbbbbbbb",
"bbbbbbbbbbbbbbbbbbbbbbbbbbbbbbbb",
"bbbbbbbbbbbbbbbbbbbbbbbbbbbbbbbb",
"bbbbbbbbbbbbbbbbbbbbbbbbbbbbbbbb",
"bbbbbbbbbbbbbbbbbbbbbbbbbbbbbbbb",
"bbbbbbbbbbbbbbbbbbbbbbbbbbbbbbbb",
};
