/* XPM */
static char * image[] = {
/* width height num_colors chars_per_pixel */
"32 32 2 1",
"a c #eb9661",
"b c #a6b04f",
"bbbbbbbbbbbbbbbbbbaaabbbbbbbbbbb",
"bbbbbbbbbbbbbbbbbaaaabbbbbbbbbbb",
"bbbbbbbbbbbbbbbbbaaaaabbbbbbbbbb",
"bbbbbbbbbbbbbbbbbaaaaabbbbbbbbbb",
"bbbbbbbbbbbbbbbbbbaaaabbbbbbbbbb",
"bbbbbbbbbbbaaaaabbaaabbbbbbbbbbb",
"bbbbbbbbbbaaaaaaabbbbbbbbbbbbbbb",
"bbbbbbbbbaaaaaaaaabbaaabbbbbbbbb",
"bbbbbbbbaaaaaaaaaabbaaabbbbbbbbb",
"bbbbbbbbaaaaaaaaaabbaaabbbbbbbbb",
"bbbbbbbbaaaaaaaaaabbbbbbbbbbbbbb",
"bbbbbbbbaaaaaaaaabbbbbbbbbbbbbbb",
"bbbbbbbbbaaaaaaabbbbbbbbbbbbbbbb",
"bbbbbbbbbbaaaaabbbbbbbbbbbbbbbbb",
"bbbbbbbbbbbbbbbbbbbbbbbbbbbbbbbb",
"bbbbbbbbbbbbbbbbbbbbbbbbbbbbbbbb",
"bbbbbbbbbbbbbbbbbbbbbbbbbbbbbbbb",
"bbbbbbbbbbbbbbbbbbbbbbbbbbbbbbbb",
"bbbbbbbbbbbbbbbbbbbbbbbbbbbbbbbb",
"bbbbbbbbbbbbbbbbbbbbbbbbbbbbbbbb",
"bbbbbbbbbbbbbbbbbbbbbbbbbbbbbbbb",
"bbbbbbbbbbbbbbbbbbbbbbbbbbbbbbbb",
"bbbbbbbbbbbbbbbbbbbbbbbbbbbbbbbb",
"bbbbbbbbbbbbbbbbbbbbbbbbbbbbbbbb",
"bbbbbbbbbbbbbbbbbbbbbbbbbbbbbbbb",
"bbbbbbbbbbbbbbbbbbbbbbbbbbbbbbbb",
"bbbbbbbbbbbbbbbbbbbbbbbbbbbbbbbb",
"bbbbbbbbbbbbbbbbbbbbbbbbbbbbbbbb",
"bbbbbbbbbbbbbbbbbbbbbbbbbbbbbbbb",
"bbbbbbbbbbbbbbbbbbbbbbbbbbbbbbbb",
"bbbbbbbbbbbbbbbbbbbbbbbbbbbbbbbb",
"bbbbbbbbbbbbbbbbbbbbbbbbbbbbbbbb",
};
