/* XPM */
static char * image[] = {
/* width height num_colors chars_per_pixel */
"32 32 9 1",
"a c #d07753",
"b c #a6b04f",
"c c #0c0f2a",
"d c #96a9c1",
"e c #bbc3d0",
"f c #6c81a1",
"g c #fdd179",
"h c #b55945",
"i c #734c44",
"bbbbbbbbbbbbbbbbccccbbbbbbbbbbbb",
"bbbbbbbbbbbbbbbcaaacbbbbbbbbbbbb",
"bbbbbbbbbbbbbbbcaaacbbbbbbbbbbbb",
"bbbbbbbbbbbbbbbchhhcbbbbbbbbbbbb",
"bbbbbbbbbbbbbbbchhhcbbbbbccccccc",
"bbbbbbbbbbbbbbbchhhcccccchhddhhc",
"bbbbbbbbbbbbcccchhhhhhhhhhhddhhc",
"bbbbbbbbbbbbchhhhhhhhhhhhccffccb",
"bbbbbbbbbbbbchhhhhhcciiicbcffcbb",
"bbbbbbbbbbbbbccchhhchhhcbbceecbb",
"bbbbbbbbbbbbbbbchhhihhcbbceeeecb",
"bbbbbbbbbbbbbbbchhhihcbbbccggccb",
"bbbbbbbbbbbbbbbchhhicbbbbbcggcbb",
"bbbbbbbbbbbbbbbchhhcbbbbbcddddcb",
"bbbbbbbbbbbbbbbchhhcbbbbbccccccb",
"bbbbbbbbbbbbbbbchhhcbbbbbbbbbbbb",
"bbbbbbbbbbbbbbbchhhcbbbbbbbbbbbb",
"bbbbbbbbbbbbbbbchhhcbbbbbbbbbbbb",
"bbbbbbbbbbbbbbbchhhcbbbbbbbbbbbb",
"bbbbbbbbbbbbbbbchhhcbbbbbbbbbbbb",
"bbbbbbbbbbbbbbbchhhcbbbbbbbbbbbb",
"bbbbbbbbbbbbbbbchhhcbbbbbbbbbbbb",
"bbbbbbbbbbbbbbbchhhcbbbbbbbbbbbb",
"bbbbbbbbbbbbbbbchhhcbbbbbbbbbbbb",
"bbbbbbbbbbbbbbbchhhcbbbbbbbbbbbb",
"bbbbbbbbbbbbbbbchhhcbbbbbbbbbbbb",
"bbbbbbbbbbbbbbbchhhcbbbbbbbbbbbb",
"bbbbbbbbbbbbbbbchhhcbbbbbbbbbbbb",
"bbbbbbbbbbbbbbbchhhcbbbbbbbbbbbb",
"bbbbbbbbbbbbbbbchhhcbbbbbbbbbbbb",
"bbbbbbbbbbbbbbbchhhcbbbbbbbbbbbb",
"bbbbbbbbbbbbbbbchhhcbbbbbbbbbbbb",
};
