/* XPM */
static char * image[] = {
/* width height num_colors chars_per_pixel */
"32 32 8 1",
"a c #d07753",
"b c #a6b04f",
"c c #0c0f2a",
"d c #96a9c1",
"e c #bbc3d0",
"f c #fdd179",
"g c #b55945",
"h c #734c44",
"bbbbbbbbbbbbbbbbbbbbbbbbbbbbbbbb",
"bbbbbbbbbbbbbbbbbbbbbbbbbbbbbbbb",
"bbbbbbbbbbbbbbbbbbbbbbbbbbbbbbbb",
"bbbbbbbbbbbbbbbbbbbbbbbbbbbbbbbb",
"bbbbbbbbbbbbbbbbbbbbbbbbbbbbbbbb",
"bbbbbbbbbbbbbbbbbbbbbbbbbbbbbbbb",
"bbbbbbbbbbbbbbbbbbbbbbbbbbbbbbbb",
"bbbbbbbbbbbbbbbbbbbbbbbbbbbbbbbb",
"bbbbbbbbbbbbbbbbbbbbbbbbbbbbbbbb",
"bbbbbbbbbbbbbbbbbbbbbbbbbbbbbbbb",
"bbbbbbbbbbbbbbbbbbbbbbbbbbbbbbbb",
"bbbbbbbbbbbbbbbbbbbbbbbbbbbbbbbb",
"bbbbbbbbbbbbbbbbbbbbbbbbbbbbbbbb",
"bbbbbbbbbbbbbbbbbbbbbbbbbbbbbbbb",
"bbbbbbbbbbbbbbbbbbbbbbbbbbbbbbbb",
"bbbbbbbbbbbbbbbbbbbbbbbbbbbbbbbb",
"bbbbbbbbbbbbbbbbbbbbbbbbbbbbbbbb",
"bbbbbbbbbbbbbbbbbbbbbbbbbbbbbbbb",
"bbbbbbbbbbbbbbbcccbbbbbbbbbbbbbb",
"bbbbbbbbbbbbbbcaacbbbbbbbbbbbbbb",
"bbbbbbbbbbbbbcaaacbbbbbbbbbbbbbb",
"bbbbbbbbbbbbbcaagcccbbbbbbbbbbbb",
"bbbbbbbbbbbbbcgggggcbbbbbbbbbbbb",
"bbbbbbbbbbbcccgggggcbbbbbbbbbbbb",
"bbbbbbbbbccggcggggcbbbbbbbbbbbbb",
"bbbbbbcccggggcgggcbbbbbbbbbbbbbb",
"bbbbbbcgggghhcgggcbbbccbbbbbbbbb",
"bbbbbbcgghhbbcgggcbbceecbbbbbbbb",
"bbbbbbbhhbbbbcgggcbceeeecbbbbbbb",
"bbbbbbbbbbbbbbgggbbccffccbbbbbbb",
"bbbbbbbbbbbbbbbbbbbbcffcbbbbbbbb",
"bbbbbbbbbbbbbbbbbbbcddddcbbbbbbb",
};
