/* XPM */
static char * image[] = {
/* width height num_colors chars_per_pixel */
"32 32 4 1",
"a c #a6b04f",
"b c #0c0f2a",
"c c #b55945",
"d c #734c44",
"aaaaaaaaaaaaaaabbaaaaaaaaaaaaaaa",
"aaaaaaaaaaaaabbccbaaaaaaaaaaaaaa",
"abbbaaaaaaabbccccbaaaaaaaaaaaaaa",
"bcccbbaaabbccccddbaaaaaaaaaaaaaa",
"bcccccbbbccccccddaaaaaaaaaaaaaaa",
"bddccccccccddccaaaaaaaaaaaaaaaaa",
"addddcccccdddccaaaaaaaaaaaaaaaaa",
"aabbdcccccccbccaaaaaaaaaaaaaaaaa",
"aabccccddccccccbaaaaaaaaaaaaaaaa",
"aabccddddddcccccbbaaaaaaaaaaaaaa",
"aabddddaaddddcccccbbaaaaaaaaaaaa",
"aaaddaaaaaaddddcccccbbaaaaaaaaaa",
"aaaaaaaaaaaaaddddcccccbbaaaaaaaa",
"aaaaaaaaaaaaaaaddddcccccbbaaaaaa",
"aaaaaaaaaaaaaaaaaddddcccccbaaaaa",
"aaaaaaaaaaaaaaaaaaaddddcccbaaaaa",
"aaaaaaaaaaaaaaaaaaaaaddccaaaaaaa",
"aaaaaaaaaaaaaaaaaaaaaaaaaaaaaaaa",
"aaaaaaaaaaaaaaaaaaaaaaaaaaaaaaaa",
"aaaaaaaaaaaaaaaaaaaaaaaaaaaaaaaa",
"aaaaaaaaaaaaaaaaaaaaaaaaaaaaaaaa",
"aaaaaaaaaaaaaaaaaaaaaaaaaaaaaaaa",
"aaaaaaaaaaaaaaaaaaaaaaaaaaaaaaaa",
"aaaaaaaaaaaaaaaaaaaaaaaaaaaaaaaa",
"aaaaaaaaaaaaaaaaaaaaaaaaaaaaaaaa",
"aaaaaaaaaaaaaaaaaaaaaaaaaaaaaaaa",
"aaaaaaaaaaaaaaaaaaaaaaaaaaaaaaaa",
"aaaaaaaaaaaaaaaaaaaaaaaaaaaaaaaa",
"aaaaaaaaaaaaaaaaaaaaaaaaaaaaaaaa",
"aaaaaaaaaaaaaaaaaaaaaaaaaaaaaaaa",
"aaaaaaaaaaaaaaaaaaaaaaaaaaaaaaaa",
"aaaaaaaaaaaaaaaaaaaaaaaaaaaaaaaa",
};
