/* XPM */
static char * image[] = {
/* width height num_colors chars_per_pixel */
"32 32 5 1",
"a c #d07753",
"b c #a6b04f",
"c c #0c0f2a",
"d c #b55945",
"e c #734c44",
"bbbbbbbbbbbbbbbbbbbbbbbbbbbbbbbb",
"bbbbbbbbbbbbbbbbbbbbbbbbbbbbbbbb",
"bbbbbbbbbbbbbbbbbbbbbbbbbbbbbbbb",
"bbbbbbbbbbbbbbbbbbbbbbbbbbbbbbbb",
"bbbbbbbbbbbbbbbbbbbbbbbbbbbbbbbb",
"bbbbbbbbbbbbbbbbbbbbbbbbbbbbbbbb",
"bbbbbbbbbbbbbbbbbbbbbbbbbbbbbbbb",
"bbbbbbbbbbbbbbbbbbbbbbbbbbbbbbbb",
"bbbbbbbcccccbbbbbbbbbbbbbbbbbbbb",
"cccccccaadaacbbbbbbbbbbbbbbbbbbb",
"ceaadaadaadaacbbbbbbbbbbbbbbbbbb",
"ceeaadaadaadaacbbbbbbbbbbbbbbbbb",
"ceeeaadaadaadaacbbbbbbbbbbbbbbbb",
"ceeeeaadaadddeddcbbbbbbbbbbbbbbb",
"ceeeeddeddeddeddcbbbbbbbbbbbbbbb",
"ceeeeddeddeddeddcbbbbbbbbbbbbbbb",
"ceeeeddeddeddeddcbbbbbbbbbbbbbbb",
"ceeeeddedddddeddcbbbbbbbbbbbbbbb",
"ceeeeddeddeddeddcbbbbbbbbbbbbbbb",
"beeeedddddeddeddcbbbbbbbbbbbbbbb",
"bbeeedddddeddeddcbbbbbbbbbbbbbbb",
"bbbeeddeddeddeddcbbbbbbbbbbbbbbb",
"bbbbeddeddeddeddcbbbbbbbbbbbbbbb",
"bbbbbddeddebbbbbbbbbbbbbbbbbbbbb",
"bbbbbbbbbbbbbbbbbbbbbbbbbbbbbbbb",
"bbbbbbbbbbbbbbbbbbbbbbbbbbbbbbbb",
"bbbbbbbbbbbbbbbbbbbbbbbbbbbbbbbb",
"bbbbbbbbbbbbbbbbbbbbbbbbbbbbbbbb",
"bbbbbbbbbbbbbbbbbbbbbbbbbbbbbbbb",
"bbbbbbbbbbbbbbbbbbbbbbbbbbbbbbbb",
"bbbbbbbbbbbbbbbbbbbbbbbbbbbbbbbb",
"bbbbbbbbbbbbbbbbbbbbbbbbbbbbbbbb",
};
