/* XPM */
static char * image[] = {
/* width height num_colors chars_per_pixel */
"32 32 7 1",
"a c #0c0f2a",
"b c #a6b04f",
"c c #96a9c1",
"d c #6c81a1",
"e c #fdd179",
"f c #b55945",
"g c #734c44",
"agccaafffabbbbbbbbbbbbbbbbbbbbbb",
"baccgafffabbbbbbbbbbbbbbbbbbbbbb",
"badcggfffabbbbbbbbbbbbbbbbbbbbbb",
"baccggfffabbbbbbbbbbbbbbbbbbbbbb",
"accccgffffabbbbbbbbbbbbbbbbbbbbb",
"aaeeaaffffabbbbbbbbbbbbbbbbbbbbb",
"baeeaaffffabbbbbbbbbbbbbbbbbbbbb",
"addddafffaabbbbbbbbbbbbbbbbbbbbb",
"aaaaaafffabbbbbbbbbbbbbbbbbbbbbb",
"bbbbbafffabbbbbbbbbbbbbbbbbbbbbb",
"bbbbbbafffabbbbbbbbbbbbbbbbbbbbb",
"bbbbbbafffabbbbbbbbbbbbbbbbbbbbb",
"bbbbbbafffaaabbbbbbbbbbbbbbbbbbb",
"bbbbbbafffffabbbbbbbbbbbbbbbbbbb",
"bbbbbbafffffabbbbbbbbbbbbbbbbbbb",
"bbbbbbaffffabbbbbbbbbbbbbbbbbbbb",
"bbbbbbafffabbbbbbbbbbbbbbbbbbbbb",
"bbbbbbafffabbbbbbbbbbbbbbbbbbbbb",
"bbbbbbafffabbbbbbbbbbbbbbbbbbbbb",
"bbbbbbagffabbbbbbbbbbbbbbbbbbbbb",
"bbbbbafffffabbbbbbbbbbbbbbbbbbbb",
"bbbbbaffgffabbbbbbbbbbbbbbbbbbbb",
"bbbbafffgffabbbbbbbbbbbbbbbbbbbb",
"bbbbaffafffabbbbbbbbbbbbbbbbbbbb",
"bbbafffafffabbbbbbbbbbbbbbbbbbbb",
"bbbaffaafffabbbbbbbbbbbbbbbbbbbb",
"bbafffaafffabbbbbbbbbbbbbbbbbbbb",
"bbaffabafffabbbbbbbbbbbbbbbbbbbb",
"bafffabafffabbbbbbbbbbbbbbbbbbbb",
"baffabbafffabbbbbbbbbbbbbbbbbbbb",
"bfffabbafffabbbbbbbbbbbbbbbbbbbb",
"bffbbbbbfffbbbbbbbbbbbbbbbbbbbbb",
};
