/* XPM */
static char * image[] = {
/* width height num_colors chars_per_pixel */
"32 32 4 1",
"a c #a6b04f",
"b c #0c0f2a",
"c c #b55945",
"d c #734c44",
"aaaaaaaaaaaaaaaaaaaaaaaaaaaaaaaa",
"aaaaaaaaaaaaaaaaaaaaaaaaaaaaaaaa",
"aaaaaaaaaaaaaaaaaaaaaaaaaaaaaaaa",
"aaaaaaaaaaaaaaaaaaaaaaaaaaaaaaaa",
"aaaaaaaaaaaaaaaaaaaaaaaaaaaaaaaa",
"aaaaaaaaaaaaaaaabbbaaaaaaaaaaaaa",
"aaaaaaaaaaaaaaabcccbaaaaaaaaaaaa",
"aaaaaaaaaaaaaaabcccbaaaaaaaaaaaa",
"aaaaaaaaaaaaaaabcccbaaaaaaaaaaaa",
"aaaaaaaaaaaaaaaacccbaaaaaaaaaaaa",
"aaaaaaaaaaaaaaaaccccbaaaaaaaaaaa",
"aaaaaaaaaaaaaaaadcccbaaaaaaaaaaa",
"aaaaaaaaaaaaaaaadcccbaaaaaaaaaaa",
"aaaaaaaaaaaaaaaaacccbaaaaaaaaaaa",
"aaaaaaaaaaaaaaaaaccccbaaaaaaaaaa",
"aaaaaaaabbbbaaaaadcccbaaaaaaaaaa",
"aaaaaaaabcccbbbaadcccbaaaaaaaaaa",
"aaaaaaaabcccccbaaacccbaaaaaaaaaa",
"aaaaaaaaaddcccbaaaccccbaaaaaaaaa",
"aaaaaaaaaaadddaaaadcccbaaaaaaaaa",
"aaaaaaaaaaaaaaaaaadcccbaaaaaaaaa",
"aaaaaaaaaaaaaaaaaaacccbaaaaaaaaa",
"aaaaaaaaaaaaaaaaaaaccccbaaaaaaaa",
"aaaaaaaaaaaaaaaaaaadcccbaaaaaaaa",
"aaaaaaaaaaaaaaaaaaadcccbaaaaaaaa",
"aaaaaaaaaaaaaaaaaaaacccbaaaaaaaa",
"aaaaaaaaaaaaaaaaaaaaccaaaaaaaaaa",
"aaaaaaaaaaaaaaaaaaaaaaaaaaaaaaaa",
"aaaaaaaaaaaaaaaaaaaaaaaaaaaaaaaa",
"aaaaaaaaaaaaaaaaaaaaaaaaaaaaaaaa",
"aaaaaaaaaaaaaaaaaaaaaaaaaaaaaaaa",
"aaaaaaaaaaaaaaaaaaaaaaaaaaaaaaaa",
};
