/* XPM */
static char * image[] = {
/* width height num_colors chars_per_pixel */
"32 32 8 1",
"a c #d07753",
"b c #0c0f2a",
"c c #a6b04f",
"d c #96a9c1",
"e c #6c81a1",
"f c #fdd179",
"g c #b55945",
"h c #734c44",
"bhdbcbaaabcccccccccccccccccccccc",
"bhddbbgggbcccccccccccccccccccccc",
"cbddhbgggbcccccccccccccccccccccc",
"cbedhhgggbcccccccccccccccccccccc",
"cbddhhgggbcccccccccccccccccccccc",
"bddddhggggbccccccccccccccccccccc",
"bbffbbggggbccccccccccccccccccccc",
"cbffbbggggbccccccccccccccccccccc",
"beeeebgggbbccccccccccccccccccccc",
"bbbbbbgggbcccccccccccccccccccccc",
"cccccbgggbcccccccccccccccccccccc",
"ccccccbgggbccccccccccccccccccccc",
"ccccccbgggbccccccccccccccccccccc",
"ccccccbgggbbbccccccccccccccccccc",
"ccccccbgggggbccccccccccccccccccc",
"ccccccbgggggbccccccccccccccccccc",
"ccccccbggggbcccccccccccccccccccc",
"ccccccbgggbccccccccccccccccccccc",
"ccccccbgggbccccccccccccccccccccc",
"ccccccbgggbccccccccccccccccccccc",
"ccccccbhggbccccccccccccccccccccc",
"cccccbgggggbcccccccccccccccccccc",
"cccccbgghggbcccccccccccccccccccc",
"ccccbggghggbcccccccccccccccccccc",
"ccccbggbgggbcccccccccccccccccccc",
"cccbgggbgggbcccccccccccccccccccc",
"cccbggbbgggbcccccccccccccccccccc",
"ccbgggbbgggbcccccccccccccccccccc",
"ccbggbcbgggbcccccccccccccccccccc",
"cbgggbcbgggbcccccccccccccccccccc",
"cbggbccbgggbcccccccccccccccccccc",
"cgggbccbgggbcccccccccccccccccccc",
};
