/* XPM */
static char * image[] = {
/* width height num_colors chars_per_pixel */
"32 32 5 1",
"a c #a6b04f",
"b c #0c0f2a",
"c c #3d3333",
"d c #b55945",
"e c #734c44",
"aaaaaaaaaaaaaaaaaaaaaaaaaaaaaaaa",
"aaaaaaaaaaaaaaaaaaaaaaaaaaaaaaaa",
"aaaaaaaaaaaaaaaaaaaaaaaaaaaaaaaa",
"aaaaaaaaaaaaaaaaaaaaaaaaaaaaaaaa",
"aaaaaaaaaaaaaaaaaaaaaaaaaaaaaaaa",
"aaaaaaaaaaaaaaaaaaaaaaaaaaaaaaaa",
"aaaaaaaaaaaaaaaaaaaaaaaaaaaaaaaa",
"aaaaaaaaaaaaaaaaaaaaaaaaaaaaaaaa",
"aaaaaaaaaaaaaaaaaaaaaaaaaaaaaaaa",
"aaaaaaaaaaaaaaaaaaaaaaaaaaaaaaaa",
"aaaaaaaaaaaaaaaaaaaaaaaaaaaaaaaa",
"aaaaaaaaaaaaaaaaaaaaaaaaaaaaaaaa",
"aaaaaaaaaaaaaaaaaaaaaaaaaaaaaaaa",
"aaaaaaaaaaaaaaaaaaaaaaaaaaaaaaaa",
"aaaaaaaaaaaaaaaaaaaaaaaaaaaaaaaa",
"aaaaaaaaaaaaaaaaaaaaaaaaaaaaaaaa",
"aaaaaaaaaaaaaaaaaaaaaaaaaaaaaaaa",
"aaaaaaaaaaaaaaaaaaaaaaaaaaaaaaaa",
"aaaaabbbaaaaaaaaaaaaaaaaaaaaaaaa",
"aaaaabddbaaaaaaaaaaaaabbbbbbbbbb",
"aaaaabdddbbbbbbbbbbbbbeeeeeeeeee",
"bbbbbbbdddeeeeeeeeeeeedddddddddd",
"eeeeeeeedddddddddddddddddddddddd",
"dddddddddddddddddddddddddddddddd",
"dddddddddddddddddddddddddddddddd",
"dddddddddddddddddddddddddddddddd",
"dddddddddddddddddddddddddddddddd",
"ddddddddddddddddddddddeeeeeedddc",
"dddddddddeeeeeeeeeeeeeeeeeeeeddd",
"eeeeeeeeeeeeeeeeeeeeeeeeeeeeecdd",
"eeeeeeeeeeeeeeeeeeeeeeaaaaaaaaee",
"eeeeeeeeeaaaaaaaaaaaaaaaaaaaaaaa",
};
