/* XPM */
static char * image[] = {
/* width height num_colors chars_per_pixel */
"32 32 6 1",
"a c #d07753",
"b c #a6b04f",
"c c #0c0f2a",
"d c #3d3333",
"e c #b55945",
"f c #734c44",
"bbbccccbbbbbbbbbbbbbbbbbbbbbbbbb",
"bbceeeecbbbbbbbbbbbbbbbbbbbbbbbb",
"bcfeeeefcbbbbbbbbbbbbbbbbbbbbbbb",
"cffeeeeffcbbbbbbbbbbbbbbbbbbbbbb",
"cffeeeeffccbbbbbbbbbbbbbbbbbbbbb",
"cffeeeefeecbbbbbbbbbbbbbbbbbbbbb",
"cffeeeeeeecbbbbbbbbbbbbbbbbbbbbb",
"cffeeeeeecbbbbbbbbbbbbbbbbbbbbbb",
"cffeeeeffcbbbbbbbbbbbbbbbbbbbbbb",
"cffeeeeffcbbbbbbbbbbbbbbbbbbbbbb",
"cffeeeeffcbbbbbbbbbbbbbbbbbbbbbb",
"cffeeeeffcbbbbbbbbbbbbbbbbbbbbbb",
"cffeeeeffcbbbbbbbbbbbbbbbbbbbbbb",
"cffeeeeffcbbbbbbbbbbbbbbbbbbbbbb",
"cffeeeeffcbbbbbbbbbbbbbbbbbbbbbb",
"bcffeeeeffcbbbbbbbbbbbbbbbbbbbbb",
"bcffeeeeffcbbbbbbbbbbbbbbbbbbbbb",
"bcffeeeeffcbbbbbbbbbbbbbbbbbbbbb",
"bcffeeeeffcbbbbbbbbbbbbbbbbbbbbb",
"bcffeeeeffcbbbbbbbbbbbbbbbbbbbbb",
"bcffeeeeffcbbbbbbbbbbbbbbbbbbbbb",
"ccffeeeeffcbbbbbbbbbbbbbbbbbbbbb",
"cfffeeeeffcbbbbbbbbbbbbbbbbbbbbb",
"cfffeeeeffcbbbbbbbbbbbbbbbbbbbbb",
"bcffeeeeffcbbbbbbbbbbbbbbbbbbbbb",
"bcffaaaaffcbbbbbbbbbbbbbbbbbbbbb",
"bcfaddddafcbbbbbbbbbbbbbbbbbbbbb",
"bcaddddddacbbbbbbbbbbbbbbbbbbbbb",
"bcadffdfdacbbbbbbbbbbbbbbbbbbbbb",
"bcedfffffecbbbbbbbbbbbbbbbbbbbbb",
"bbefffdffebbbbbbbbbbbbbbbbbbbbbb",
"bbbeffffebbbbbbbbbbbbbbbbbbbbbbb",
};
