/* XPM */
static char * image[] = {
/* width height num_colors chars_per_pixel */
"32 32 8 1",
"a c #a6b04f",
"b c #0c0f2a",
"c c #96a9c1",
"d c #bbc3d0",
"e c #6c81a1",
"f c #fdd179",
"g c #b55945",
"h c #734c44",
"aaaaaaaaaaaaaaabgggbaaaaaaaaaaaa",
"aaaaaaaaaaaaaaabgggbaaaaabbbbbbb",
"aaaaaaaaaaaaaaabgggbbbbbbggccggb",
"aaaaaaaaaaaabbbbgggggggggggccggb",
"aaaaaaaaaaaabggggggggggggbbeebba",
"aaaaaaaaaaaabggggggbbhhhbabeebaa",
"aaaaaaaaaaaaabbbgggbgggbaabddbaa",
"aaaaaaaaaaaaaaabggghggbaabddddba",
"aaaaaaaaaaaaaaabggghgbaaabbffbba",
"aaaaaaaaaaaaaaabggghbaaaaabffbaa",
"aaaaaaaaaaaaaaabgggbaaaaabccccba",
"aaaaaaaaaaaaaaabgggbaaaaabbbbbba",
"aaaaaaaaaaaaaaabgggbaaaaaaaaaaaa",
"aaaaaaaaaaaaaaabgggbaaaaaaaaaaaa",
"aaaaaaaaaaaaaaabgggbaaaaaaaaaaaa",
"aaaaaaaaaaaaaaabgggbaaaaaaaaaaaa",
"aaaaaaaaaaaaaaabgggbaaaaaaaaaaaa",
"aaaaaaaaaaaaaaabgggbaaaaaaaaaaaa",
"aaaaaaaaaaaaaaabgggbaaaaaaaaaaaa",
"aaaaaaaaaaaaaaabgggbaaaaaaaaaaaa",
"aaaaaaaaaaaaaaabgggbaaaaaaaaaaaa",
"aaaaaaaaaaaaaaabgggbaaaaaaaaaaaa",
"aaaaaaaaaaaaaaabgggbaaaaaaaaaaaa",
"aaaaaaaaaaaaaaabgggbaaaaaaaaaaaa",
"aaaaaaaaaaaaaaabgggbaaaaaaaaaaaa",
"aaaaaaaaaaaaaaabgggbaaaaaaaaaaaa",
"aaaaaaaaaaaaaaabgggbaaaaaaaaaaaa",
"aaaaaaaaaaaaaaabgggbaaaaaaaaaaaa",
"aaaaaaaaaaaaaaabgggbaaaaaaaaaaaa",
"aaaaaaaaaaaaaaabgggbaaaaaaaaaaaa",
"aaaaaaaaaaaaaaabgggbaaaaaaaaaaaa",
"aaaaaaaaaaaaaaaagggaaaaaaaaaaaaa",
};
