/* XPM */
static char * image[] = {
/* width height num_colors chars_per_pixel */
"32 32 31 1",
"a c #3a2b28",
"b c #dbcbbc",
"c c #6e7d61",
"d c #844233",
"e c #634a45",
"f c #d2a394",
"g c #a4513e",
"h c #291a18",
"i c #b0b0b0",
"j c #d4d4d4",
"k c #ab6e47",
"l c #d07753",
"m c #bc6c4b",
"n c #362623",
"o c #4c403d",
"p c #000000",
"q c #553d39",
"r c #413431",
"s c #57636b",
"t c #4c342f",
"u c #d48858",
"v c #554c3c",
"w c #0c0a07",
"x c #657358",
"y c #b56a68",
"z c #eb9661",
"A c #425059",
"B c #ac6e47",
"C c #c0ac98",
"D c #e4b5a5",
"E c #b55945",
"EzzzzzzzzzzzzzzzzElzzzzzllEElEEE",
"lzzzzzzzzzzzzzzzzlzzzzzzzzzllllE",
"lzzzzzzzzzzzzzzzzzzzzzzzzzzzzzzl",
"lzzzzzzzzzzzzzzzzzzzzzzzzzzzzzzz",
"Ezzzzzzzzzzzzzzlzzzzzzzzzzzzzzzz",
"Elzzzzzzzzzzzzzlzzzzzzzzzzzzzzzl",
"lEzzzzzzzzzzzzwwwzwzzzzzzzzzzzEl",
"zlllzzzzzzwwwwtttwtwzzzzzzzzzlzz",
"zzlllllzzwtttqeeetewzzzzzzzzzzzz",
"zzlzzzElllwqeeeeeeeewzzzzzzzlzzz",
"zzzzzzllzwqeeeeeeeeewzzzzzzzlzzz",
"zzzzzzzlzwqeeeetteeepzzzzzzzlzzz",
"zzzzzzzEwttqeeefteteqpzzzzzzElzz",
"zlzzzzzEEwteeefffefepzzzzzzzEEll",
"lEzzzzzllwqeeffwDfwfqpzzzzzzlzzz",
"zlEzzzElwtqeyffhDDhfplEzzzzlzzzz",
"zzlEEElzzwqqqffDDDDfpzlEElzzzzzz",
"zzzlElzzzzwqqqfDDDfpwzzEzzzzzzzz",
"zzzzElzzzwrrrqqfffwoDwzlzzzzzzzz",
"zzzzllzzzwrrocaCCoorDwzlzzzzzzzz",
"zzzzllzzzzwrrooooorjiwzlzzzzzzzz",
"zzzzlzzzzzwwrrrrrrjiwzllzzzzzzzz",
"zzzzEzzzzzwccaaCbjiwzzlzzzzzzzzz",
"zzzlElzzzzwcxaabCbawzzlzzzzzzzzz",
"zzzEllzzzzwcxaaAAAawzlzzzzzzzzzz",
"zzzlzzlzzzzwwAssAsswzEzzzzzzzzzz",
"zzllzzElzzzzwsAwwAswlEzzzzzzzzzz",
"zzlzzllElzzwAsAwwAAwEEzzzzzzzzzz",
"zzlzzzzzlEEwnnwzwnnwlEzzzzzzzzzz",
"zlzzzzzzzzwvvvwlwnvvwlzzzzzzzzzz",
"lEzzzzzzzuuBkkkkkddkkgmzzzzzzzzz",
"ElzzzzzzzzuuuuuuugggggElzzzzzzzl",
};
