/* XPM */
static char * image[] = {
/* width height num_colors chars_per_pixel */
"32 32 25 1",
"a c #70805f",
"b c #3c312c",
"c c #5a5237",
"d c #2d2420",
"e c #667556",
"f c #512d23",
"g c #5e724a",
"h c #748363",
"i c #677755",
"j c #342a25",
"k c #453a35",
"l c #778667",
"m c #4a413c",
"n c #d48757",
"o c #5b3c2c",
"p c #d07753",
"q c #695d58",
"r c #000000",
"s c #302723",
"t c #a3503e",
"u c #834032",
"v c #eb9661",
"w c #645c3f",
"x c #b55945",
"y c #aa6c46",
"xvvvvvvvvvvvvvvvvxpvvvvvppxxpxxx",
"pvvvvvvvvvvvvvvvvpvvvvvvvvvppppx",
"pvvvvvvvvvvvvvvvvvvvvvvvvvvvvvvp",
"pvvvvvvvvvvvvvvvvvvvvvvvvvvvvvvv",
"xvvvvvvvvvvvvvvpvvvvvvvvvvvvvvvv",
"xpvvvvvvvvvvvrrrrrvvvvvvvvvvvvvp",
"pxvvvvvvvvvvroffffrvvvvvvvvvvvxp",
"vpppvvvvvvvrggofoggrvvvvvvvvvpvv",
"vvpppppvvvrgggooggggrvvvvvvvvvvv",
"vvpvvvxppprgggoiigggrvvvvvvvpvvv",
"vvvvvvppvvrggioaaiggrvvvvvvvpvvv",
"vvvvvvvpvvrgiaoaaaigrvvvvvvvpvvv",
"vvvvvvvxpvriaoaaaaairvvvvvvvxpvv",
"vpvvvvvxxprioalllaairvvvvvvvxxpp",
"pxvvvvvppvrioalllaairvvvvvvvpvvv",
"vpxvvvxpvvrgoajjjaigrpxvvvvpvvvv",
"vvpxxxpvvvrjjjjjjjjjrvpxxpvvvvvv",
"vvvpxpvvvvrjjjjjjjjjrvvxvvvvvvvv",
"vvvvxpvvvvrjjjjjjjjjrvvpvvvvvvvv",
"vvvvppvvvvrsjjjjjjjsrvvpvvvvvvvv",
"vvvvppvvvvrsdjjjjjdsrvvpvvvvvvvv",
"vvvvpvvvvvrssbbbabrssrppvvvvvvvv",
"vvvvxvvvvvrssbbabbrssrpvvvvvvvvv",
"vvvpxpvvvvrsskhhhkrssrpvvvvvvvvv",
"vvvxppvvvvrewwwwwwweervvvvvvvvvv",
"vvvpvvpvvvvrwwwcwwwrrxvvvvvvvvvv",
"vvppvvxpvvvrwccrccwrpxvvvvvvvvvv",
"vvpvvppxpvvrllrvrwwrxxvvvvvvvvvv",
"vvpvvvvvpxxrllrvrmmrpxvvvvvvvvvv",
"vpvvvvvvvvvprrpprqqrvpvvvvvvvvvv",
"pxvvvvvvvvnyyyynyuuyntpvvvvvvvvv",
"xpvvvvvvvvvnnnnnnttttxxpvvvvvvvp",
};
