/* XPM */
static char * image[] = {
/* width height num_colors chars_per_pixel */
"32 32 24 1",
"a c #70805f",
"b c #3c312c",
"c c #5a5237",
"d c #2d2420",
"e c #667556",
"f c #512d23",
"g c #5e724a",
"h c #677755",
"i c #342a25",
"j c #453a35",
"k c #6a7a5a",
"l c #778667",
"m c #4a413c",
"n c #d48757",
"o c #5b3c2c",
"p c #d07753",
"q c #695d58",
"r c #000000",
"s c #a3503e",
"t c #834032",
"u c #eb9661",
"v c #645c3f",
"w c #b55945",
"x c #aa6c46",
"wuuuuuuuuuuuuuuuuwpuuuuuppwwpwww",
"puuuuuuuuuuuuuuuupuuuuuuuuuppppw",
"puuuuuuuuuuuuuuuuuuuuuuuuuuuuuup",
"puuuuuuuuuuuuuuuuuuuuuuuuuuuuuuu",
"wuuuuuuuuuuuuuupuuuuuuuuuuuuuuuu",
"wpuuuuuuuuuuuuupuuuuuuuuuuuuuuup",
"pwuuuuuuuuuuuuupuuuuuuuuuuuuuuwp",
"upppuuuuuuuuurrrrruuuuuuuuuuupuu",
"uupppppuuuuuroffffruuuuuuuuuuuuu",
"uupuuuwpppurggofoggruuuuuuuupuuu",
"uuuuuuppuurgggooggggruuuuuuupuuu",
"uuuuuuupuurgggohhgggruuuuuuupuuu",
"uuuuuuuwpurgghoaahggruuuuuuuwpuu",
"upuuuuuwwprghaoaaahgruuuuuuuwwpp",
"pwuuuuuppurhaolllaahruuuuuuupuuu",
"upwuuuwpuurhoalllaahrpwuuuupuuuu",
"uupwwwpuuurhoaiiiaahrupwwpuuuuuu",
"uuupwpuuuuriiiiiiiiiruuwuuuuuuuu",
"uuuuwpuuuuriiiiiiiiiruupuuuuuuuu",
"uuuuppuuuuriiiiiiiiiruupuuuuuuuu",
"uuuuppuuuurdiiiiiiidruupuuuuuuuu",
"uuuupuuuuurddiiikiddruppuuuuuuuu",
"uuuuwuuuuurddbbabbrddrpuuuuuuuuu",
"uuupwpuuuurddjllljrddrpuuuuuuuuu",
"uuuwppuuuurdvvvvvvvddruuuuuuuuuu",
"uuupuupuuurevvvcvvveeruuuuuuuuuu",
"uuppuuwpuuurllcrccvrrwuuuuuuuuuu",
"uupuuppwpuurllrurvvrwwuuuuuuuuuu",
"uupuuuuupwwprruurmmrpwuuuuuuuuuu",
"upuuuuuuuuupwwpprqqrupuuuuuuuuuu",
"pwuuuuuuuunxxxxnxttxnspuuuuuuuuu",
"wpuuuuuuuuunnnnnnsssswwpuuuuuuup",
};
