/* XPM */
static char * image[] = {
/* width height num_colors chars_per_pixel */
"32 32 25 1",
"a c #70805f",
"b c #3c312c",
"c c #5a5237",
"d c #2d2420",
"e c #667556",
"f c #512d23",
"g c #5e724a",
"h c #677755",
"i c #342a25",
"j c #453a35",
"k c #6a7a5a",
"l c #778667",
"m c #d48757",
"n c #5b3c2c",
"o c #d07753",
"p c #7a2d18",
"q c #695d58",
"r c #000000",
"s c #302723",
"t c #a3503e",
"u c #834032",
"v c #eb9661",
"w c #645c3f",
"x c #b55945",
"y c #aa6c46",
"xvvvvvvvvvvvvvvvvxovvvvvooxxoxxx",
"ovvvvvvvvvvvvvvvvovvvvvvvvvoooox",
"ovvvvvvvvvvvvvvvvvvvvvvvvvvvvvvo",
"ovvvvvvvvvvvvvvvvvvvvvvvvvvvvvvv",
"xvvvvvvvvvvvvvvovvvvvvvvvvvvvvvv",
"xovvvvvvvvvrrrrrvvvvvvvvvvvvvvvo",
"oxvvvvvvvvrnffffrvvvvvvvvvvvvvxo",
"vooovvvvvrggnfnggrvvvvvvvvvvvovv",
"vvooooovrgggnnggggrvvvvvvvvvvvvv",
"vvovvvxorgggnhhgggrvvvvvvvvvovvv",
"vvvvvvoorgghnaahggrvvvvvvvvvovvv",
"vvvvvvvorghanaaahgrvvvvvvvvvovvv",
"vvvvvvvxrhanaaaaahrvvvvvvvvvxovv",
"vovvvvvxrhnalllaahrovvvvvvvvxxoo",
"oxvvvvvorhnalllaahroovvvvvvvovvv",
"voxvvvxorgnaiiiahgrvvoxvvvvovvvv",
"vvoxxxovriiiiiiiiirvvvoxxovvvvvv",
"vvvoxovvriiiiiiiiirvvvvxvvvvvvvv",
"vvvvxovrsiiiiiiiiirvvvvovvvvvvvv",
"vvvvoovrssiiiiiiisrvvvvovvvvvvvv",
"vvvvoovrssdiiiiidsrvvvvovvvvvvvv",
"vvvvovvrsrrbbbabsrvvvvoovvvvvvvv",
"vvvvxvrssrrbbabbsrvvvvovvvvvvvvv",
"vvvoxorssrrjllljsrvvvvovvvvvvvvv",
"vvvxooreerwwwwwwwrvvvovvvvvvvvvv",
"vvvovvorrrwwwcwwwrvvvxvvvvvvvvvv",
"vvoovvxovrwccrcqqrvvoxvvvvvvvvvv",
"vvovvooxorwwrvrqqrvoxxvvvvvvvvvv",
"vvovvvvvorkkrvvrrovvoxvvvvvvvvvv",
"vovvvvvvvrllrxopoovvvovvvvvvvvvv",
"oxvvvvmmmyyyymyyyutvvxovvvvvvvvv",
"xovvvvvmmmmmmmmmmtxxxxxovvvvvvvo",
};
