/* XPM */
static char * image[] = {
/* width height num_colors chars_per_pixel */
"32 32 28 1",
"a c #bc6b4b",
"b c #70805f",
"c c #3c312c",
"d c #5a5237",
"e c #2d2420",
"f c #bec49f",
"g c #512d23",
"h c #8dab5f",
"i c #5e724a",
"j c #677755",
"k c #342a25",
"l c #453a35",
"m c #6a7a5a",
"n c #778667",
"o c #d48757",
"p c #5b3c2c",
"q c #d07753",
"r c #7a2d18",
"s c #000000",
"t c #a3503e",
"u c #834032",
"v c #eb9661",
"w c #625652",
"x c #645c3f",
"y c #70694f",
"z c #b55945",
"A c #a2a97f",
"B c #aa6c46",
"zvvvvvvvvvvvvvvvvzqvvvvvqqzzqzzz",
"qvvvvvvvvvvvvvvvvqvvvvvvvvvqqqqz",
"qvvvvvvvvvvvvvvvvvvvvvvvvvvvvvvq",
"qvvvvvvvvvvvvvvvvvvvvvvvvvvvvvvv",
"zvvvvvvvvvvvvvvqvvvvvvvvvvvvvvvv",
"zqvvvvvvvvvvvvvqvvvvvvvvvvvvvvvq",
"qzvvvvvvvvvvvvvqvvvvvvvvvvvvvvzq",
"vqqqvvvvvvvvvvvsssssvvvvvvvvvqvv",
"vvqqqqqvvvvvvqspggggsvvvvvvvvvvv",
"vvqvvvzqqqvvvspipggpisvvvvvvqvvv",
"vvvvvvqqvvvvsgpipgpiiisvvvvvqvvv",
"vvvvvvvqvvvvsgpippjiiisvvvvvqvvv",
"vvvvvvvzqvvvspijpbbjiisvvvvvzqvv",
"vqvvvvvzzqqvsijbpbbbjisvvvvvzzqq",
"qzvvvvvqqvvvsjssbpbssjsvvvvvqvvv",
"vqzvvvzqvvvvsjfhbpbhfjsvvvvqvvvv",
"vvqzzzqvvvvvsbbbbbpbbbszzqvvvvvv",
"vvvqzqvvvvvvsibbbbbpbiszvvvvvvvv",
"vvvvzqvvvvvvsliAbAbAplsqvvvvvvvv",
"vvvvqqvvvvvvsgciArArclsqvvvvvvvv",
"vvvvqqvvvvvvsgccirrcclsqvvvvvvvv",
"vvvvqvvvvvvvsnkccccbklsqvvvvvvvv",
"vvvvzvvvvvvvsllkkkmksllsvvvvvvvv",
"vvvqzqvvvvvvslleeeeesllsvvvvvvvv",
"vvvzqqvvvvvvsllxxxxxxllsvvvvvvvv",
"vvvqvvqvvvvvsnnxxdxxxnnsvvvvvvvv",
"vvqqvvzqvvvvvsyyysdxxssvvvvvvvvv",
"vvqvvqqzqvvvvswwsvsxxsvvvvvvvvvv",
"vvqvvvvvqzzqvvrsrqsmmsvvvvvvvvvv",
"vqvvvvvvvvvqzzqqqqsnnsvvvvvvvvvv",
"qzvvvvvvvvvvoBBBBtuBBuaovvvvvvvv",
"zqvvvvvvvvvvvoooottttttqvvvvvvvq",
};
