/* XPM */
static char * image[] = {
/* width height num_colors chars_per_pixel */
"34 21 6 1",
"a c #d07753",
"b c #0c0f2a",
"c c #3d3333",
"d c #ffffff",
"e c #b55945",
"f c #734c44",
"ddddddddddddddddddddddddddbbbbbbdd",
"ddddddddddddddddddddddddbbffeeeebd",
"ddddddddddddddddddddddbbffeeeeeeeb",
"ddddddddddddbbbdddddbbffeeeeeeeeeb",
"ddddddddddddbeebddbbffeeeeeeeeeeeb",
"ddddddddddddbeebbbffeeeeeeeeeeeefb",
"ddddddddddddbbeeffeeeeeeeeeeeefffb",
"ddddddddddddbbeeeeeeeeeeeeeefffffd",
"ddddddddddbbffeeeeeeeeeeeeffffffdd",
"ddddddddbbffeeeeeeeeeeeeffffffdddd",
"ddddddbbffeeeeeeeeeeeeffffffdddddd",
"ddddbbffeeeeeeeeeeeeffffffdddddddd",
"ddbbffeeeeeeeeeeeeffffffdddddddddd",
"dbaaaaeeeeeeeeeeeecfffdddddddddddd",
"bacffcaeeeeeeeffeecfdddddddddddddd",
"befffccaeeeefffceebddddddddddddddd",
"befffccaeefffffcffbddddddddddddddd",
"befffccaffffffddffdddddddddddddddd",
"deffcccaffffdddddddddddddddddddddd",
"ddecccfeffdddddddddddddddddddddddd",
"dddeeeefdddddddddddddddddddddddddd",
};
