/* XPM */
static char * image[] = {
/* width height num_colors chars_per_pixel */
"14 16 5 1",
"a c #d07753",
"b c #0c0f2a",
"c c #ffffff",
"d c #b55945",
"e c #734c44",
"bbbbbbbbbbbbbc",
"baadaadaadaabc",
"baadaadaadaabc",
"baadaadaadaabc",
"beaadaadaadaab",
"beaadaadaadaab",
"beaadaadaadaab",
"beddeddeddeddb",
"beddeddeddeddb",
"ceddeddeddeddb",
"ceddeddeddeddb",
"ceddeddeddeddb",
"ceddeddeddeddb",
"ccddeddeddeddb",
"ccddeddeddeddb",
"ccddeddeddeddb",
};
