/* XPM */
static char * image[] = {
/* width height num_colors chars_per_pixel */
"16 14 2 1",
"a c #eb9661",
"b c #ffffff",
"bbbbbbbbbaabbbbb",
"bbbbbbbbaaaabbbb",
"bbbbbbbbaaaabbbb",
"bbaaaaabbaabbbbb",
"baaaaaaabbbbbaab",
"aaaaaaaaabbbaaab",
"aaaaaaaaaabbaaaa",
"aaaaaaaaaaabaaaa",
"aaaaaaaaaaabbaaa",
"aaaaaaaaaaabbaab",
"baaaaaaaaaabbbbb",
"bbaaaaaaaaabbbbb",
"bbbaaaaaaabbbbbb",
"bbbbaaaaabbbbbbb",
};
