/* XPM */
static char * image[] = {
/* width height num_colors chars_per_pixel */
"11 35 9 1",
"a c #d07753",
"b c #0c0f2a",
"c c #96a9c1",
"d c #bbc3d0",
"e c #6c81a1",
"f c #fdd179",
"g c #ffffff",
"h c #b55945",
"i c #734c44",
"ggbbbbggggg",
"gbaaabggggg",
"gbaaabggggg",
"gbhhhbggggg",
"bbhhhbggggg",
"bihhhbggggg",
"bihhhbggggg",
"gbhhhhbgggg",
"gbhhhhcbggg",
"gbhhhhccbgg",
"gbhhhbcchbg",
"gbhhhbechhb",
"gbhhhbeehhb",
"gbhhhbddbbb",
"gbhhhddddbg",
"gbhhhbffbbg",
"gbhhhbffbgg",
"bhhhhccccbg",
"bhhhbbbbbbg",
"bhhhbgggggg",
"bhhhbgggggg",
"bhhhbgggggg",
"bhhhbgggggg",
"bhhhbgggggg",
"bhhhbgggggg",
"bhhhbgggggg",
"bhhhbgggggg",
"bhhhibggggg",
"bhhhihbgggg",
"bhhhihhbggg",
"bhhhbhhhbgg",
"bhhhbbhhhbg",
"bhhhbgghhgg",
"bhhhbgggggg",
"ghhhggggggg",
};
