/* XPM */
static char * image[] = {
/* width height num_colors chars_per_pixel */
"13 35 8 1",
"a c #d07753",
"b c #0c0f2a",
"c c #96a9c1",
"d c #6c81a1",
"e c #fdd179",
"f c #ffffff",
"g c #b55945",
"h c #734c44",
"ffffffbbbbfff",
"bbbffbaaabfff",
"bhcbfbaaabfff",
"bhccbbgggbfff",
"fbcchbgggbfff",
"fbdchhgggbfff",
"fbcchhgggbfff",
"bcccchggggbff",
"bbeebbggggbff",
"fbeebbggggbff",
"bddddbgggbbff",
"bbbbbbgggbfff",
"fffffbgggbfff",
"ffffffbgggbff",
"ffffffbgggbff",
"ffffffbgggbbb",
"ffffffbgggggb",
"ffffffbgggggb",
"ffffffbggggbf",
"ffffffbgggbff",
"ffffffbgggbff",
"ffffffbgggbff",
"ffffffbhggbff",
"fffffbgggggbf",
"fffffbgghggbf",
"ffffbggghggbf",
"ffffbggbgggbf",
"fffbgggbgggbf",
"fffbggbbgggbf",
"ffbgggbbgggbf",
"ffbggbfbgggbf",
"fbgggbfbgggbf",
"fbggbffbgggbf",
"fgggbffbgggbf",
"fggfffffgggff",
};
