/* XPM */
static char * image[] = {
/* width height num_colors chars_per_pixel */
"32 32 28 1",
"a c #87947c",
"b c #3a2b28",
"c c #dbcbbc",
"d c #6e7d61",
"e c #844233",
"f c #634a45",
"g c #d2a394",
"h c #a4513e",
"i c #291a18",
"j c #ab6e47",
"k c #d07753",
"l c #bc6c4b",
"m c #362623",
"n c #4c403d",
"o c #000000",
"p c #553d39",
"q c #57636b",
"r c #4c342f",
"s c #d48858",
"t c #554c3c",
"u c #0c0a07",
"v c #657358",
"w c #b56a68",
"x c #eb9661",
"y c #425059",
"z c #c0ac98",
"A c #e4b5a5",
"B c #b55945",
"BxxxxxxxxxxxxxxxxBkxxxxxkkBBkBBB",
"kxxxxxxxxxxxxxxxxkxxxxxxxxxkkkkB",
"kxxxxxxxxxxxxxxxxxxxxxxxxxxxxxxk",
"kxxxxxxxxxxxxxxxxxxxxxxxxxxxxxxx",
"Bxxxxxxxxxxxxxxkxxxxxxxxxxxxxxxx",
"Bkxxxxxxxxxxxxuuuxuxxxxxxxxxxxxk",
"kBxxxxxxxxuuuurrruruxxxxxxxxxxBk",
"xkkkxxxxxurrrpfffrfuxxxxxxxxxkxx",
"xxkkkkkxxxupffffffffuxxxxxxxxxxx",
"xxkxxxBkkupfffffffffuxxxxxxxkxxx",
"xxxxxxkkxupffffrrfffoxxxxxxxkxxx",
"xxxxxxxkurrpfffgrfrfpoxxxxxxkxxx",
"xxxxxxxBkurfffgggfgfoxxxxxxxBkxx",
"xkxxxxxBBupffgguAgugpoxxxxxxBBkk",
"kBxxxxxkurpfwggiAAigoxxxxxxxkxxx",
"xkBxxxBkxupppggAAAAgokBxxxxkxxxx",
"xxkBBBkxxxupppgAAAgoxxkBBkxxxxxx",
"xxxkBkxxxxxuppuggguxxxxBxxxxxxxx",
"xxxxBkxxxxxubdbzzzbuxxxkxxxxxxxx",
"xxxxkkxxxxxubdncczbuxxxkxxxxxxxx",
"xxxxkkxxxxubbancccbnuxxkxxxxxxxx",
"xxxxkxxxxxundnnzccbnuxkkxxxxxxxx",
"xxxxBxxxxunnvbnczcbbnukxxxxxxxxx",
"xxxkBkxxxugAvbbyyybbAukxxxxxxxxx",
"xxxBkkxxxxuuuyyqqquuukxxxxxxxxxx",
"xxxkxxkxxxxxuyqququxxBxxxxxxxxxx",
"xxkkxxBkxxxumuyqquuxkBxxxxxxxxxx",
"xxkxxkkBkxxutuuyqqukBBxxxxxxxxxx",
"xxkxxxxxkBBuuxuymmuxkBxxxxxxxxxx",
"xkxxxxxxxxxkBBkumttuxkxxxxxxxxxx",
"kBxxxxxxxsssjsssjeesshlxxxxxxxxx",
"BkxxxxxxxxssssssshhhhhBkxxxxxxxk",
};
