/* XPM */
static char * image[] = {
/* width height num_colors chars_per_pixel */
"32 32 62 1",
"a c #804432",
"b c #45df2d",
"c c #ae6138",
"d c #996c44",
"e c #23802d",
"f c #bd673f",
"g c #af523a",
"h c #713e2b",
"i c #3a5626",
"j c #f7fac8",
"k c #a5583b",
"l c #b16d43",
"m c #45822d",
"n c #b34838",
"o c #c46b40",
"p c #547e46",
"q c #971f2f",
"r c #27992d",
"s c #b89f6b",
"t c #a48758",
"u c #a65c37",
"v c #916742",
"w c #823930",
"x c #907c57",
"y c #aba76f",
"z c #964f3a",
"A c #943534",
"B c #394c25",
"C c #794635",
"D c #b25e37",
"E c #43df2b",
"F c #765137",
"G c #000000",
"H c #39cc2d",
"I c #852f2d",
"J c #5b4528",
"K c #3dd22d",
"L c #61a02d",
"M c #e1ca89",
"N c #bfb979",
"O c #c27f39",
"P c #30b32d",
"Q c #89975f",
"R c #9e533b",
"S c #eee664",
"T c #b4613d",
"U c #20662d",
"V c #991f2f",
"W c #7d602e",
"X c #f4f3a7",
"Y c #cdb87f",
"Z c #ebdf42",
"0 c #493d29",
"1 c #b45e35",
"2 c #80482d",
"3 c #b9a774",
"4 c #ccb176",
"5 c #8f512f",
"6 c #f5db93",
"7 c #f1ed85",
"8 c #d7af3d",
"9 c #a2785b",
"GGGGGGGGGGGGGGGGGGGGGGGGGGGGGGGG",
"GGGGGGGGGGGGGGGGGGGGGGGGGGGGGGGG",
"GGGGGGGGGGGGGGGGGGGGGGGGGGGGGGGG",
"GGGGGGGGGGGGGGGGGGGGGGGGGGGGGGGG",
"GGGGGGGGGGGGGGGGGGGGGGGGGGGGGGGG",
"GGGGGGGGGGGGGGGGGGGGGGGGGGGGGGGG",
"GGGGGGGGGGGGGGGGGGGGGGGGGGGGGGGG",
"GGGGGGGGGGGGGGGGGGGGGGGGGGGGGGGG",
"GGGGGGGGGGGGGGGGGGGGGGGGGGGGGGGG",
"GGGGGGGGGGGGGGGGGGGGGGGGGGGGGGGG",
"GGGGGGGGGGGGGGGqGGGGGGGGGGGGGGGG",
"GGGGGGGGGGGGqGG1qGGGGGGGGGGGGGGG",
"GGGGGGGGGGGG1qGVG1qGGGGGGGGGGGGG",
"GGGGGGGGGGGGEbWZ1LbGGGGGGGGGGGGG",
"GGGGGGGGGGbHPm8S8mrHKEGGGGGGGGGG",
"GGGGGGGGEKrUBO7j780iePbEGGGGGGGG",
"GGGGGGGKPeQvnSjjj7OoJprPEGGGGGGG",
"GGGGGGKepNMhO7jjjjZIF6QpPEGGGGGG",
"GGGGGKeN66MxlSjjjX89Y666pPEGGGGG",
"GGGGKeN6666scD8778CY66666UHGGGGG",
"GGGGHU666645TRwIAgod66666UHGGGGG",
"GGGGbrQ666tf2axxhzkud666pPEGGGGG",
"GGGGGKeQN6YFhxMM3Fac266NeKGGGGGG",
"GGGGGGKreN6YYM6663Fhx6NeKGGGGGGG",
"GGGGGGGbPp66666666YYyQeKGGGGGGGG",
"GGGGGGGGEPUUQQQQQQpUerKGGGGGGGGG",
"GGGGGGGGGEHHrrrrrrPHKbGGGGGGGGGG",
"GGGGGGGGGGGGbbbbbbEGGGGGGGGGGGGG",
"GGGGGGGGGGGGGGGGGGGGGGGGGGGGGGGG",
"GGGGGGGGGGGGGGGGGGGGGGGGGGGGGGGG",
"GGGGGGGGGGGGGGGGGGGGGGGGGGGGGGGG",
"GGGGGGGGGGGGGGGGGGGGGGGGGGGGGGGG",
};
