/* XPM */
static char * image[] = {
/* width height num_colors chars_per_pixel */
"32 32 65 1",
"a c #804432",
"b c #45df2d",
"c c #4c512a",
"d c #ae6138",
"e c #927533",
"f c #996c44",
"g c #23802d",
"h c #bd673f",
"i c #af523a",
"j c #713e2b",
"k c #f7fac8",
"l c #a5583b",
"m c #c46b40",
"n c #547e46",
"o c #971f2f",
"p c #6f7f2d",
"q c #27992d",
"r c #b89f6b",
"s c #a48758",
"t c #a65c37",
"u c #916742",
"v c #aba76f",
"w c #907c57",
"x c #964f3a",
"y c #943534",
"z c #794635",
"A c #b25e37",
"B c #43df2b",
"C c #765137",
"D c #000000",
"E c #39cc2d",
"F c #835130",
"G c #5b4528",
"H c #f5db93",
"I c #852f2d",
"J c #3dd22d",
"K c #8f5c33",
"L c #e1ca89",
"M c #bfb979",
"N c #906634",
"O c #4e9c2d",
"P c #c27f39",
"Q c #9c542f",
"R c #30b32d",
"S c #605c2e",
"T c #a44430",
"U c #89975f",
"V c #eee664",
"W c #b4613d",
"X c #9e533b",
"Y c #20662d",
"Z c #f4f3a7",
"0 c #cdb87f",
"1 c #ebdf42",
"2 c #493d29",
"3 c #b45e35",
"4 c #80482d",
"5 c #b9a774",
"6 c #ccb176",
"7 c #8f512f",
"8 c #4b8c2e",
"9 c #ab5a36",
"! c #f1ed85",
"@ c #d7af3d",
"# c #8a4139",
"DDDDDDDDDDDDDDDDDDDDDDDDDDDDDDDD",
"DDDDDDDDDDDDDDDDDDDDDDDDDDDDDDDD",
"DDDDDDDDDDDDDDDDDDDDDDDDDDDDDDDD",
"DDDDDDDDDDDDDDDDDDDDDDDDDDDDDDDD",
"DDDDDDDDDDDDDDDDDDDDDDDDDDDDDDDD",
"DDDDDDDDDDDDDDDDDDDDDDDDDDDDDDDD",
"DDDDDDDDDDDDDDDDDDDDDDDDDDDDDDDD",
"DDDDDDDDDDDDDDDDDDDDDDDDDDDDDDDD",
"DDDDDDDDDDDDDDDDDDDDDDDDDDDDDDDD",
"DDDDDDDDDDDDDDDDDDDDDDDDDDDDDDDD",
"DDDDDDDDDDDDDDDDDDoDDDDDDDDDDDDD",
"DDDDDDDDDDDDDDToDoTDDDDDDDDDDDDD",
"DDDDDDDDDDDDDDoDoDDDDDDDDDDDDDDD",
"DDDDDDDDDDDDTpb3PbpDDDDDDDDDDDDD",
"DDDDDDDDDDbE8qeVVSFOJBDDDDDDDDDD",
"DDDDDDDDBJqYNK1Z!@2cgRbBDDDDDDDD",
"DDDDDDDJRgUuP!ZkkV@PGnqRBDDDDDDD",
"DDDDDDJgnMLj9!kkkkVQCHUnRBDDDDDD",
"DDDDDJgMHHLw#Vkkk!Pw0HHHnRBDDDDD",
"DDDDJgMHHHHrdA1!!@z0HHHHHYEDDDDD",
"DDDDEYHHHH67WXIIyimfHHHHHYEDDDDD",
"DDDDbqUHHHsh4awwjxltfHHHnRBDDDDD",
"DDDDDJgUMH0CjwLL5Cad4HHMgJDDDDDD",
"DDDDDDJqgMH00LHHH5CjwHMgJDDDDDDD",
"DDDDDDDbRnHHHHHHHH00vUgJDDDDDDDD",
"DDDDDDDDBRYYUUUUUUnYgqJDDDDDDDDD",
"DDDDDDDDDBEEqqqqqqREJbDDDDDDDDDD",
"DDDDDDDDDDDDbbbbbbBDDDDDDDDDDDDD",
"DDDDDDDDDDDDDDDDDDDDDDDDDDDDDDDD",
"DDDDDDDDDDDDDDDDDDDDDDDDDDDDDDDD",
"DDDDDDDDDDDDDDDDDDDDDDDDDDDDDDDD",
"DDDDDDDDDDDDDDDDDDDDDDDDDDDDDDDD",
};
