/* XPM */
static char * image[] = {
/* width height num_colors chars_per_pixel */
"32 32 64 1",
"a c #804432",
"b c #45df2d",
"c c #ae6138",
"d c #927533",
"e c #996c44",
"f c #23802d",
"g c #bd673f",
"h c #af523a",
"i c #713e2b",
"j c #f7fac8",
"k c #a5583b",
"l c #b16d43",
"m c #45822d",
"n c #c46b40",
"o c #547e46",
"p c #971f2f",
"q c #6f7f2d",
"r c #27992d",
"s c #997f33",
"t c #b89f6b",
"u c #a48758",
"v c #a65c37",
"w c #aba76f",
"x c #907c57",
"y c #9f5a4d",
"z c #964f3a",
"A c #943534",
"B c #b25e37",
"C c #43df2b",
"D c #5c432e",
"E c #765137",
"F c #000000",
"G c #39cc2d",
"H c #f5db93",
"I c #5b4528",
"J c #852f2d",
"K c #3dd22d",
"L c #8f5c33",
"M c #e1ca89",
"N c #bfb979",
"O c #c27f39",
"P c #9c542f",
"Q c #30b32d",
"R c #605c2e",
"S c #a44430",
"T c #89975f",
"U c #eee664",
"V c #b4613d",
"W c #9e5344",
"X c #20662d",
"Y c #9e533b",
"Z c #7d602e",
"0 c #f4f3a7",
"1 c #cdb87f",
"2 c #ebdf42",
"3 c #80482d",
"4 c #b45e35",
"5 c #b9a774",
"6 c #ccb176",
"7 c #8f512f",
"8 c #733329",
"9 c #42732e",
"! c #f1ed85",
"@ c #d7af3d",
"FFFFFFFFFFFFFFFFFFFFFFFFFFFFFFFF",
"FFFFFFFFFFFFFFFFFFFFFFFFFFFFFFFF",
"FFFFFFFFFFFFFFFFFFFFFFFFFFFFFFFF",
"FFFFFFFFFFFFFFFFFFFFFFFFFFFFFFFF",
"FFFFFFFFFFFFFFFFFFFFFFFFFFFFFFFF",
"FFFFFFFFFFFFFFFFFFFFFFFFFFFFFFFF",
"FFFFFFFFFFFFFFFFFFFFFFFFFFFFFFFF",
"FFFFFFFFFFFFFFFFFFFFFFFFFFFFFFFF",
"FFFFFFFFFFFFFFFFpFFFFFFFFFFFFFFF",
"FFFFFFFFFFFFFFFpSFFFFFFFFFFFFFFF",
"FFFFFFFFFFFFFFFpFFpFFFFFFFFFFFFF",
"FFFFFFFFFFFFpSF4ppSFFFFFFFFFFFFF",
"FFFFFFFFFFFFFpFO4FFFFFFFFFFFFFFF",
"FFFFFFFFFFFF4qZUObbpFFFFFFFFFFFF",
"FFFFFFFFFFbGsmd!UR9dKCFFFFFFFFFF",
"FFFFFFFFCKrD2OUj0@LOfQbCFFFFFFFF",
"FFFFFFFKQfTW2!jjj0!OIorQCFFFFFFF",
"FFFFFFKfoNM8@!jjjjUOEHToQCFFFFFF",
"FFFFFKfNHHMxl20jjU2y1HHHoQCFFFFF",
"FFFFKfNHHHHtcB2U2@P1HHHHHXGFFFFF",
"FFFFGXHHHH67VYJJAhneHHHHHXGFFFFF",
"FFFFbrTHHHug3axxizkveHHHoQCFFFFF",
"FFFFFKfTNH1EixMM5Eac3HHNfKFFFFFF",
"FFFFFFKrfNH11MHHH5EixHNfKFFFFFFF",
"FFFFFFFbQoHHHHHHHH11wTfKFFFFFFFF",
"FFFFFFFFCQXXTTTTTToXfrKFFFFFFFFF",
"FFFFFFFFFCGGrrrrrrQGKbFFFFFFFFFF",
"FFFFFFFFFFFFbbbbbbCFFFFFFFFFFFFF",
"FFFFFFFFFFFFFFFFFFFFFFFFFFFFFFFF",
"FFFFFFFFFFFFFFFFFFFFFFFFFFFFFFFF",
"FFFFFFFFFFFFFFFFFFFFFFFFFFFFFFFF",
"FFFFFFFFFFFFFFFFFFFFFFFFFFFFFFFF",
};
