/* XPM */
static char * image[] = {
/* width height num_colors chars_per_pixel */
"32 32 67 1",
"a c #804432",
"b c #45df2d",
"c c #ae6138",
"d c #927533",
"e c #996c44",
"f c #23802d",
"g c #bd673f",
"h c #af523a",
"i c #713e2b",
"j c #f7fac8",
"k c #a5583b",
"l c #68312a",
"m c #b86862",
"n c #c46b40",
"o c #547e46",
"p c #971f2f",
"q c #27992d",
"r c #b89f6b",
"s c #a48758",
"t c #a65c37",
"u c #aba76f",
"v c #907c57",
"w c #964f3a",
"x c #943534",
"y c #9c8655",
"z c #dab65f",
"A c #794635",
"B c #b25e37",
"C c #43df2b",
"D c #c5865a",
"E c #765137",
"F c #000000",
"G c #39cc2d",
"H c #f5db93",
"I c #852f2d",
"J c #3dd22d",
"K c #8f5c33",
"L c #e1ca89",
"M c #bfb979",
"N c #c27f39",
"O c #30b32d",
"P c #605c2e",
"Q c #89975f",
"R c #9e533b",
"S c #eee664",
"T c #59922d",
"U c #9e5344",
"V c #20662d",
"W c #991f2f",
"X c #5e4d2f",
"Y c #f4f3a7",
"Z c #cdb87f",
"0 c #b4613d",
"1 c #ebdf42",
"2 c #493d29",
"3 c #b45e35",
"4 c #80482d",
"5 c #b9a774",
"6 c #ccb176",
"7 c #8f512f",
"8 c #733329",
"9 c #42732e",
"! c #f1ed85",
"@ c #d7af3d",
"# c #a2785b",
"$ c #3f592e",
"% c #8a4139",
"FFFFFFFFFFFFFFFFFFFFFFFFFFFFFFFF",
"FFFFFFFFFFFFFFFFFFFFFFFFFFFFFFFF",
"FFFFFFFFFFFFFFFFFFFFFFFFFFFFFFFF",
"FFFFFFFFFFFFFFFFFFFFFFFFFFFFFFFF",
"FFFFFFFFFFFFFFFFFFFFFFFFFFFFFFFF",
"FFFFFFFFFFFFFFFFFFFFFFFFFFFFFFFF",
"FFFFFFFFFFFFFFFFFFFFFFFFFFFFFFFF",
"FFFFFFFFFFFFFFFFFFFFFFFFFFFFFFFF",
"FFFFFFFFFFFFFFFFFFFFFFFFFFFFFFFF",
"FFFFFFFFFFFFFFFFFFFFFFFFFFFFFFFF",
"FFFFFFFFFFFFFFFp3FFFFFFFFFFFFFFF",
"FFFFFFFFFFFFFFpzmFFFFFFFFFFFFFFF",
"FFFFFFFFFFFFp3FWpFpFFFFFFFFFFFFF",
"FFFFFFFFFFFpzyb3NbD3FFFFFFFFFFFF",
"FFFFFFFFFFbGPqdSSP9DTCFFFFFFFFFF",
"FFFFFFFFCJq$NK1Y!@2XfObCFFFFFFFF",
"FFFFFFFJOfQU1SYjjS@1loqOCFFFFFFF",
"FFFFFFJfoML8@YjjjjY@AHQoOCFFFFFF",
"FFFFFJfMHHLv%SjjjY@#ZHHHoOCFFFFF",
"FFFFJfMHHHHrcB1!!@AZHHHHHVGFFFFF",
"FFFFGVHHHH670RIIxhneHHHHHVGFFFFF",
"FFFFbqQHHHsg4avviwkteHHHoOCFFFFF",
"FFFFFJfQMHZEivLL5Eac4HHMfJFFFFFF",
"FFFFFFJqfMHZZLHHH5EivHMfJFFFFFFF",
"FFFFFFFbOoHHHHHHHHZZuQfJFFFFFFFF",
"FFFFFFFFCOVVQQQQQQoVfqJFFFFFFFFF",
"FFFFFFFFFCGGqqqqqqOGJbFFFFFFFFFF",
"FFFFFFFFFFFFbbbbbbCFFFFFFFFFFFFF",
"FFFFFFFFFFFFFFFFFFFFFFFFFFFFFFFF",
"FFFFFFFFFFFFFFFFFFFFFFFFFFFFFFFF",
"FFFFFFFFFFFFFFFFFFFFFFFFFFFFFFFF",
"FFFFFFFFFFFFFFFFFFFFFFFFFFFFFFFF",
};
