/* XPM */
static char * image[] = {
/* width height num_colors chars_per_pixel */
"32 32 65 1",
"a c #804432",
"b c #45df2d",
"c c #ae6138",
"d c #927533",
"e c #996c44",
"f c #23802d",
"g c #bd673f",
"h c #ba6338",
"i c #713e2b",
"j c #3a5626",
"k c #f7fac8",
"l c #a5583b",
"m c #ab4337",
"n c #c46b40",
"o c #547e46",
"p c #971f2f",
"q c #6f7f2d",
"r c #27992d",
"s c #b89f6b",
"t c #a48758",
"u c #a65c37",
"v c #726846",
"w c #aba76f",
"x c #907c57",
"y c #964f3a",
"z c #943534",
"A c #b25e37",
"B c #43df2b",
"C c #90754e",
"D c #765137",
"E c #000000",
"F c #39cc2d",
"G c #f5db93",
"H c #5b4528",
"I c #852f2d",
"J c #3dd22d",
"K c #61a02d",
"L c #8f5c33",
"M c #bfb979",
"N c #e1ca89",
"O c #c27f39",
"P c #30b32d",
"Q c #89975f",
"R c #a44430",
"S c #9e533b",
"T c #eee664",
"U c #b4613d",
"V c #9e5344",
"W c #20662d",
"X c #991f2f",
"Y c #7d602e",
"Z c #f4f3a7",
"0 c #4b4729",
"1 c #cdb87f",
"2 c #ebdf42",
"3 c #80482d",
"4 c #b45e35",
"5 c #b9a774",
"6 c #ccb176",
"7 c #8f512f",
"8 c #ab5a36",
"9 c #f1ed85",
"! c #d7af3d",
"@ c #874933",
"# c #8a4139",
"EEEEEEEEEEEEEEEEEEEEEEEEEEEEEEEE",
"EEEEEEEEEEEEEEEEEEEEEEEEEEEEEEEE",
"EEEEEEEEEEEEEEEEEEEEEEEEEEEEEEEE",
"EEEEEEEEEEEEEEEEEEEEEEEEEEEEEEEE",
"EEEEEEEEEEEEEEEEEEEEEEEEEEEEEEEE",
"EEEEEEEEEEEEEEEEEEEEEEEEEEEEEEEE",
"EEEEEEEEEEEEEEEEEEEEEEEEEEEEEEEE",
"EEEEEEEEEEEEEEEEEEEEEEEEEEEEEEEE",
"EEEEEEEEEEEEEEEEpEEEEEEEEEEEEEEE",
"EEEEEEEEEEEEEEEp4EEEEEEEEEEEEEEE",
"EEEEEEEEEEEEp4ERpE4pEEEEEEEEEEEE",
"EEEEEEEEEEEEEpEpERXEEEEEEEEEEEEE",
"EEEEEEEEEEEEpREpEpEEEEEEEEEEEEEE",
"EEEEEEEEEEEEBKq!YbbEEEEEEEEEEEEE",
"EEEEEEEEEEbFPrdTOrrFJBEEEEEEEEEE",
"EEEEEEEEBJrW0LTkTLvjfPbBEEEEEEEE",
"EEEEEEEJPfQV!TkkkT!mHorPBEEEEEEE",
"EEEEEEJfoMNi89kkk98@DGQoPBEEEEEE",
"EEEEEJfMGGNx#2ZkZ2Vx1GGGoPBEEEEE",
"EEEEJfMGGGGscA292hC1GGGGGWFEEEEE",
"EEEEFWGGGG67USIIzUneGGGGGWFEEEEE",
"EEEEbrQGGGtg3axxiylueGGGoPBEEEEE",
"EEEEEJfQMG1DixNN5Dac3GGMfJEEEEEE",
"EEEEEEJrfMG11NGGG5DixGMfJEEEEEEE",
"EEEEEEEbPoGGGGGGGG11wQfJEEEEEEEE",
"EEEEEEEEBPWWQQQQQQoWfrJEEEEEEEEE",
"EEEEEEEEEBFFrrrrrrPFJbEEEEEEEEEE",
"EEEEEEEEEEEEbbbbbbBEEEEEEEEEEEEE",
"EEEEEEEEEEEEEEEEEEEEEEEEEEEEEEEE",
"EEEEEEEEEEEEEEEEEEEEEEEEEEEEEEEE",
"EEEEEEEEEEEEEEEEEEEEEEEEEEEEEEEE",
"EEEEEEEEEEEEEEEEEEEEEEEEEEEEEEEE",
};
