/* XPM */
static char * image[] = {
/* width height num_colors chars_per_pixel */
"32 32 66 1",
"a c #804432",
"b c #45df2d",
"c c #ae6138",
"d c #927533",
"e c #996c44",
"f c #23802d",
"g c #bd673f",
"h c #713e2b",
"i c #3a5626",
"j c #f7fac8",
"k c #a5583b",
"l c #b16d43",
"m c #54a62d",
"n c #86612f",
"o c #b34838",
"p c #c46b40",
"q c #547e46",
"r c #971f2f",
"s c #6f7f2d",
"t c #27992d",
"u c #b89f6b",
"v c #a48758",
"w c #a65c37",
"x c #916742",
"y c #aba76f",
"z c #907c57",
"A c #964f3a",
"B c #943534",
"C c #394c25",
"D c #ae4f34",
"E c #794635",
"F c #b25e37",
"G c #43df2b",
"H c #a13a30",
"I c #87242b",
"J c #765137",
"K c #000000",
"L c #39cc2d",
"M c #835130",
"N c #5b4528",
"O c #852f2d",
"P c #f5db93",
"Q c #3dd22d",
"R c #8f5c33",
"S c #e1ca89",
"T c #bfb979",
"U c #c27f39",
"V c #30b32d",
"W c #89975f",
"X c #9e533b",
"Y c #eee664",
"Z c #b4613d",
"0 c #20662d",
"1 c #991f2f",
"2 c #f4f3a7",
"3 c #cdb87f",
"4 c #ebdf42",
"5 c #80482d",
"6 c #b45e35",
"7 c #b9a774",
"8 c #ccb176",
"9 c #8f512f",
"! c #997f33",
"@ c #f1ed85",
"# c #d7af3d",
"$ c #a2785b",
"KKKKKKKKKKKKKKKKKKKKKKKKKKKKKKKK",
"KKKKKKKKKKKKKKKKKKKKKKKKKKKKKKKK",
"KKKKKKKKKKKKKKKKKKKKKKKKKKKKKKKK",
"KKKKKKKKKKKKKKKKKKKKKKKKKKKKKKKK",
"KKKKKKKKKKKKKKKKKKKKKKKKKKKKKKKK",
"KKKKKKKKKKKKKKKKKKKKKKKKKKKKKKKK",
"KKKKKKKKKKKKKKKKKKKKKKKKKKKKKKKK",
"KKKKKKKKKKKKKKKKKKKKKKKKKKKKKKKK",
"KKKKKKKKKKKKKKKKKKKKKKKKKKKKKKKK",
"KKKKKKKKKKKKKKKKKKKKKKKKKKKKKKKK",
"KKKKKKKKKKKKKKKKrKKKKKKKKKKKKKKK",
"KKKKKKKKKKKKKKK16KKKKKKKKKKKKKKK",
"KKKKKKKKKKKK6rrHrKrKKKKKKKKKKKKK",
"KKKKKKKKKKKKsss#Ub!rKKKKKKKKKKKK",
"KKKKKKKKKKbLVMD4YdnmQGKKKKKKKKKK",
"KKKKKKKKGQt0CR4jj4IifVbGKKKKKKKK",
"KKKKKKKQVfWxoY2jj2UpNqtVGKKKKKKK",
"KKKKKKQfqTShU@jjjj4OJPWqVGKKKKKK",
"KKKKKQfTPPSzlYjjj2#$3PPPqVGKKKKK",
"KKKKQfTPPPPucFY@YUE3PPPPP0LKKKKK",
"KKKKL0PPPP89ZXOOBZpePPPPP0LKKKKK",
"KKKKbtWPPPvg5azzhAkwePPPqVGKKKKK",
"KKKKKQfWTP3JhzSS7Jac5PPTfQKKKKKK",
"KKKKKKQtfTP33SPPP7JhzPTfQKKKKKKK",
"KKKKKKKbVqPPPPPPPP33yWfQKKKKKKKK",
"KKKKKKKKGV00WWWWWWq0ftQKKKKKKKKK",
"KKKKKKKKKGLLttttttVLQbKKKKKKKKKK",
"KKKKKKKKKKKKbbbbbbGKKKKKKKKKKKKK",
"KKKKKKKKKKKKKKKKKKKKKKKKKKKKKKKK",
"KKKKKKKKKKKKKKKKKKKKKKKKKKKKKKKK",
"KKKKKKKKKKKKKKKKKKKKKKKKKKKKKKKK",
"KKKKKKKKKKKKKKKKKKKKKKKKKKKKKKKK",
};
