/* XPM */
static char * image[] = {
/* width height num_colors chars_per_pixel */
"32 32 29 1",
"a c #bc6b4b",
"b c #70805f",
"c c #3c312c",
"d c #5a5237",
"e c #bec49f",
"f c #512d23",
"g c #8dab5f",
"h c #5e724a",
"i c #677755",
"j c #342a25",
"k c #453a35",
"l c #6a7a5a",
"m c #778667",
"n c #4a413c",
"o c #d48757",
"p c #5b3c2c",
"q c #d07753",
"r c #7a2d18",
"s c #695d58",
"t c #000000",
"u c #a3503e",
"v c #96563c",
"w c #834032",
"x c #eb9661",
"y c #645c3f",
"z c #70694f",
"A c #b55945",
"B c #a2a97f",
"C c #aa6c46",
"AxxxxxxxxxxxxxxxxAqxxxxxqqAAqAAA",
"qxxxxxxxxxxxxxxxxqxxxxxxxxxqqqqA",
"qxxxxxxxxxxxxxxxxxxxxxxxxxxxxxxq",
"qxxxxxxxxxxxxxxxxxxxxxxxxxxxxxxx",
"Axxxxxxxxxxxxxxqxxxxxxxxxxxxxxxx",
"Aqxxxxxxxxxxxxxqxxxxxxxxxxxxxxxq",
"qAxxxxxxxxxxxtttttxxxxxxxxxxxxAq",
"xqqqxxxxxxxxtpffpptxxxxxxxxxxqxx",
"xxqqqqqxxxxtppffphhtxxxxxxxxxxxx",
"xxqxxxAqqqtphpfphhhhtxxxxxxxqxxx",
"xxxxxxqqxxthhppihhhhtxxxxxxxqxxx",
"xxxxxxxqxxthipbbiihhtxxxxxxxqxxx",
"xxxxxxxAqxtibpbbbbihtxxxxxxxAqxx",
"xqxxxxxAAqtttbptttbhtxxxxxxxAAqq",
"qAxxxxxqqxtegbpgebbtqxxxxxxxqxxx",
"xqAxxxAqxxtibbpbbbbttqAxxxxqxxxx",
"xxqAAAqxxxtibbbppbhkktqAAqxxxxxx",
"xxxqAqxxxxthBbBbBpckkktAxxxxxxxx",
"xxxxAqxxxxxthBrBrcckkkktxxxxxxxx",
"xxxxqqxxxxxxthrrcccctkkktxxxxxxx",
"xxxxqqxxxxxxxtmccccbkkktxxxxxxxx",
"xxxxqxxxxxxxxtkkjjlkkttqxxxxxxxx",
"xxxxAxxxxxxxxxtkjjlmmtqxxxxxxxxx",
"xxxqAqxxxxxxxxtkjjjjtxqxxxxxxxxx",
"xxxAqqxxxxxxxttyyyyyytxxxxxxxxxx",
"xxxqxxqxxxxxtyyyydyyytxxxxxxxxxx",
"xxqqxxAqxxxxtzzzdtzzztxxxxxxxxxx",
"xxqxxqqAqxxxxtyyyttyyytxxxxxxxxx",
"xxqxxxxxqAAqxrtrntxthhtxxxxxxxxx",
"xqxxxxxxxxxqAtssntxxttxxxxxxxxxx",
"qAxxxxxxxxxxoCCCCwuCCwvooxxxxxxx",
"Aqxxxxxxxxxxxoooouuuuuuaxxxxxxxq",
};
