/* XPM */
static char * image[] = {
/* width height num_colors chars_per_pixel */
"32 32 14 1",
"a c #8f9d84",
"b c #3a2b28",
"c c #2e3f48",
"d c #5f7050",
"e c #2d1e1b",
"f c #000000",
"g c #553d39",
"h c #634a45",
"i c #5f4641",
"j c #e4b5a5",
"k c #554c3c",
"l c #0c0a07",
"m c #657358",
"n c #674e49",
"ffffffffffffffffffffffffffffffff",
"ffffffffffffffffffffffffffffffff",
"ffffffffffffffffffffffffffffffff",
"ffffffffffffffffffffffffffffffff",
"ffffffffffffffffffffffffffffffff",
"ffffffffffffffffffffffffffffffff",
"ffffffffffffffffffffffffffffffff",
"ffffffffffffffffffffffffffffffff",
"ffffffffffffffffffffffffffffffff",
"ffffffffffffffffffffffffffffffff",
"ffffffffffffffffffffffffffffffff",
"ffffffffffffffffffffffffffffffff",
"ffffffffffffffffffffffffffffffff",
"ffffffffffffffffffffffffffffffff",
"ffffffffffffffffffffffffffffffff",
"ffffffffffffffffffffffffffffffff",
"ffffffffffffffffffffffffffffffff",
"ffffffffffffffffffffffffffffffff",
"ffffffffffffffffffffffffffffffff",
"ffffffffffffffffffffffffffffffff",
"ffffffffffffffffffffffffffffffff",
"ffffffffllffffffffffffffffffffff",
"ffffllllgglfffffffffffffffffffff",
"ffflggggillfffffffffffffffffffff",
"fflgiiiiiiglfflllfffffffffffffff",
"ffflninhniiglladalffffffffffffff",
"fflnhhiiihhnnmmmmmlfffffffffffff",
"ffliiniiiinhggbbmmmllllfffffffff",
"flniiinniiinnbbmccccccelffffffff",
"flihiiniiiiiibbbbbbbjkklffffffff",
"flllllllllllllllllllllllffffffff",
"fflllllllllllllllllllllfffffffff",
};
