/* XPM */
static char * image[] = {
/* width height num_colors chars_per_pixel */
"32 32 22 1",
"a c #70805f",
"b c #3c312c",
"c c #a86b45",
"d c #512d23",
"e c #5e724a",
"f c #677755",
"g c #342a25",
"h c #453a35",
"i c #6a7a5a",
"j c #778667",
"k c #4a413c",
"l c #5b3c2c",
"m c #d07753",
"n c #695d58",
"o c #000000",
"p c #a3503e",
"q c #814031",
"r c #eb9661",
"s c #645c3f",
"t c #d38757",
"u c #70694f",
"v c #b55945",
"vrrrrrrrrrrrrrrrrvmrrrrrmmvvmvvv",
"mrrrrrrrrrrrrrrrrmrrrrrrrrrmmmmv",
"mrrrrrrrrrrrrrrrrrrrrrrrrrrrrrrm",
"mrrrrrrrrrrrrrrrrrrrrrrrrrrrrrrr",
"vrrrrrrrrrrrrrrmrrrrrrrrrrrrrrrr",
"vmrrrrrrrrrrrrrmrrrrrrrrrrrrrrrm",
"mvrrrrrrrrrrrrrmrrrrrrrrrrrrrrvm",
"rmmmrrrrrrrooooorrrrrrrrrrrrrmrr",
"rrmmmmmrrrolddddorrrrrrrrrrrrrrr",
"rrmrrrvmmoeeldleeorrrrrrrrrrmrrr",
"rrrrrrmmoeeelleeeeorrrrrrrrrmrrr",
"rrrrrrrmoeeelffeeeorrrrrrrrrmrrr",
"rrrrrrrvoeeflaafeeorrrrrrrrrvmrr",
"rmrrrrrvoefalaaafeomrrrrrrrrvvmm",
"mvrrrrrmofaljjjaafommrrrrrrrmrrr",
"rmvrrrvmoflajjjaaforrmvrrrrmrrrr",
"rrmvvvmrofoogggooorrrrmvvmrrrrrr",
"rrrmvmrrrohgggggggorrrrvrrrrrrrr",
"rrrrvmrrrohgggggggborrrmrrrrrrrr",
"rrrrmmrrrohhggggggbborrmrrrrrrrr",
"rrrrmmrrrrohggggggbhhormrrrrrrrr",
"rrrrmrrrroohhgggigohhommrrrrrrrr",
"rrrrvrrrohhhhbbabbohhomrrrrrrrrr",
"rrrmvmrrojjoobaaabohhomrrrrrrrrr",
"rrrvmmrrrooouuuuuuohhorrrrrrrrrr",
"rrrmrrmrrrosuuuuuuojjorrrrrrrrrr",
"rrmmrrvmrossuusuuoroovrrrrrrrrrr",
"rrmrrmmvmosssoosssomvvrrrrrrrrrr",
"rrmrrrrrmvoeeorokkormvrrrrrrrrrr",
"rmrrrrrrrrroovmonnorrmrrrrrrrrrr",
"mvrrrrrrttcccctccqqttpmrrrrrrrrr",
"vmrrrrrrrttttttttppppvvmrrrrrrrm",
};
