/* XPM */
static char * image[] = {
/* width height num_colors chars_per_pixel */
"32 32 22 1",
"a c #e3e3e3",
"b c #87947c",
"c c #3a2b28",
"d c #dbcbbc",
"e c #6e7d61",
"f c #634a45",
"g c #d2a394",
"h c #b0b0b0",
"i c #d4d4d4",
"j c #362623",
"k c #4c403d",
"l c #000000",
"m c #553d39",
"n c #57636b",
"o c #4c342f",
"p c #554c3c",
"q c #0c0a07",
"r c #657358",
"s c #b56a68",
"t c #425059",
"u c #c0ac98",
"v c #e4b5a5",
"llllllllllllllllllllllllllllllll",
"llllllllllllllllllllllllllllllll",
"llllllllllllllllllllllllllllllll",
"llllllllllllllllllllllllllllllll",
"llllllllllllllllllllllllllllllll",
"llllllllllllllllllllllllllllllll",
"lllllllllllllllqlqqlllllllllllll",
"lllllllllllllqqoqooqqlllllllllll",
"llllllllllllqmffoffmoqqlllllllll",
"lllllllllllllqfffffffomqllllllll",
"llllllllllllqmfffffffmmqllllllll",
"llllllllllllqfooffffffmqllllllll",
"lllllllllllqofgofofffmooqlllllll",
"llllllllllllqfggfgffffoqllllllll",
"llllllllllllqgvgvggfofmmqlllllll",
"lllllllllllqogqvvqggsfmqllllllll",
"llllllllllllqgvvvvggmmmqllllllll",
"lllllllllllllqgvvvgmmmqlllllllll",
"lllllllllllllqqgggqmmqllllllllll",
"llllllllllllqkcuuuceckqlllllllll",
"lllllllllllakkcdducecckallllllll",
"lllllllllllhiacdddcbiaihqlllllll",
"llllllllllllhhiaaaaihhhckqllllll",
"lllllllllllllqhhhhhhreqqvgqlllll",
"lllllllllllllqctttccreqlqqllllll",
"lllllllllllllqnntnntqqllllllllll",
"lllllllllllllqntqtntqlllllllllll",
"lllllllllllllqttqtntqlllllllllll",
"lllllllllllllqjjqjjjqlllllllllll",
"llllllllllllllqpqpppqlllllllllll",
"llllllllllqqqqqqqqqqqqqqllllllll",
"lllllllllllqqqqqqqqqqqqlllllllll",
};
