/* XPM */
static char * image[] = {
/* width height num_colors chars_per_pixel */
"32 32 20 1",
"a c #3a2b28",
"b c #dbcbbc",
"c c #6e7d61",
"d c #634a45",
"e c #d2a394",
"f c #342523",
"g c #291a18",
"h c #362623",
"i c #4c403d",
"j c #000000",
"k c #553d39",
"l c #57636b",
"m c #4c342f",
"n c #554c3c",
"o c #0c0a07",
"p c #657358",
"q c #b56a68",
"r c #425059",
"s c #c0ac98",
"t c #e4b5a5",
"jjjjjjjjjjjjjjjjjjjjjjjjjjjjjjjj",
"jjjjjjjjjjjjjjjjjjjjjjjjjjjjjjjj",
"jjjjjjjjjjjjjjjjjjjjjjjjjjjjjjjj",
"jjjjjjjjjjjjjjjjjjjjjjjjjjjjjjjj",
"jjjjjjjjjjjjjjjjjjjjjjjjjjjjjjjj",
"jjjjjjjjjjjjjjooojojjjjjjjjjjjjj",
"jjjjjjjjjjoooommmomojjjjjjjjjjjj",
"jjjjjjjjjommmkdddmdojjjjjjjjjjjj",
"jjjjjjjjjjokddddddddojjjjjjjjjjj",
"jjjjjjjjjokdddddddddojjjjjjjjjjj",
"jjjjjjjjjokddddmmdddjjjjjjjjjjjj",
"jjjjjjjjommkdddemdmdkjjjjjjjjjjj",
"jjjjjjjjjomdddeeededjjjjjjjjjjjj",
"jjjjjjjjjokddeeoteoekjjjjjjjjjjj",
"jjjjjjjjomkdqeegttgejjjjjjjjjjjj",
"jjjjjjjjjokkkeettttejjjjjjjjjjjj",
"jjjjjjjjjjokkketttejjjjjjjjjjjjj",
"jjjjjjjjjjjokkoeeeojjjjjjjjjjjjj",
"jjjjjjjjjjjoacasssaojjjjjjjjjjjj",
"jjjjjjjjjjocaiabbsaojjjjjjjjjjjj",
"jjjjjjjjjjociiibbbaojjjjjjjjjjjj",
"jjjjjjjjjjocciiabbaojjjjjjjjjjjj",
"jjjjjjjjjjocpfiisbaojjjjjjjjjjjj",
"jjjjjjjjjjocpfttrraojjjjjjjjjjjj",
"jjjjjjjjjjjoorrllllojjjjjjjjjjjj",
"jjjjjjjjjjjjorllrlllojjjjjjjjjjj",
"jjjjjjjjjjjjollrorllojjjjjjjjjjj",
"jjjjjjjjjjjonnoojorrojjjjjjjjjjj",
"jjjjjjjjjjjooojjjohhojjjjjjjjjjj",
"jjjjjjjjjjjjjjjjjohnnojjjjjjjjjj",
"jjjjjjjjjoooooooooooooojjjjjjjjj",
"jjjjjjjjjjoooooooooooojjjjjjjjjj",
};
