/* XPM */
static char * image[] = {
/* width height num_colors chars_per_pixel */
"32 32 30 1",
"a c #e3e3e3",
"b c #87947c",
"c c #3a2b28",
"d c #dbcbbc",
"e c #6e7d61",
"f c #844233",
"g c #634a45",
"h c #d2a394",
"i c #a4513e",
"j c #b0b0b0",
"k c #d4d4d4",
"l c #ab6e47",
"m c #d07753",
"n c #bc6c4b",
"o c #362623",
"p c #4c403d",
"q c #553d39",
"r c #57636b",
"s c #4c342f",
"t c #d48858",
"u c #554c3c",
"v c #d58858",
"w c #0c0a07",
"x c #657358",
"y c #b56a68",
"z c #eb9661",
"A c #425059",
"B c #c0ac98",
"C c #e4b5a5",
"D c #b55945",
"DzzzzzzzzzzzzzzzzDmzzzzzmmDDmDDD",
"mzzzzzzzzzzzzzzzzmzzzzzzzzzmmmmD",
"mzzzzzzzzzzzzzzzzzzzzzzzzzzzzzzm",
"mzzzzzzzzzzzzzzzzzzzzzzzzzzzzzzz",
"Dzzzzzzzzzzzzzzmzzzzzzzzzzzzzzzz",
"Dmzzzzzzzzzzzzzmzzzzzzzzzzzzzzzm",
"mDzzzzzzzzzzzzzwzwwzzzzzzzzzzzDm",
"zmmmzzzzzzzzzwwswsswwzzzzzzzzmzz",
"zzmmmmmzzzzzwqggsggqswwzzzzzzzzz",
"zzmzzzDmmmzzzwgggggggsqwzzzzmzzz",
"zzzzzzmmzzzzwqgggggggqqwzzzzmzzz",
"zzzzzzzmzzzzwgssggggggqwzzzzmzzz",
"zzzzzzzDmzzwsghsgsgggqsswzzzDmzz",
"zmzzzzzDDmmzwghhghggggswzzzzDDmm",
"mDzzzzzmmzzzwhChChhgsgqqwzzzmzzz",
"zmDzzzDmzzzwshwCCwhhygqwzzzmzzzz",
"zzmDDDmzzzzzwhCCCChhqqqwDmzzzzzz",
"zzzmDmzzzzzzzwhCCChqqqwDzzzzzzzz",
"zzzzDmzzzzzzzwwhhhwqqwzmzzzzzzzz",
"zzzzmmzzzzzzwpcBBBcecpwmzzzzzzzz",
"zzzzmmzzzzzappcddBceccpazzzzzzzz",
"zzzzmzzzzzzjkacdddcbkakjwzzzzzzz",
"zzzzDzzzzzzzjjkaaaakjjjcpwzzzzzz",
"zzzmDmzzzzzzzwjjjjjjxewwChwzzzzz",
"zzzDmmzzzzzzzwcAAAccxewzwwzzzzzz",
"zzzmzzmzzzzzzwrrArrAwwzzzzzzzzzz",
"zzmmzzDmzzzzzwrAwArAwDzzzzzzzzzz",
"zzmzzmmDmzzzzwAAwArAwDzzzzzzzzzz",
"zzmzzzzzmDDmzwoowooowDzzzzzzzzzz",
"zmzzzzzzzzzmDDwuwuuuwmzzzzzzzzzz",
"mDzzzzzzzzttvvlllffllintzzzzzzzz",
"Dmzzzzzzzzzttttttiiiiiimzzzzzzzm",
};
