/* XPM */
static char * image[] = {
/* width height num_colors chars_per_pixel */
"32 32 26 1",
"a c #3a2b28",
"b c #dbcbbc",
"c c #6e7d61",
"d c #634a45",
"e c #d2a394",
"f c #342523",
"g c #a4513e",
"h c #291a18",
"i c #ab6e47",
"j c #d07753",
"k c #bc6c4b",
"l c #362623",
"m c #4c403d",
"n c #553d39",
"o c #57636b",
"p c #4c342f",
"q c #d48858",
"r c #554c3c",
"s c #0c0a07",
"t c #657358",
"u c #b56a68",
"v c #eb9661",
"w c #425059",
"x c #c0ac98",
"y c #e4b5a5",
"z c #b55945",
"zvvvvvvvvvvvvvvvvzjvvvvvjjzzjzzz",
"jvvvvvvvvvvvvvvvvjvvvvvvvvvjjjjz",
"jvvvvvvvvvvvvvvvvvvvvvvvvvvvvvvj",
"jvvvvvvvvvvvvvvvvvvvvvvvvvvvvvvv",
"zvvvvvvvvvvvvvvjvvvvvvvvvvvvvvvv",
"zjvvvvvvvvvvvvvsvssvvvvvvvvvvvvj",
"jzvvvvvvvvvvvsspsppssvvvvvvvvvzj",
"vjjjvvvvvvvvsnddpddnpssvvvvvvjvv",
"vvjjjjjvvvvvvsdddddddpnsvvvvvvvv",
"vvjvvvzjjjvvsndddddddnnsvvvvjvvv",
"vvvvvvjjvvvvsdppddddddnsvvvvjvvv",
"vvvvvvvjvvvspdepdpdddnppsvvvjvvv",
"vvvvvvvzjvvvsdeededdddpsvvvvzjvv",
"vjvvvvvzzjjvseseysedpdnnsvvvzzjj",
"jzvvvvvjjvvspehyyheeudnsvvvvjvvv",
"vjzvvvzjvvvvseyyyyeennnsvvvjvvvv",
"vvjzzzjvvvvvvseyyyennnszzjvvvvvv",
"vvvjzjvvvvvvvvseeesnnsvzvvvvvvvv",
"vvvvzjvvvvvvvsaxxxacasvjvvvvvvvv",
"vvvvjjvvvvvvvsabbxamacsjvvvvvvvv",
"vvvvjjvvvvvvvsabbbmmmcsjvvvvvvvv",
"vvvvjvvvvvvvvsaxbammccsjvvvvvvvv",
"vvvvzvvvvvvvvsabxmmftcsvvvvvvvvv",
"vvvjzjvvvvvvvsawwyyftcsvvvvvvvvv",
"vvvzjjvvvvvvvsoooowwssvvvvvvvvvv",
"vvvjvvjvvvvvsooowoowszvvvvvvvvvv",
"vvjjvvzjvvvvsoowswooszvvvvvvvvvv",
"vvjvvjjzjvvvswwsvssrrsvvvvvvvvvv",
"vvjvvvvvjzzjsllsvjvsssvvvvvvvvvv",
"vjvvvvvvvvvsrrlsjjvvvjvvvvvvvvvv",
"jzvvvvvvvvqqiiiqqggiigkqvvvvvvvv",
"zjvvvvvvvvvqqqqqqggggggjvvvvvvvj",
};
