/* XPM */
static char * image[] = {
/* width height num_colors chars_per_pixel */
"32 32 25 1",
"a c #3a2b28",
"b c #dbcbbc",
"c c #6e7d61",
"d c #844233",
"e c #634a45",
"f c #d2a394",
"g c #a4513e",
"h c #291a18",
"i c #ab6e47",
"j c #d07753",
"k c #bc6c4b",
"l c #362623",
"m c #4c403d",
"n c #553d39",
"o c #57636b",
"p c #4c342f",
"q c #d48858",
"r c #554c3c",
"s c #0c0a07",
"t c #b56a68",
"u c #eb9661",
"v c #425059",
"w c #c0ac98",
"x c #e4b5a5",
"y c #b55945",
"yuuuuuuuuuuuuuuuuyjuuuuujjyyjyyy",
"juuuuuuuuuuuuuuuujuuuuuuuuujjjjy",
"juuuuuuuuuuuuuuuuuuuuuuuuuuuuuuj",
"juuuuuuuuuuuuuuuuuuuuuuuuuuuuuuu",
"yuuuuuuuuuuuuuusussuuuuuuuuuuuuu",
"yjuuuuuuuuuuusspsppssuuuuuuuuuuj",
"jyuuuuuuuuuusneepeenpssuuuuuuuyj",
"ujjjuuuuuuuuuseeeeeeepnsuuuuujuu",
"uujjjjjuuuuusneeeeeeennsuuuuuuuu",
"uujuuuyjjjuuseppeeeeeensuuuujuuu",
"uuuuuujjuuuspefpepeeenppsuuujuuu",
"uuuuuuujuuuuseffefeeeepsuuuujuuu",
"uuuuuuuyjuuusfsfxsfepennsuuuyjuu",
"ujuuuuuyyjjspfhxxhfftensuuuuyyjj",
"jyuuuuujjuuusfxxxxffnnnsuuuujuuu",
"ujyuuuyjuuuuusfxxxfnnnsuuuujuuuu",
"uujyyyjuuuuuuusfffsnnsjyyjuuuuuu",
"uuujyjuuuuuuusawwwacasuyuuuuuuuu",
"uuuuyjuuuuuuusabbwmmacsjuuuuuuuu",
"uuuujjuuuuuuusabbbamacsjuuuuuuuu",
"uuuujjuuuuuuusawbbamacsjuuuuuuuu",
"uuuujuuuuuuuusabwbamacsjuuuuuuuu",
"uuuuyuuuuuuuusavvvaxxcsuuuuuuuuu",
"uuujyjuuuuuuusvvvvvvssjuuuuuuuuu",
"uuuyjjuuuuuuusoooovvsjuuuuuuuuuu",
"uuujuujuuuuuusoovoovsyuuuuuuuuuu",
"uujjuuyjuuuuusovsvovsyuuuuuuuuuu",
"uujuujjyjuuuusvvsvovsyuuuuuuuuuu",
"uujuuuuujyyjusrrslllsyuuuuuuuuuu",
"ujuuuuuuuuujyysssrrrsjuuuuuuuuuu",
"jyuuuuuuuuqqqqiiqddiqgkquuuuuuuu",
"yjuuuuuuuuuqqqqqqggggggjuuuuuuuj",
};
