/* XPM */
static char * image[] = {
/* width height num_colors chars_per_pixel */
"32 32 16 1",
"a c #d6d6d6",
"b c #c9c9c9",
"c c #9597a1",
"d c #aeafb6",
"e c #97989c",
"f c #d0d0d0",
"g c #000000",
"h c #73747b",
"i c #d2d1d1",
"j c #919090",
"k c #dedede",
"l c #7e7e7e",
"m c #93949e",
"n c #4e4e4e",
"o c #ababab",
"p c #6d6f7d",
"gggggggggggggggggggggggggggggggg",
"ggggggggggggnnnnnnnnlggggggggggg",
"ggggggggggnnnnnnhhheoolggggggggg",
"ggggggggnnnnnnhhbbfffaoojggggggg",
"gggggggnncnnhhbbbfffffainngggggg",
"ggggggnnpnnhbbbheeeeebbbbnnggggg",
"gggggnncnnhbbhedddddchhbbbnngggg",
"gggggnppnhbhhedddddccchhhbblgggg",
"ggggnncnnhbhddddddbkcccchhfllggg",
"ggggnppnhbhdddddehbkhccccefflggg",
"gggnncnnhbedddekhkbkkhkcdefbnngg",
"gggnppnhbedddekckbccbkckddhbbngg",
"ggnncnnefeddehbbbbbbbffkechbbnlg",
"ggnppnefedddhhhhhhhheeeehhchbflg",
"ggncclefeddchhhhhkbfffehhhcefflg",
"ggnpmlefedchhhhhkkfffbbhhhdefflg",
"ggnddlefhcchhhhkkddfbcchhddefflg",
"ggnmmlebhcchhbhkdeebbhhedddefflg",
"ggnddlhbhcchhbekekhbbhfedddefflg",
"ggnlmnnhbhchhkekkkcbbdfeedeffllg",
"ggglccnhbhceeeekkkkffffeedefflgg",
"gggnnpnnhbeeeehkkkkkfffeeeffllgg",
"ggggnccnhfeeehhhkkkeefeeeefflggg",
"ggggnnpnlefhchheekkkkkedeefllggg",
"gggggnddlebhhhdeedddddeeefflgggg",
"gggggllmlnhbbeeddddddeeffflngggg",
"ggggggllcnnefffeeeeeeffffnnggggg",
"gggggggnnplleeffffffffffnngggggg",
"ggggggggnllllleefffffflnnggggggg",
"gggggggggglllllleeeelnnggggggggg",
"ggggggggggggllllllllnggggggggggg",
"gggggggggggggggggggggggggggggggg",
};
