/* XPM */
static char * image[] = {
/* width height num_colors chars_per_pixel */
"32 32 21 1",
"a c #70805f",
"b c #3c312c",
"c c #5a5237",
"d c #bec49f",
"e c #512d23",
"f c #8dab5f",
"g c #5e724a",
"h c #677755",
"i c #342a25",
"j c #453a35",
"k c #6a7a5a",
"l c #778667",
"m c #4a413c",
"n c #5b3c2c",
"o c #7a2d18",
"p c #695d58",
"q c #000000",
"r c #7c8a6e",
"s c #60583c",
"t c #645c3f",
"u c #a2a97f",
"qqqqqqqqqqqqqqqqqqqqqqqqqqqqqqqq",
"qqqqqqqqqqqqqqqqqqqqqqqqqqqqqqqq",
"qqqqqqqqqqqqqqqqqqqqqqqqqqqqqqqq",
"qqqqqqqqqqqqqqqqqqqqqqqqqqqqqqqq",
"qqqqqqqqqqqqqqqqqqqqqqqqqqqqqqqq",
"qqqqqqqqqqqqqneeeeqqqqqqqqqqqqqq",
"qqqqqqqqqqqqngneengqqqqqqqqqqqqq",
"qqqqqqqqqqqengnengggqqqqqqqqqqqq",
"qqqqqqqqqqqengnnhgggqqqqqqqqqqqq",
"qqqqqqqqqqqnghnaahggqqqqqqqqqqqq",
"qqqqqqqqqqqghanaaahgqqqqqqqqqqqq",
"qqqqqqqqqqqhqqanaqqhqqqqqqqqqqqq",
"qqqqqqqqqqqhdfanafdhqqqqqqqqqqqq",
"qqqqqqqqqqqaaaaanaaaqqqqqqqqqqqq",
"qqqqqqqqqqqgaaaaanagqqqqqqqqqqqq",
"qqqqqqqqqqqqguauaunqqqqqqqqqqqqq",
"qqqqqqqqqqqjbguouobjqqqqqqqqqqqq",
"qqqqqqqqqqjjbbgoobbjjqqqqqqqqqqq",
"qqqqqqqqqqjjbbbbbbbjjqqqqqqqqqqq",
"qqqqqqqqqqebbbbbbbbjjqqqqqqqqqqq",
"qqqqqqqqqmmeibbobaijjqqqqqqqqqqq",
"qqqqqqqqqrrbqiiikkqjjqqqqqqqqqqq",
"qqqqqqqqqqqqqiiikiqjjqqqqqqqqqqq",
"qqqqqqqqqqqqqiiiiijjqqqqqqqqqqqq",
"qqqqqqqqqqqqtttttsjjqqqqqqqqqqqq",
"qqqqqqqqqqqqtttctsllqqqqqqqqqqqq",
"qqqqqqqqqqqqttcqctsqqqqqqqqqqqqq",
"qqqqqqqqqqqqttqqqttqqqqqqqqqqqqq",
"qqqqqqqqqqqqmmqqqkkqqqqqqqqqqqqq",
"qqqqqqqqqqqppmqqqkaaqqqqqqqqqqqq",
"qqqqqqqqqqqqqqqqqqqqqqqqqqqqqqqq",
"qqqqqqqqqqqqqqqqqqqqqqqqqqqqqqqq",
};
