/* XPM */
static char * image[] = {
/* width height num_colors chars_per_pixel */
"32 32 28 1",
"a c #70805f",
"b c #3c312c",
"c c #5a5237",
"d c #2d2420",
"e c #a86b45",
"f c #bec49f",
"g c #512d23",
"h c #8dab5f",
"i c #5e724a",
"j c #677755",
"k c #342a25",
"l c #453a35",
"m c #6a7a5a",
"n c #778667",
"o c #4a413c",
"p c #5b3c2c",
"q c #d07753",
"r c #7a2d18",
"s c #695d58",
"t c #000000",
"u c #a3503e",
"v c #814031",
"w c #eb9661",
"x c #60583c",
"y c #645c3f",
"z c #d38757",
"A c #b55945",
"B c #a2a97f",
"AwwwwwwwwwwwwwwwwAqwwwwwqqAAqAAA",
"qwwwwwwwwwwwwwwwwqwwwwwwwwwqqqqA",
"qwwwwwwwwwwwwwwwwwwwwwwwwwwwwwwq",
"qwwwwwwwwwwwwwwwwwwwwwwwwwwwwwww",
"Awwwwwwwwwwwtttttwwwwwwwwwwwwwww",
"Aqwwwwwwwwwtpggpptwwwwwwwwwwwwwq",
"qAwwwwwwwwtppggpiitwwwwwwwwwwwAq",
"wqqqwwwwwtpipgpiiiitwwwwwwwwwqww",
"wwqqqqqwwtiippjiiiitwwwwwwwwwwww",
"wwqwwwAqqtijpaajjiitwwwwwwwwqwww",
"wwwwwwqqwtjapaaaajitwwwwwwwwqwww",
"wwwwwwwqwtttaptttaitwwwwwwwwqwww",
"wwwwwwwAqtfhaphfaatwwwwwwwwwAqww",
"wqwwwwwAAtjaapaaaatqwwwwwwwwAAqq",
"qAwwwwwqqtjaaappaitqqwwwwwwwqwww",
"wqAwwwAqwtiBaBaBptttwqAwwwwqwwww",
"wwqAAAqwwttiBrBrnbootwqAAqwwwwww",
"wwwqAqwwtagkirrooolltwwAwwwwwwww",
"wwwwAqttbkmoooolllddtwwqwwwwwwww",
"wwwwqtkkklllllldddbtwwwqwwwwwwww",
"wwwwqtmmtnnttrbbbabtwwwqwwwwwwww",
"wwwwqwttwttwtkkkmmktwwqqwwwwwwww",
"wwwwAwwwwwwwwtkkmkktwwqwwwwwwwww",
"wwwqAqwwwwwwwtkkkkktwwqwwwwwwwww",
"wwwAqqwwwwwwtyyyyyyctqwwwwwwwwww",
"wwwqwwqwwwwwtyycyyyctAwwwwwwwwww",
"wwqqwwAqwwwwtyxtyyytqAwwwwwwwwww",
"wwqwwqqAqwwwtyytyyytAAwwwwwwwwww",
"wwqwwwwwqAAqtootmmmtqAwwwwwwwwww",
"wqwwwwwwwwwtssotaaatwqwwwwwwwwww",
"qAwwwzzzzzzeeeeeevvezAqwwwwwwwww",
"AqwwwwzzzzzzzzzzzuuuAAAqwwwwwwwq",
};
