/* XPM */
static char * image[] = {
/* width height num_colors chars_per_pixel */
"32 32 27 1",
"a c #70805f",
"b c #3c312c",
"c c #5a5237",
"d c #2d2420",
"e c #a86b45",
"f c #bec49f",
"g c #512d23",
"h c #5e724a",
"i c #677755",
"j c #342a25",
"k c #453a35",
"l c #6a7a5a",
"m c #778667",
"n c #4a413c",
"o c #5b3c2c",
"p c #d07753",
"q c #7a2d18",
"r c #695d58",
"s c #000000",
"t c #a3503e",
"u c #814031",
"v c #eb9661",
"w c #60583c",
"x c #645c3f",
"y c #d38757",
"z c #b55945",
"A c #a2a97f",
"zvvvvvvvvvvvvvvvvzpvvvvvppzzpzzz",
"pvvvvvvvvvvvvvvvvpvvvvvvvvvppppz",
"pvvvvvvvvvvvvvvvvvvvvvvvvvvvvvvp",
"pvvvvvvvvvvvvvvvvvvvvvvvvvvvvvvv",
"zvvvvvvvvvvvvvvpvvvvvvvvvvvvvvvv",
"zpvvvvvvvvvvsssssvvvvvvvvvvvvvvp",
"pzvvvvvvvvvsoggoosvvvvvvvvvvvvzp",
"vpppvvvvvvsooggohhsvvvvvvvvvvpvv",
"vvpppppvvsohogohhhhsvvvvvvvvvvvv",
"vvpvvvzppshhooihhhhsvvvvvvvvpvvv",
"vvvvvvppvshioaaiihhsvvvvvvvvpvvv",
"vvvvvvvpvsiaoaaaaihsvvvvvvvvpvvv",
"vvvvvvvzpsssaosssahsvvvvvvvvzpvv",
"vpvvvvvzzsfnnnnfaaspvvvvvvvvzzpp",
"pzvvvvvppsimmknaaasppvvvvvvvpvvv",
"vpzvvvzpvsiakknoahsvvpzvvvvpvvvv",
"vvpzzzpvvshAaknAosssvvpzzpvvvvvv",
"vvvpzpvvssshAknqmbnksvvzvvvvvvvv",
"vvvvzpssbblghknannkksvvpvvvvvvvv",
"vvvvpsbbjjssbkknkkkdsvvpvvvvvvvv",
"vvvvpsllssvvsdkkkddsvvvpvvvvvvvv",
"vvvvpvssvvvvsbdddajsvvppvvvvvvvv",
"vvvvzvvvvvvvvsjdljjsvvpvvvvvvvvv",
"vvvpzpvvvvvvvsdddddsvvpvvvvvvvvv",
"vvvzppvvvvvvsxxxxxxcspvvvvvvvvvv",
"vvvpvvpvvvvvsqxcxxxcszvvvvvvvvvv",
"vvppvvzpvvvvsxwsxxxspzvvvvvvvvvv",
"vvpvvppzpvvvsxxsxxxszzvvvvvvvvvv",
"vvpvvvvvpzzpsnnslllspzvvvvvvvvvv",
"vpvvvvvvvvvsrrnsaaasvpvvvvvvvvvv",
"pzvvvyyyyyyeeeeeeuueyzpvvvvvvvvv",
"zpvvvvyyyyyyyyyyytttzzzpvvvvvvvp",
};
