/* XPM */
static char * image[] = {
/* width height num_colors chars_per_pixel */
"32 32 31 1",
"a c #97a48a",
"b c #70805f",
"c c #3c312c",
"d c #5a5237",
"e c #2d2420",
"f c #a86b45",
"g c #bec49f",
"h c #512d23",
"i c #8dab5f",
"j c #5e724a",
"k c #677755",
"l c #342a25",
"m c #453a35",
"n c #6a7a5a",
"o c #778667",
"p c #4a413c",
"q c #5b3c2c",
"r c #d07753",
"s c #7a2d18",
"t c #695d58",
"u c #000000",
"v c #a3503e",
"w c #814031",
"x c #a5b09b",
"y c #7c8a6e",
"z c #eb9661",
"A c #60583c",
"B c #645c3f",
"C c #d38757",
"D c #b55945",
"E c #a2a97f",
"DzzzzzzzzzzzzzzzzDrzzzzzrrDDrDDD",
"rzzzzzzzzzzzzzzzzrzzzzzzzzzrrrrD",
"rzzzzzzzzzzzzzzzzzzzzzzzzzzzzzzr",
"rzzzzzzzzzzzzzzzzzzzzzzzzzzzzzzz",
"Dzzzzzzzzzzzzzzrzzzzzzzzzzzzzzzz",
"Drzzzzzzzzzzuuuuuzzzzzzzzzzzzzzr",
"rDzzzzzzzzzuqhhqquzzzzzzzzzzzzDr",
"zrrrzzzzzzuqqhhqjjuzzzzzzzzzzrzz",
"zzrrrrrzzuqjqhqjjjjuzzzzzzzzzzzz",
"zzrzzzDrrujjqqkjjjjuzzzzzzzzrzzz",
"zzzzzzrrzujkqbbkkjjuzzzzzzzzrzzz",
"zzzzzzzrzukbqbbbbkjuzzzzzzzzrzzz",
"zzzzzzzDruuubquuubjuzzzzzzzzDrzz",
"zrzzzzzDDugibqigbburzzzzzzzzDDrr",
"rDzzzzzrruaxbqbbbburrzzzzzzzrzzz",
"zrDzzzDrzakbbbqqbjuzzrDzzzzrzzzz",
"zzrDDDrzaxjEbEbEquuuzzrDDrzzzzzz",
"zzzrDrzaxuujEsEsocpmuzzDzzzzzzzz",
"zzzzDruaxcnhjssbcppmuzzrzzzzzzzz",
"zzzzrucaxluuccccpmmeuzzrzzzzzzzz",
"zzzzrunaxuzzuccpmmeuzzzrzzzzzzzz",
"zzzzrzuaxzzzuccpmbcuzzrrzzzzzzzz",
"zzzzDzzaxzzzzupmnlluzzrzzzzzzzzz",
"zzzrDrzaxzzzupmeeeeuzzrzzzzzzzzz",
"zzzDrrzzaxzummBBBBBdurzzzzzzzzzz",
"zzzrzzrzaxuyysBdBBBduDzzzzzzzzzz",
"zzrrzzDrzaxooBAuBBBurDzzzzzzzzzz",
"zzrzzrrDraxuuBBuBBBuDDzzzzzzzzzz",
"zzrzzzzzrDaxuppunnnurDzzzzzzzzzz",
"zrzzzzzzzzzuttpubbbuzrzzzzzzzzzz",
"rDzzzCCCCCCffffffwwfCDrzzzzzzzzz",
"DrzzzzCCCCCCCCCCCvvvDDDrzzzzzzzr",
};
