/* XPM */
static char * image[] = {
/* width height num_colors chars_per_pixel */
"32 32 30 1",
"a c #97a48a",
"b c #70805f",
"c c #3c312c",
"d c #5a5237",
"e c #2d2420",
"f c #a86b45",
"g c #bec49f",
"h c #512d23",
"i c #8dab5f",
"j c #5e724a",
"k c #677755",
"l c #342a25",
"m c #453a35",
"n c #6a7a5a",
"o c #778667",
"p c #4a413c",
"q c #5b3c2c",
"r c #d07753",
"s c #7a2d18",
"t c #695d58",
"u c #000000",
"v c #a3503e",
"w c #814031",
"x c #a5b09b",
"y c #eb9661",
"z c #60583c",
"A c #645c3f",
"B c #d38757",
"C c #b55945",
"D c #a2a97f",
"CyyyyyyyyyyyyyyyyCryyyyyrrCCrCCC",
"ryyyyyyyyyyyyyyyyryyyyyyyyyrrrrC",
"ryyyyyyyyyyyyyyyyyyyyyyyyyyyyyyr",
"ryyyyyyyyyyyyyyyyyyyyyyyyyyyyyyy",
"Cyyyyyyyyyyyyyyryyyyyyyyyyyyyyyy",
"Cryyyyyyyyyyuuuuuyyyyyyyyyyyyyyr",
"rCyyyyyyyyyuqhhqquyyyyyyyyyyyyCr",
"yrrryyyyyyuqqhhqjjuyyyyyyyyyyryy",
"yyrrrrryyuqjqhqjjjjuyyyyyyyyyyyy",
"yyryyyCrrujjqqkjjjjuyyyyyyyyryyy",
"yyyyyyrryujkqbbkkjjuyyyyyyyyryyy",
"yyyyyyyryukbqbbbbkjuyyyyyyyyryyy",
"yyyyyyyCruuubquuubjuyyyyyyyyCryy",
"yryyyyaxCugibqigbburyyyyyyyyCCrr",
"rCyyyayrrukbbqbbbburryyyyyyyryyy",
"yrCyaxCryukbbbqqbjuyyrCyyyyryyyy",
"yyraxCryyujDbDbDquuuyyrCCryyyyyy",
"yyyaxryyyyujDsDsocppuyyCyyyyyyyy",
"yyyaxryyyyucjsspppmmuyyryyyyyyyy",
"yyyaxryyyyuhlppmmmeeuyyryyyyyyyy",
"yyyaxryyyubppmmeeecuyyyryyyyyyyy",
"yyyaxyyyuppmmecccbcuyyrryyyyyyyy",
"yyyaxyyyuccuuullnlluyyryyyyyyyyy",
"yyyraxyucluyyueeeeeuyyryyyyyyyyy",
"yyyCaxuccluyuAAAAAAduryyyyyyyyyy",
"yyyryaxnnuyyuAAdAAAduCyyyyyyyyyy",
"yyrryaxuuyyyuAzuAAAurCyyyyyyyyyy",
"yyryyraxryyyuAAuAAAuCCyyyyyyyyyy",
"yyryyyyyrCCrspsunnnurCyyyyyyyyyy",
"yryyyyyyyyyutttubbbuyryyyyyyyyyy",
"rCyyyyBBBBBffffffwwfBCryyyyyyyyy",
"CryyyyyBBBBBBBBBBvvvCCCryyyyyyyr",
};
