/* XPM */
static char * image[] = {
/* width height num_colors chars_per_pixel */
"32 32 25 1",
"a c #70805f",
"b c #3c312c",
"c c #5a5237",
"d c #bec49f",
"e c #512d23",
"f c #8dab5f",
"g c #5e724a",
"h c #677755",
"i c #342a25",
"j c #453a35",
"k c #6a7a5a",
"l c #778667",
"m c #d48757",
"n c #5b3c2c",
"o c #d07753",
"p c #7a2d18",
"q c #000000",
"r c #a3503e",
"s c #834032",
"t c #eb9661",
"u c #645c3f",
"v c #70694f",
"w c #b55945",
"x c #a2a97f",
"y c #aa6c46",
"wttttttttttttttttwotttttoowwowww",
"ottttttttttttttttotttttttttoooow",
"otttttttttttttttttttttttttttttto",
"ottttttttttttttttttttttttttttttt",
"wttttttttttttttotttttttttttttttt",
"wottttttttttqqqqqtttttttttttttto",
"owtttttttttqneennqttttttttttttwo",
"tooottttttqnneenggqttttttttttott",
"ttooooottqngnenggggqtttttttttttt",
"ttotttwooqggnnhggggqttttttttottt",
"ttttttootqghnaahhggqttttttttottt",
"tttttttotqhanaaaahgqttttttttottt",
"tttttttwoqqqanqqqagqttttttttwott",
"totttttwwqdfanfdaaqottttttttwwoo",
"owtttttooqhaanaaaaqootttttttottt",
"towtttwotqhaaannagqttowttttotttt",
"ttowwwottqgxaxaxnbjqttowwotttttt",
"tttowottttqgxpxpbbjjqttwtttttttt",
"ttttwottttqbgppbbbjjqttotttttttt",
"ttttoottttqlbbbbbbjjqttotttttttt",
"ttttoottttqjbpbbbajjqttotttttttt",
"ttttotttttqjjiiikkjjqtootttttttt",
"ttttwtttttqjjqiikijjqtottttttttt",
"tttowottttqjjqiiiijjqtottttttttt",
"tttwoottttqlluuuuullqotttttttttt",
"tttottottttqquucuuucqwtttttttttt",
"ttoottwottttqvuvvvcqowtttttttttt",
"ttottoowottttqcuucqowwtttttttttt",
"ttotttttowwottqkkqttowtttttttttt",
"totttttttttowqllkqtttotttttttttt",
"owtttttttmmmmyyyysrmmwottttttttt",
"wottttttttmmmmmmmrrrwwwottttttto",
};
