/* XPM */
static char * image[] = {
/* width height num_colors chars_per_pixel */
"32 32 28 1",
"a c #70805f",
"b c #3c312c",
"c c #5a5237",
"d c #2d2420",
"e c #bec49f",
"f c #512d23",
"g c #8dab5f",
"h c #5e724a",
"i c #677755",
"j c #342a25",
"k c #453a35",
"l c #6a7a5a",
"m c #778667",
"n c #4a413c",
"o c #d48757",
"p c #5b3c2c",
"q c #d07753",
"r c #7a2d18",
"s c #695d58",
"t c #000000",
"u c #a3503e",
"v c #834032",
"w c #eb9661",
"x c #645c3f",
"y c #70694f",
"z c #b55945",
"A c #a2a97f",
"B c #aa6c46",
"zwwwwwwwwwwwwwwwwzqwwwwwqqzzqzzz",
"qwwwwwwwwwwwwwwwwqwwwwwwwwwqqqqz",
"qwwwwwwwwwwwwwwwwwwwwwwwwwwwwwwq",
"qwwwwwwwwwwwwwwwwwwwwwwwwwwwwwww",
"zwwwwwwwwwwwwwwqwwwwwwwwwwwwwwww",
"zqwwwwwwwwwwwwwqwwwwwwwwwwwwwwwq",
"qzwwwwwwwwwwwwwqwwwwwwwwwwwwwwzq",
"wqqqwwwwwwwtttttwwwwwwwwwwwwwqww",
"wwqqqqqwwwtpffpptwwwwwwwwwwwwwww",
"wwqwwwzqqtppffphhtwwwwwwwwwwqwww",
"wwwwwwqqtphpfphhhhtwwwwwwwwwqwww",
"wwwwwwwqthhppihhhhtwwwwwwwwwqwww",
"wwwwwwwzthipaaiihhtwwwwwwwwwzqww",
"wqwwwwwztiapaaaaihtqwwwwwwwwzzqq",
"qzwwwwwqtttaptttahtqqwwwwwwwqwww",
"wqzwwwzqtegapgeaatwwwqzwwwwqwwww",
"wwqzzzqwtiaapaaaattwwwqzzqwwwwww",
"wwwqzqwwtiaaappahbktwwwzwwwwwwww",
"wwwwzqwwthAaAaApbbkktwwqwwwwwwww",
"wwwwqqwwwthArArbbbkktwwqwwwwwwww",
"wwwwqqwwwwthrrbbbbkktwwqwwwwwwww",
"wwwwqwwwwwtkbbbbbakktwqqwwwwwwww",
"wwwwzwwwwwtkkjjjljkktwqwwwwwwwww",
"wwwqzqwwwwtkkrddddkktwqwwwwwwwww",
"wwwzqqwwwwtkkxxxxxkktqwwwwwwwwww",
"wwwqwwqwwwtmmxxcxxmmtzwwwwwwwwww",
"wwqqwwzqwwwttyxyyycntzwwwwwwwwww",
"wwqwwqqzqwwwwttxxctstzwwwwwwwwww",
"wwqwwwwwqzzqwwtlltwtqzwwwwwwwwww",
"wqwwwwwwwwwqztmmltwwwqwwwwwwwwww",
"qzwwwwwwoooooBBBBvvBBzqwwwwwwwww",
"zqwwwwwwwoooooooouuuzzzqwwwwwwwq",
};
