/* XPM */
static char * image[] = {
/* width height num_colors chars_per_pixel */
"32 32 25 1",
"a c #70805f",
"b c #3c312c",
"c c #5a5237",
"d c #2d2420",
"e c #bec49f",
"f c #512d23",
"g c #8dab5f",
"h c #5e724a",
"i c #677755",
"j c #342a25",
"k c #453a35",
"l c #6a7a5a",
"m c #778667",
"n c #d48757",
"o c #5b3c2c",
"p c #d07753",
"q c #7a2d18",
"r c #000000",
"s c #a3503e",
"t c #eb9661",
"u c #645c3f",
"v c #70694f",
"w c #b55945",
"x c #a2a97f",
"y c #aa6c46",
"wttttttttttttttttwptttttppwwpwww",
"pttttttttttttttttptttttttttppppw",
"pttttttttttttttttttttttttttttttp",
"pttttttttttttttttttttttttttttttt",
"wttttttttttttttptttttttttttttttt",
"wptttttttttttttptttttttttttttttp",
"pwtttttttttrrrrrttttttttttttttwp",
"tpppttttttroffoorttttttttttttptt",
"ttpppppttrooffohhrtttttttttttttt",
"ttptttwprohofohhhhrtttttttttpttt",
"ttttttpprhhooihhhhrtttttttttpttt",
"tttttttprhioaaiihhrtttttttttpttt",
"tttttttwriaoaaaaihrtttttttttwptt",
"tptttttwrrraorrrahrpttttttttwwpp",
"pwtttttpregaogeaartpptttttttpttt",
"tpwtttwpriaaoaaaarrttpwttttptttt",
"ttpwwwptriaaaooahbkrttpwwptttttt",
"tttpwpttrhxaxaxobkkrtttwtttttttt",
"ttttwptttrhxqxqbbkkrtttptttttttt",
"ttttpptttrfhqqbbbkkrtttptttttttt",
"ttttpptttrfbbbbbbkkrtttptttttttt",
"ttttptttrkmrjjjlkkrtttpptttttttt",
"ttttwtttrkkrrjjlkkrtttpttttttttt",
"tttpwpttrkkrrdddkkrtttpttttttttt",
"tttwppttrkkruuuukkcrtptttttttttt",
"tttpttptrmmruucummcrtwtttttttttt",
"ttppttwptrrrvuvvvcrtpwtttttttttt",
"ttpttppwptttrquucrtpwwtttttttttt",
"ttptttttpwwptrllrpttpwtttttttttt",
"tptttttttttprmmlrptttptttttttttt",
"pwttttttnnnnyyyyyssntwpttttttttt",
"wptttttttnnnnnnnnsswwwwptttttttp",
};
