/* XPM */
static char * image[] = {
/* width height num_colors chars_per_pixel */
"32 32 28 1",
"a c #70805f",
"b c #3c312c",
"c c #5a5237",
"d c #bec49f",
"e c #512d23",
"f c #8dab5f",
"g c #5e724a",
"h c #677755",
"i c #342a25",
"j c #453a35",
"k c #6a7a5a",
"l c #778667",
"m c #4a413c",
"n c #d48757",
"o c #5b3c2c",
"p c #d07753",
"q c #7a2d18",
"r c #695d58",
"s c #000000",
"t c #a3503e",
"u c #834032",
"v c #eb9661",
"w c #60583c",
"x c #645c3f",
"y c #70694f",
"z c #b55945",
"A c #a2a97f",
"B c #aa6c46",
"zvvvvvvvvvvvvvvvvzpvvvvvppzzpzzz",
"pvvvvvvvvvvvvvvvvpvvvvvvvvvppppz",
"pvvvvvvvvvvvvvvvvvvvvvvvvvvvvvvp",
"pvvvvvvvvvvvvvvvvvvvvvvvvvvvvvvv",
"zvvvvvvvvvvvvvvpvvvvvvvvvvvvvvvv",
"zpvvvvvvvvssssspvvvvvvvvvvvvvvvp",
"pzvvvvvvvsoeeoosvvvvvvvvvvvvvvzp",
"vpppvvvvsooeeoggsvvvvvvvvvvvvpvv",
"vvpppppsogoeoggggsvvvvvvvvvvvvvv",
"vvpvvvzsggoohggggsvvvvvvvvvvpvvv",
"vvvvvvpsghoaahhggsvvvvvvvvvvpvvv",
"vvvvvvvshaoaaaahgsvvvvvvvvvvpvvv",
"vvvvvvvsssaosssagspvvvvvvvvvzpvv",
"vpvvvvvsdfaofdaaszzpvvvvvvvvzzpp",
"pzvvvvvshaaoaaaasvvppvvvvvvvpvvv",
"vpzvvvzshaaaooagsvvvvpzvvvvpvvvv",
"vvpzzzpsgAaAaAobjsvvvvpzzpvvvvvv",
"vvvpzpvvsgAqAqbbjjsvvvvzvvvvvvvv",
"vvvvzpvvsbgqqbbbjjsvvvvpvvvvvvvv",
"vvvvppvvsebbbbbjjsvvvvvpvvvvvvvv",
"vvvvppvvslbbbbbjjsvvvvvpvvvvvvvv",
"vvvvpvvsjjsiiikjjsvvvvppvvvvvvvv",
"vvvvzvvsjjssiikjjsvvvvpvvvvvvvvv",
"vvvpzpsjjsvsiijjisvvvvpvvvvvvvvv",
"vvvzppsllssxwwllxcsvvpvvvvvvvvvv",
"vvvpvvpssvsxwcxxxcsvvzvvvvvvvvvv",
"vvppvvzpvvsxwcyyysvvpzvvvvvvvvvv",
"vvpvvppzpsxxwqscgkspzzvvvvvvvvvv",
"vvpvvvvvpsmmsvvsslsvpzvvvvvvvvvv",
"vpvvvvvvsrrmszpppsvvvpvvvvvvvvvv",
"pzvvvvnnBBBBBnnBBuuvvzpvvvvvvvvv",
"zpvvvvvnnnnnnnnnntzzzzzpvvvvvvvp",
};
