/* XPM */
static char * image[] = {
/* width height num_colors chars_per_pixel */
"32 32 29 1",
"a c #70805f",
"b c #3c312c",
"c c #5a5237",
"d c #2d2420",
"e c #bec49f",
"f c #512d23",
"g c #8dab5f",
"h c #5e724a",
"i c #677755",
"j c #342a25",
"k c #453a35",
"l c #6a7a5a",
"m c #778667",
"n c #4a413c",
"o c #d48757",
"p c #5b3c2c",
"q c #d07753",
"r c #7a2d18",
"s c #695d58",
"t c #000000",
"u c #a3503e",
"v c #834032",
"w c #eb9661",
"x c #60583c",
"y c #645c3f",
"z c #70694f",
"A c #b55945",
"B c #a2a97f",
"C c #aa6c46",
"AwwwwwwwwwwwwwwwwAqwwwwwqqAAqAAA",
"qwwwwwwwwwwwwwwwwqwwwwwwwwwqqqqA",
"qwwwwwwwwwwwwwwwwwwwwwwwwwwwwwwq",
"qwwwwwwwwwwwwwwwwwwwwwwwwwwwwwww",
"Awwwwwwwwwwwwwwqwwwwwwwwwwwwwwww",
"Aqwwwwwwwwwwwwwqwwwwwwwwwwwwwwwq",
"qAwwwwwwwwwwwwwqwwwwwwwwwwwwwwAq",
"wqqqwwwwwtttttwAwwwwwwwwwwwwwqww",
"wwqqqqqwtpffpptAwwwwwwwwwwwwwwww",
"wwqwwwAtppffphhtqwwwwwwwwwwwqwww",
"wwwwwwtphpfphhhhtwwwwwwwwwwwqwww",
"wwwwwwthhppihhhhtqwwwwwwwwwwqwww",
"wwwwwwthipaaiihhtAqwwwwwwwwwAqww",
"wqwwwwtiapaaaaihtAAqwwwwwwwwAAqq",
"qAwwwwtttaptttahtwwqqwwwwwwwqwww",
"wqAwwwtegapgeaatwwwwwqAwwwwqwwww",
"wwqAAAtiaapaaaattwwwwwqAAqwwwwww",
"wwwqAqtiaaappahbktwwwwwAwwwwwwww",
"wwwwAqthBaBaBpbbkktwwwwqwwwwwwww",
"wwwwqqwthBrBrbbbkktwwwwqwwwwwwww",
"wwwwqqwwthrrbbbkktwwwwwqwwwwwwww",
"wwwwqwwwtmbbbbbkktwwwwqqwwwwwwww",
"wwwwAwwtkktjjjlkktwwwwqwwwwwwwww",
"wwwqAqwtkkwtdddkktwwwwqwwwwwwwww",
"wwwAqqtkkttyyykkyytwwqwwwwwwwwww",
"wwwqwwtmmttyxcmmyytwwAwwwwwwwwww",
"wwqqwwAttwtyxczzzhltqAwwwwwwwwww",
"wwqwwqqAqtyyxttcctltAAwwwwwwwwww",
"wwqwwwwwqtnnrwrttqtwqAwwwwwwwwww",
"wqwwwwwwtssntAqqqqwwwqwwwwwwwwww",
"qAwwwwooCCCCCoooovvCwAqwwwwwwwww",
"AqwwwwwoooooooooouuAAAAqwwwwwwwq",
};
