/* XPM */
static char * image[] = {
/* width height num_colors chars_per_pixel */
"32 32 29 1",
"a c #87947c",
"b c #3a2b28",
"c c #dbcbbc",
"d c #6e7d61",
"e c #844233",
"f c #8a382c",
"g c #634a45",
"h c #d2a394",
"i c #a4513e",
"j c #86362a",
"k c #291a18",
"l c #ab6e47",
"m c #d07753",
"n c #bc6c4b",
"o c #362623",
"p c #4c403d",
"q c #553d39",
"r c #57636b",
"s c #4c342f",
"t c #d48858",
"u c #554c3c",
"v c #0c0a07",
"w c #b56a68",
"x c #eb9661",
"y c #425059",
"z c #c0ac98",
"A c #e4b5a5",
"B c #b55945",
"C c #803125",
"BxxxxxxxxxxxxxxxxBmxxxxxmmBBmBBB",
"mxxxxxxxxxxxxxxxxmxxxxxxxxxmmmmB",
"mxxxxxxxxxxxxxxxxxxxxxxxxxxxxxxm",
"mxxxxxxxxxxxxxxxxxxxxxxxxxxxxxxx",
"Bxxxxxxxxxxxxxxmxxxxxxxxxxxxxxxx",
"Bmxxxxxxxxxxxxxmxxxxxxxxxxxxxxxm",
"mBxxxxxxxxxxxxvvxxvxxxxxxxxxxxBm",
"xmmmxxxxxxxvvvssvvsvxxxxxxxxxmxx",
"xxmmmmmxxxvsssggssgsvxxxxxxxxxxx",
"xxmxxxBmmmxvgggggggggvxxxxxxmxxx",
"xxxxxxmmxxvggggggggggsvxxxxxmxxx",
"xxxxxxxmxxvgggssgsgggssvxxxxmxxx",
"xxxxxxxBmvssgghsgCggggvxxxxxBmxx",
"xmxxxxxBBmvsghhhghCgggvxxxxxBBmm",
"mBxxxxxmmxvgghvAhAvCsggvxxxxmxxx",
"xmBxxxBmxvqgwhkAAAkjwqvxxxxmxxxx",
"xxmBBBmxxxvqqhAAAAAhqqvBBmxxxxxx",
"xxxmBmxxxxxvqqhAAAhqqvxBxxxxxxxx",
"xxxxBmxxxxxxvqvhhhvqvxxmxxxxxxxx",
"xxxxmmxxxxxvbdbzzzbdbvxmxxxxxxxx",
"xxxxmmxxxxxvbdpcfCpdbvxmxxxxxxxx",
"xxxxmxxxxxvbbapccfpabbvmxxxxxxxx",
"xxxxBxxxxxvpbdpzfcpdbpvxxxxxxxxx",
"xxxmBmxxxvppvbpczcpbvppvxxxxxxxx",
"xxxBmmxxxvAhvbbyyybbvhAvxxxxxxxx",
"xxxmxxmxxxvvvrrryrrrvvvxxxxxxxxx",
"xxmmxxBmxxxxvrryvyrrvBxxxxxxxxxx",
"xxmxxmmBmxxxvyyvxvyyvBxxxxxxxxxx",
"xxmxxxxxmBBmvoovxvoovBxxxxxxxxxx",
"xmxxxxxxxxxmvuuvmvuuvmxxxxxxxxxx",
"mBxxxxxxxttlllllleellentxxxxxxxx",
"Bmxxxxxxxxtttttttiiiiiimxxxxxxxm",
};
