/* XPM */
static char * image[] = {
/* width height num_colors chars_per_pixel */
"32 32 27 1",
"a c #87947c",
"b c #3a2b28",
"c c #dbcbbc",
"d c #6e7d61",
"e c #844233",
"f c #8a382c",
"g c #634a45",
"h c #d2a394",
"i c #a4513e",
"j c #86362a",
"k c #291a18",
"l c #ab6e47",
"m c #d07753",
"n c #bc6c4b",
"o c #4c403d",
"p c #553d39",
"q c #57636b",
"r c #4c342f",
"s c #d48858",
"t c #0c0a07",
"u c #b56a68",
"v c #eb9661",
"w c #425059",
"x c #c0ac98",
"y c #e4b5a5",
"z c #b55945",
"A c #803125",
"zvvvvvvvvvvvvvvvvzmvvvvvmmzzmzzz",
"mvvvvvvvvvvvvvvvvmvvvvvvvvvmmmmz",
"mvvvvvvvvvvvvvvvvvvvvvvvvvvvvvvm",
"mvvvvvvvvvvvvvvvvvvvvvvvvvvvvvvv",
"zvvvvvvvvvvvvvvmvvvvvvvvvvvvvvvv",
"zmvvvvvvvvvvvvvmvvvvvvvvvvvvvvvm",
"mzvvvvvvvvvvvvvmvvvvvvvvvvvvvvzm",
"vmmmvvvvvvvvvvvzvvvvvvvvvvvvvmvv",
"vvmmmmmvvvvvvmttvvtvvvvvvvvvvvvv",
"vvmvvvzmmmvtttrrttrtvvvvvvvvmvvv",
"vvvvvvmmvvtrrrggrrgrtvvvvvvvmvvv",
"vvvvvvvmvvvtgggggggggtvvvvvvmvvv",
"vvvvvvvzmvtggggggggggrtvvvvvzmvv",
"vmvvvvvzzmtgggrrgrgggrrtvvvvzzmm",
"mzvvvvvmmtrrgghrgAggggtvvvvvmvvv",
"vmzvvvzmvvtrghhhghAgggtvvvvmvvvv",
"vvmzzzmvvvtgghtyhytArggtzmvvvvvv",
"vvvmzmvvvtpguhkyyykjuptzvvvvvvvv",
"vvvvzmvvvvtpphyyyyyhpptmvvvvvvvv",
"vvvvmmvvvvvtpphyyyhpptvmvvvvvvvv",
"vvvvmmvvvvvvtpthhhtptvvmvvvvvvvv",
"vvvvmvvvvvvtodbxxxbdotmmvvvvvvvv",
"vvvvzvvvvvvtbdocfAodbtmvvvvvvvvv",
"vvvmzmvvvvtbbaoccfoabbtvvvvvvvvv",
"vvvzmmvvvvtobdoxfcodbotvvvvvvvvv",
"vvvmvvmvvvtobbocxcobtotvvvvvvvvv",
"vvmmvvzmvvtyhbbwwwbbhytvvvvvvvvv",
"vvmvvmmzmvvttqqqwqqqttvvvvvvvvvv",
"vvmvvvvvmzzmtqqwtwqqtzvvvvvvvvvv",
"vmvvvvvvvvvmztttmtttvmvvvvvvvvvv",
"mzvvvvvvvsslllllleellensvvvvvvvv",
"zmvvvvvvvvsssssssiiiiiimvvvvvvvm",
};
