/* XPM */
static char * image[] = {
/* width height num_colors chars_per_pixel */
"32 32 27 1",
"a c #bc6b4b",
"b c #70805f",
"c c #3c312c",
"d c #5a5237",
"e c #bec49f",
"f c #512d23",
"g c #8dab5f",
"h c #5e724a",
"i c #677755",
"j c #342a25",
"k c #453a35",
"l c #6a7a5a",
"m c #778667",
"n c #4a413c",
"o c #d48757",
"p c #5b3c2c",
"q c #d07753",
"r c #7a2d18",
"s c #695d58",
"t c #000000",
"u c #a3503e",
"v c #834032",
"w c #eb9661",
"x c #645c3f",
"y c #b55945",
"z c #a2a97f",
"A c #aa6c46",
"ywwwwwwwwwwwwwwwwyqwwwwwqqyyqyyy",
"qwwwwwwwwwwwwwwwwqwwwwwwwwwqqqqy",
"qwwwwwwwwwwwwwwwwwwwwwwwwwwwwwwq",
"qwwwwwwwwwwwwwwwwwwwwwwwwwwwwwww",
"ywwwwwwwwwwwwwwqwwwwwwwwwwwwwwww",
"yqwwwwwwwwwwwtttttwwwwwwwwwwwwwq",
"qywwwwwwwwwwtrfffftwwwwwwwwwwwyq",
"wqqqwwwwwwwtphrffrhtwwwwwwwwwqww",
"wwqqqqqwwwtfphrfrrhhtwwwwwwwwwww",
"wwqwwwyqqqtfrhrrirrhtwwwwwwwqwww",
"wwwwwwqqwwtrrirbbrrhtwwwwwwwqwww",
"wwwwwwwqwwtrrbrbbbrrtwwwwwwwqwww",
"wwwwwwwyqwtittbrbttrtwwwwwwwyqww",
"wqwwwwwyyqtiegrpbgertwwwwwwwyyqq",
"qywwwwwqqwtrbbbbpbbbtwwwwwwwqwww",
"wqywwwyqwwthbbbbbpbrtqywwwwqwwww",
"wwqyyyqwwwtkhzbzbzpktwqyyqwwwwww",
"wwwqyqwwwwtkchzrzrcktwwywwwwwwww",
"wwwwyqwwwtffcchrrcckktwqwwwwwwww",
"wwwwqqwwwtmfccccccckktwqwwwwwwww",
"wwwwqqwwwtkmjccccbjkktwqwwwwwwww",
"wwwwqwwwwtkttjjrllttktqqwwwwwwww",
"wwwwywwwtkkttjjjljttkktwwwwwwwww",
"wwwqyqwwtkkttjjjjjttkktwwwwwwwww",
"wwwyqqwwtmmtxxxxxxxtmmtwwwwwwwww",
"wwwqwwqwwtttxxxdxxxtttwwwwwwwwww",
"wwqqwwyqwwwtxxdtdxxtqywwwwwwwwww",
"wwqwwqqyqwwtxxtwtxxtyywwwwwwwwww",
"wwqwwwwwqyytnntwtlltqywwwwwwwwww",
"wqwwwwwwwwtssntqtbmmtqwwwwwwwwww",
"qywwwwwwooAAAAAoAvvAAuawwwwwwwww",
"yqwwwwwwwoooooooouuuuuyqwwwwwwwq",
};
