/* XPM */
static char * image[] = {
/* width height num_colors chars_per_pixel */
"32 32 18 1",
"a c #b56a68",
"b c #87947c",
"c c #3a2b28",
"d c #425059",
"e c #4c403d",
"f c #8a382c",
"g c #000000",
"h c #dbcbbc",
"i c #634a45",
"j c #d2a394",
"k c #553d39",
"l c #4c342f",
"m c #c0ac98",
"n c #e4b5a5",
"o c #6e7d61",
"p c #86362a",
"q c #0c0a07",
"r c #803125",
"gggggggggggggggggggggggggggggggg",
"gggggggggggggggggggggggggggggggg",
"gggggggggggggggggggggggggggggggg",
"gggggggggggggggggggggggggggggggg",
"gggggggggggggggggggggggggggggggg",
"gggggggggggggggggggggggggggggggg",
"gggggggggggggggggggggggggggggggg",
"gggggggggggggggggggggggggggggggg",
"gggggggggggggggggggggggggggggggg",
"gggggggggggggggggggggggggggggggg",
"gggggggggggggggggggggggggggggggg",
"ggggggggggggggqqggqggggggggggggg",
"gggggggggggqqqllqqlqgggggggggggg",
"ggggggggggqllliillilqggggggggggg",
"gggggggggggqiiiiiiiiiqgggggggggg",
"ggggggggggqiiiiiiiiiilqggggggggg",
"ggggggggggqiiilliliiillqgggggggg",
"gggggggggqlliijliriiiiqggggggggg",
"ggggggggggqlijjjijriiiqggggggggg",
"ggggggggggqiijnnjnjrliiqgggggggg",
"gggggggggqkiajqnnnqpakqggggggggg",
"ggggggggggqkkjnnnnnjkkqggggggggg",
"gggggggggggqkkjnnnjkkqgggggggggg",
"gggggggggggqqkqjjjqkqqgggggggggg",
"ggggggggggqeeocmmmcoeeqggggggggg",
"ggggggggggqeeoehfreoeeqggggggggg",
"gggggggggqeccbehhfebcceqgggggggg",
"gggggggggqcqcoemfheocqcqgggggggg",
"ggggggggqccqccehmheccqccqggggggg",
"ggggggggqjqgqccdddccqgqjqggggggg",
"ggggggggqqqqqqqqqqqqqqqqqggggggg",
"gggggggggqqqqqqqqqqqqqqqgggggggg",
};
