/* XPM */
static char * image[] = {
/* width height num_colors chars_per_pixel */
"32 32 23 1",
"a c #3a2b28",
"b c #6e7d61",
"c c #844233",
"d c #634a45",
"e c #d2a394",
"f c #a4513e",
"g c #ab6e47",
"h c #d07753",
"i c #8f9d84",
"j c #bc6c4b",
"k c #362623",
"l c #4c403d",
"m c #553d39",
"n c #57636b",
"o c #4c342f",
"p c #d48858",
"q c #554c3c",
"r c #0c0a07",
"s c #eb9661",
"t c #425059",
"u c #5f7050",
"v c #e4b5a5",
"w c #b55945",
"wsssssssssssssssswhssssshhwwhwww",
"hsssssssssssssssshssssssssshhhhw",
"hssssssssssssssssssssssssssssssh",
"hsssssssssssssssssssssssssssssss",
"wsssssssssssssrhsrrsssssssssssss",
"whsssssssssssrorroorrrsssssssssh",
"hwssssssssssrodooddooorssssssswh",
"shhhsssssssrdddddddddrssssssshss",
"sshhhhhsssrodddddddoodrsssssssss",
"sshssswhhrooddddddodddrssssshsss",
"sssssshhssrdddddddddddorsssshsss",
"ssssssshssrmddododdddorssssshsss",
"ssssssswhrmmdddodddddmrssssswhss",
"shssssswwhrmmddddddddmmrsssswwhh",
"hwssssshhsrmmmddddddmmrssssshsss",
"shwssswhsssrmmddddmmmrwsssshssss",
"sshwwwhsssssrmmmmmmmrshwwhssssss",
"ssshwhsssssrababbbabarswssssssss",
"sssswhsssssraabbbbbaarshssssssss",
"sssshhssssraaabbbbbaaarhssssssss",
"sssshhssssrlbabiiibablrhssssssss",
"sssshssssrllrbbuuubbrllrssssssss",
"sssswssssrverabiiibarevrssssssss",
"ssshwhssssrrrtttttttrrrsssssssss",
"ssswhhssssssrtnnnnntrhssssssssss",
"ssshsshsssssrtnnnnntrwssssssssss",
"sshhsswhssssrtttrtttrwssssssssss",
"sshsshhwhsssrttrsrttrwssssssssss",
"sshssssshwwhrkkrsrkkrwssssssssss",
"shsssssssssrqkkrhrkkqrssssssssss",
"hwsssssssppggggggccggcjpssssssss",
"whsssssssspppppppffffffhsssssssh",
};
