/* XPM */
static char * image[] = {
/* width height num_colors chars_per_pixel */
"32 32 24 1",
"a c #97a48a",
"b c #70805f",
"c c #3c312c",
"d c #5a5237",
"e c #2d2420",
"f c #bec49f",
"g c #512d23",
"h c #8dab5f",
"i c #5e724a",
"j c #677755",
"k c #342a25",
"l c #453a35",
"m c #6a7a5a",
"n c #778667",
"o c #4a413c",
"p c #5b3c2c",
"q c #7a2d18",
"r c #695d58",
"s c #000000",
"t c #a5b09b",
"u c #7c8a6e",
"v c #60583c",
"w c #645c3f",
"x c #a2a97f",
"ssssssssssssssssssssssssssssssss",
"ssssssssssssssssssssssssssssssss",
"ssssssssssssssssssssssssssssssss",
"ssssssssssssssssssssssssssssssss",
"ssssssssssssssssssssssssssssssss",
"ssssssssssssssssssssssssssssssss",
"sssssssssssssssipgggssssssssssss",
"ssssssssssssssgppggpisssssssssss",
"sssssssssssssggpipgpiissssssssss",
"sssssssssssssgpiippjiissssssssss",
"ssssssssssssspijjbpbjissssssssss",
"sssssssssssssijbbbpbbjssssssssss",
"sssssssssssssibsssbpssssssssssss",
"ssssssssssssssbbfhbphfssssssssss",
"ssssssssssssssbbbbbptassssssssss",
"ssssssssssssssibbbbbpjasssssssss",
"sssssssssssssssixbxbxptassssssss",
"sssssssssssslocnixqxqsstasssssss",
"sssssssssssslogcbiqqkkctasssssss",
"sssssssssssselugccccssktacssssss",
"ssssssssssssseluoccsssstamssssss",
"ssssssssssssscelobcsssstasssssss",
"ssssssssssssskkklossssstasssssss",
"ssssssssssssseeeelosssstasssssss",
"ssssssssssssdwwwwwllsstassssssss",
"ssssssssssssdwwwdwquustassssssss",
"ssssssssssssswwwsvwnntasssssssss",
"ssssssssssssswwwswwsstasssssssss",
"sssssssssssssooosmmstassssssssss",
"sssssssssssssorrsmbbssssssssssss",
"ssssssssssssssssssssssssssssssss",
"ssssssssssssssssssssssssssssssss",
};
