/* XPM */
static char * image[] = {
/* width height num_colors chars_per_pixel */
"32 32 4 1",
"a c #eb9661",
"b c #d07753",
"c c #a6b04f",
"d c #b55945",
"dbbcccccaaaaaaaaadbaaaaabdccbccc",
"caacccccaaaaaaaaabaaaaaaaadccbcc",
"caabcccaaaaaaaaaadaaaaaaaabbaabc",
"baaaaaaaaaaaaaaaadaaaaaaaadaaaab",
"daaaaaaaaaaaaaaaadaaaaaaaaaaaaab",
"dccaaaaaaaaaaaaaabaaaaaaaabaaaac",
"bccaaaaaaaaaaaaaabaaaaaaaabbaacc",
"abaaaaaaaaaaaaaabaaaaaaaaaabbccc",
"abaaaaaaaaaaaaaabaaaaaaaaaabcccc",
"abaaaaaaaaaaaaabbaaaaaaaaaabcccc",
"abbaaaaaaaaaaaabdaaaaaaaaaabcccc",
"aabaaaaaaaaaaaaddbaaaaaaaaadbccc",
"abbaaaaaaaaaaabaadbaaaaaaadddbcc",
"bdbbaaaaaaaaaabaaadaaaaabbbdbbbc",
"bbaaaaaaaaaaabdbaabdcccdbaaaaaab",
"abaaaaaaaaaabbaaabbccccaaaaaaaaa",
"addaabaaaaaddaaaaaacccaaaaaaaaaa",
"aaddbbbdddbbaaaaaaaadaaaaaaaaaac",
"aadbaaabdbaaaaaaaaaabaaaaaaaaacc",
"aabaaaabbaaaaaaaaaaabaaaaaaaaccc",
"aaaaaaaabaaaaaaaaaaabaaaaaaaaccc",
"aaabaaaaaaaaaaaaaaaadaaaaaaaaccc",
"aaabaaaaaaaaaaaaaaaadaaaaaaaaccc",
"aaabbbaaaaaaaaaaaaabbaaaaaaacccc",
"aaadbaaaaaaaaaaaaaabaaaaaaaacccc",
"aaabaaaaaaaaaaaaaaadaaaaaaaacccc",
"aadbaaaaaaaaaaaaaaadaaaaaaaacccc",
"aadaaaaaaaaaaaaaaabdaaaaaaaaaccc",
"abbaaaaaaaaaaaaaaabbaaaaaaaaaacc",
"adaaaaaaaaaaaaaaacdaaaaaaaaaaaac",
"ddaaaaaaaaaaaaaaacccaaaaaaaaaaac",
"dbaaaaaaaaaaaaaaadccdddbaaaaaacc",
};
