/* XPM */
static char * image[] = {
/* width height num_colors chars_per_pixel */
"32 32 4 1",
"a c #eb9661",
"b c #a6b04f",
"c c #d07753",
"d c #b55945",
"daaaaaaaaaaaaaaaadcaaaaacdbbcbbb",
"caaaaaaaaaaaaaaaacaaaaaaaadbbcbb",
"caaaaaaaaaaaaaaaadaaaaaaaaccaacb",
"caaaaaaaaaaaaaaaadaaaaaaaadaaaac",
"daaaaaaaaaaaaaaaadaaaaaaaaaaaaac",
"daaaaaaaaaaaaaaaacaaaaaaaacaaaab",
"caaaaaaaaaaaaaaaacaaaaaaaaccaabb",
"acaaaaaaaaaaaaaacaaaaaaaaaaccbbb",
"acaaaaaaaaaaaaaacaaaaaaaaaacbbbb",
"acaaaaaaaaaaaaaccaaaaaaaaaacbbbb",
"accaaaaaaaaaaaacdaaaaaaaaaacbbbb",
"aacaaaaaaaaaaaaddcaaaaaaaaadcbbb",
"accaaaaaaaaaaacaadcaaaaaaadddcbb",
"cdccaaaaaaaaaacaaadaaaaacccdcccb",
"ccaaaaaaaaaaacdcaacdbbbdcaaaaaac",
"acaaaaaaaaaaccaaaccbbbbaaaaaaaaa",
"addaacaaaaaddaaaaaabbbaaaaaaaaaa",
"aaddcccdddccaaaaaaaadaaaaaaaaaab",
"aadcaaacdcaaaaaaaaaacaaaaaaaaabb",
"aacaaaaccaaaaaaaaaaacaaaaaaaabbb",
"aaaaaaaacaaaaaaaaaaacaaaaaaaabbb",
"aaacaaaacaaaaaaaaaaadaaaaaaaabbb",
"aaacaaaaaaaaaaaaaaaadaaaaaaaabbb",
"aaacbbcaaaaaaaaaaaaccaaaaaaabbbb",
"aaabbbaaaaaaaaaaaaacaaaaaaaabbbb",
"aacbbcaaaaaaaaaaaaadaaaaaaaabbbb",
"aadcaaaaaaaaaaaaaaadaaaaaaaabbbb",
"aadaaaaaaaaaaaaaaacdaaaaaaaaabbb",
"aacaaaaaaaaaaaaaaaccaaaaaaaaaabb",
"ccaaaaaaaaaaaaaaabdaaaaaaaaaaaab",
"bdacbbbaaaaaaaaaabbbaaaaaaaaaaab",
"bccbbbbbaaaaaaaaadbbdddcaaaaaabb",
};
