/* XPM */
static char * image[] = {
/* width height num_colors chars_per_pixel */
"32 32 4 1",
"a c #eb9661",
"b c #d07753",
"c c #a6b04f",
"d c #b55945",
"dbbcccccaaaaaaaaadbaaaaabdddbdcc",
"caacccccaaaaaaaaabaaaaaaaadaabcc",
"caabcccaaaaaaaaaadaaaaaaaabaaabc",
"baaaaaaaaaaaaaaaadaaaaaaaabaaaab",
"daaaaaaaaaaaaaaaadaaaaaaaabaaaaa",
"dccaaaaaaaaaaaaaabaaaaaaaadbaaab",
"bccaaaaaaaaaaaaaabaaaaaaaaddccbd",
"abbbaaaaaaaaaaaadaaaaaaaaabcccaa",
"aabbbbbaaaaaabbddaaaaaaaaaacbaaa",
"aabaaadbbbaaaaabbaaaaaaaaaabaaaa",
"aaaaaabbaaaaaaaadaaaaaaaaaabaaaa",
"aaaaaaabaaaaaaaadbaaaaaaaaadbaaa",
"aaaaaaadbaaaaabdbdbaaaaaaadddbaa",
"abaaaaaddbbaaaaaaadaaaaabbbdbbbb",
"bdaaaaabbaaaaaaaaabdddddbaaaaaaa",
"abdaaadbaaaaaaaaaaabddbaaaaaaaaa",
"aabdddbaaaaaaaaaaaabdbaaaaaaaaaa",
"aaabdbaaaaaaaaaaaaaadaaaaaaaaaaa",
"aaaadbaaaaaaaaaaaaaabaaaaaaaaaaa",
"aaaabbaaaaaaaaaaaaaabaaaaaaaaaaa",
"aaaabbaaaaaaaaaaaaaabaaaaaaaaaaa",
"aaaabaaaaaaaaaaaaaaadaaaaaaaaaaa",
"aaaadaaaaaaaaaaaaaaadaaaaaaaaaaa",
"aaabccaaaaaaaaaaaaabbaaaaaaaaaaa",
"aaacccaaaaaaaaaaaaabaaaaaaaaaaaa",
"aaaccbbaaaaaaaaaaaadaaaaaaaaaaaa",
"aabbaadbaaaaaaaaaaadaaaaaaaaaaaa",
"aabaabbdbaaaaaaaaabdaaaaaaaaaaaa",
"aabaaaaabddbaaaaaabbaaaaaaabccaa",
"bbaaaaaaaaabddbbaadaaaaaaaacccaa",
"cdabcccaaaaaaaaaabdaaaaaaabccbaa",
"cbbcccccaaaaaaaaaddddddbabddbaac",
};
