/* XPM */
static char * image[] = {
/* width height num_colors chars_per_pixel */
"32 32 3 1",
"a c #eb9661",
"b c #d07753",
"c c #b55945",
"caaaaaaaaaaaaaaaacbaaaaabcccbccc",
"baaaaaaaaaaaaaaaabaaaaaaaacaaabc",
"baaaaaaaaaaaaaaaacaaaaaaaabaaaab",
"baaaaaaaaaaaaaaaacaaaaaaaacaaaab",
"caaaaaaaaaaaaaaaacaaaaaaaaaaaaaa",
"caaaaaaaaaaaaaaaabaaaaaaaabaaaab",
"baaaaaaaaaaaaaaaabaaaaaaaabbaabc",
"abaaaaaaaaaaaaaabaaaaaaaaaabbaaa",
"abaaaaaaaaaaaaaabaaaaaaaaaaaaaaa",
"abaaaaaaaaaaaaabbaaaaaaaaaabaaaa",
"abbaaaaaaaaaaaabcaaaaaaaaaabaaaa",
"aabaaaaaaaaaaaaccbaaaaaaaaacbaaa",
"abbaaaaaaaaaaabaacbaaaaaaacccbaa",
"bcbbaaaaaaaaaabaaacaaaaabbbcbbbb",
"bbaaaaaaaaaaabcbaabcccccbaaaaaaa",
"abaaaaaaaaaabbaaabbbccbaaaaaaaaa",
"accaabaaaaaccaaaaaabcbaaaaaaaaaa",
"aaccbbbcccbbaaaaaaaacaaaaaaaaaaa",
"aacbaaabcbaaaaaaaaaabaaaaaaaaaaa",
"aabaaaabbaaaaaaaaaaabaaaaaaaaaaa",
"aaaaaaaabaaaaaaaaaaabaaaaaaaaaaa",
"aaabaaaaaaaaaaaaaaaacaaaaaaaaaaa",
"aaabaaaaaaaaaaaaaaaacaaaaaaaaaaa",
"aaabbbaaaaaaaaaaaaabbaaaaaaaaaaa",
"aaacbaaaaaaaaaaaaaabaaaaaaaaaaaa",
"aaabaaaaaaaaaaaaaaacaaaaaaaaaaaa",
"aacbaaaaaaaaaaaaaaacaaaaaaaaaaaa",
"aacaaaaaaaaaaaaaaabcaaaaaaaaaaaa",
"abbaaaaaaaaaaaaaaabbaaaaaaaaaaaa",
"acaaaaaaaaaaaaaaaacaaaaaaaaaaaaa",
"ccaaaaaaaaaaaaaaabcaaaaaaaaaaaaa",
"cbaaaaaaaaaaaaaaaccccccbaaaaaaab",
};
