/* XPM */
static char * image[] = {
/* width height num_colors chars_per_pixel */
"32 32 4 1",
"a c #eb9661",
"b c #d07753",
"c c #a6b04f",
"d c #b55945",
"ddbcccccaaaaaaaaadbaaaaabdddbdcc",
"caacccccaaaaaaaaabaaaaaaaadaabcc",
"caabcccaaaaaaaaaabaaaaaaaabaaabc",
"ccaaaaaaaaaaaaaaaaaaaaaaaabaaaab",
"cccaaaaaaaaaaaaabaaaaaaaaadaaaaa",
"cccaaaaaaaaaaaaabaaaaaaaaabbaaab",
"cccaaaaaaaaaaaabdaaaaaaaaaadccbd",
"cccaaaaaaaaaaabddbaaaaaaaaacccaa",
"cbbdaaaaaaabaaaadbaaaaaaaaacbaaa",
"baabdccbbaaaaaaaabbaaaaaaaaaaaaa",
"aaaacccaaaaaaaaaaabaaaaaaaabaaaa",
"aaaaccaaaaaaaaaaaaabaaaaaaabaaaa",
"aaaabaaaaaaaaaaaaaadbaaaaabdbaaa",
"caabaaaaaaaaaaaaaaaddddbbbddddbb",
"cccbaaaaaaaaaaaaaaaddbaaaaaaaaaa",
"ccbdaaaaaaaaaaaaaadbaaaaaaaaaaaa",
"caabaaaaaaaaaaaaabbaaaaaaaaaaaaa",
"caaabaaaaaaaaaaabdaaaaaaaaaaaaaa",
"caaaaaaaaaaaaabbbaaaaaaaaaaaaaaa",
"caaaabaaaaabaaabaaaaaaaaaaaaaaaa",
"ccaaabbaaaaaaaabaaaaaaaaaaaaaaaa",
"cccaabdbccbaaaaaaaaaaaaaaaaaaaaa",
"ccccddddccbaaabaaaaaaaaaaaaaaaaa",
"cccccdaaaaabccdaaaaaaaaaaaaaaaaa",
"cccccaaaaaaacccaaaaaaaaaaaaaaaaa",
"cccccaaaaaaaaccaaaaaaaaaaaaaaaaa",
"ccccbaaaaaaaaabbaaaaaaaaccccaaaa",
"ccccccaaaaaaaaabaaaaaaacccccccaa",
"cccccccaaccccaaacaaaaaacccccccaa",
"cccccccbacccccaaccbaaaacccccccaa",
"ccccccccbbccccabccccaaaaaccccaab",
"cccccccccbbaaabcccccccaaaaaaaabc",
};
