/* XPM */
static char * image[] = {
/* width height num_colors chars_per_pixel */
"32 32 4 1",
"a c #eb9661",
"b c #d07753",
"c c #a6b04f",
"d c #b55945",
"dbbcccccaaaaaaaaadbaaaaabbccbccc",
"caacccccaaaaaaaaabaaaaaaaaaccbcc",
"caabcccaaaaaaaaaaaaaaaaaaaaaaaab",
"baaaaaaaaaaaaaaaaaaaaaaaaaaaaaaa",
"daaaaaaaaaaaaaabaaaaaaaaaaaaaaaa",
"dccaaaaaaaaaaaabaaaaaaaaaaaaaaab",
"bccaaaaaaaaaaaabaaaaaaaaaaaaaadb",
"abbbaaaaaaaaaaadaaaaaaaaaaaaabcc",
"aabbbbbaaaaaabbdaaaaaaaaaaaaaccc",
"aabaaadbbbaaaaabbaaaaaaaaaaabccc",
"aaaaaabbaaaaaaaadaaaaaaaaaaabccc",
"aaaaaaabaaaaaaaadbaaaaaaaaaabccc",
"aaaaaaadbaaaaabdddbaaaaaaaaadccc",
"abaaaaaddbbaaaaabddbaaaaaaaaddcc",
"bdaaaaabbaaaaaaaaaabbaaaaaaabaaa",
"abdaaadbaaaaaaaaaaaaabdaaaacccaa",
"aabddccaaaaaaaaaaaaaaabddbccccba",
"aaabccbaaaaaaaaaaaaaaaadaaccccca",
"aaaaccaaaaaaaaaaaaaaaaabaaccccca",
"aaaabbaaaaaaaaaaaaaaaaabaabcccca",
"aaaabbaaaaaaaaaaaaaaaaabaaacccaa",
"aaaabaaaaaaaaaaaaaaaaabccaaaaaaa",
"aaaadaaaaaaaaaaaaaaaaacccaaaaaab",
"aaabdbaaaaaaaaaaaaaaaacccaaccccc",
"aaadbbaaaaaaaaaaaaaaabccbacccccc",
"aaabccbaaaaaaaaaaaaaadaaaccccccc",
"aabbccdbaaaaaaaaaaaabdaaaccccccc",
"aabccccdbaaaaaaaaaabddaaaccccccc",
"abcccccccddbaaaaabccbdaaaccccccc",
"accccccccccccdbbbbcccbaaaccccccc",
"cccccccccccccccccddccdbaabcccccc",
"ccccccccccccccccccddddcccccccccc",
};
