/* XPM */
static char * image[] = {
/* width height num_colors chars_per_pixel */
"32 32 4 1",
"a c #eb9661",
"b c #a6b04f",
"c c #d07753",
"d c #b55945",
"daaaaaaaaaaaaaaaadcaaaaaccddcdbb",
"caaaaaaaaaaaaaaaacaaaaaaaaacccbb",
"caaaaaaaaaaaaaaaacaaaaaaaaaacaab",
"caaaaaaaaaaaaaaaaaaaaaaaaaaaaaaa",
"daaaaaaaaaaaaaaacaaaaaaaaaaaaaaa",
"dcaaaaaaaaaaaaaacaaaaaaaaaaaacaa",
"cdaaaaaaaaaaaaacdaaaaaaaaaacbbdc",
"accaaaaaaaaaaacddcaaaaaaaaabbbaa",
"aacdaaaaaaacaaaadcaaaaaaaaabcaaa",
"aaaadddccaaaaaaaaccaaaaaaaaaaaaa",
"aaaadccaaaaaaaaaaacaaaaaaaacaaaa",
"aaaaccaaaaaaaaaaaaacaaaaaaacaaaa",
"aaaacaaaaaaaaaaaaaadcaaaaacdcaaa",
"aaacaaaaaaaaaaaaaaaddddcccddddcc",
"cddcaaaaaaaaaaaaaaaddcaaaaaaaaaa",
"aacdaaaaaaaaaaaaaadcaaaaaaaaaaaa",
"aaacaaaaaaaaaaaaaccaaaaaaaaaaaaa",
"aaaacaaaaaaaaaaacdaaaaaaaaaaaaaa",
"aaaaaaaaaaaaaacccaaaaaaaaaaaaaaa",
"aaaaacaaaaacaaacaaaaaaaaaaaaaaaa",
"aaaaaccaaaaaaaacaaaaaaaaaaaaaaaa",
"aaaaacdccccaaaaaaaaaaaaaaaaaaaaa",
"aaaaacdddccaaacaaaaaaaaaaaaaaaaa",
"aaaacdaaaaacdcdaaaaaaaaaaaaaaaaa",
"aaaacaaaaaaacddaaaaaaaaaaaaaaaaa",
"aaaaaaaaaaaaacdaaaaaaaaaaaaaaaaa",
"aaacaaaaaaaaaaccaaaaaaaaaaaaaaaa",
"aaaaaaaaaaaaaaacaaaaaaaaaaaaaaaa",
"aacaaaaaaaaaaaaacaaaaaaaaaaaaaaa",
"accaaaaaaaaaaaaacdaaaaaaaaaaaaaa",
"cdaaaaaaaaaaaaaaaddcaaaaaaaaaaaa",
"dcaaaaaaaaaaaaaaaddddcaaaaaaaaac",
};
