/* XPM */
static char * image[] = {
/* width height num_colors chars_per_pixel */
"32 32 4 1",
"a c #d07753",
"b c #eb9661",
"c c #b55945",
"d c #a6b04f",
"cabdddddbbbbbbbbbcabbbbbaaccaccc",
"daadddddbbbbbbbbabbbbbbbbbbbbbbc",
"dbbadddbbbbbbbbcbbbbbbbbbbbbbbba",
"abbbcaaabbbbbacabbbbbbbbbbbbbbbb",
"cabbabbbbbaacccbbbbbbbbbbbbbbbbb",
"cddabbbbbbbbbacbbbbbbbbbbbbbbbbb",
"addbbbbbbbbbbbabbbbbbbbbbbbbbbba",
"bbbbbbbbbbbbbbabbbbbbbbbbbbbbbab",
"bbbbbbbbbbbbbbabbbbbbbbbbbbbbbbb",
"bbbbbbbbbbbbbbabbbbbbbbbbbbbbbbb",
"bbbbbbbbbbbbbbcabbbbbbbbbbbbbbbb",
"bbbbbbbbbbbbbbcabbbbbbbbbbbbbbbb",
"bbbbbbbbbbbbbaccaabbbbbbbbbbbabb",
"bbbbbbbbbbbbacaaacabbbbbbbbbacca",
"acabbbbbbaabbbbbbaccaaabbaccabbb",
"bacccaaabbbbbbbbbbcbbaaccabbbbbb",
"bbacbbbbbbbbbbbbbbabbbaabbbbbbbb",
"bbbcbbbbbbbbbbbbbbabbbabbbbbbbbb",
"bbbabbbbbbbbbbbbbbbabbbbbbbbbbbb",
"bbbaabbbbbbbbbbbbbbaabbbbbbbbbbb",
"bbbbcbbbbbbbbbbbbbbcabbbbbbbbbbb",
"bbbbcbbbbbbbbbbbbbbcbbbbbbbbbbbb",
"bbbbabbbbbbbbbbbbbbabbbbbbbbbbbb",
"bbbbabbbbbbbbbbbbbbabbbbbbbbbbbb",
"bbbbcbbbbbbbbbbbbbbcbbbbbbbbbbbb",
"bbbbcabbbbbbbbbbbbacbbbbbbbbbbbb",
"bbbbcccaaaaabbbbbaccbbbbbbbbbbbb",
"bbbacaabbbbbaaaacccabbbbbbbbbbbb",
"bbaaabbbbbbbbbbaabbbabbbbbbbbbbb",
"baabbbbbbbbbbbbbabbbbbbbbbbbbbbb",
"acbbbbbbbbbbbbbbbcbbbabbbbbbbbbb",
"cabbbbbbbbbbbbbbbccccabbbbbbbbba",
};
