/* XPM */
static char * image[] = {
/* width height num_colors chars_per_pixel */
"32 32 4 1",
"a c #eb9661",
"b c #a6b04f",
"c c #d07753",
"d c #b55945",
"daaaaaaaaaaaaaaaadcaaaaaccddcdbb",
"caaaaaaaaaaaaaaaacaaaaaaaaaaacbb",
"caaaaaaaaaaaaaaaaaaaaaaaaaaaaacb",
"caaaaaaaaaaaaaaaaaaaaaaaaaaaaaac",
"daaaaaaaaaaaaaacaaaaaaaaaaaaaaaa",
"dcaaaaaaaaaaaaacaaaaaaaaaaacaaac",
"cdaaaaaaaaaaaaacaaaaaaaaaaadbbcd",
"acccaaaaaaaaaaadaaaaaaaaaaabbbaa",
"aacccccaaaaaaccdaaaaaaaaaaabcaaa",
"aacaaadcccaaaaaccaaaaaaaaaaacaaa",
"aaaaaaccaaaaaaaadaaaaaaaaaaacaaa",
"aaaaaaacaaaaaaaadcaaaaaaaaaacaaa",
"aaaaaaadcaaaaacdddcaaaaaaaaadcaa",
"acaaaaaddccaaaaacddcaaaaaaaaddcc",
"cdaaaaaccaaaaaaaaaaccaaaaaaacaaa",
"acdaaadcaaaaaaaaaaaaacdaaaacaaaa",
"aacdddcaaaaaaaaaaaaaaacddcaaaaaa",
"aaacdcaaaaaaaaaaaaaaaaadaaaaaaaa",
"aaaadcaaaaaaaaaaaaaaaaacaaaaaaaa",
"aaaaccaaaaaaaaaaaaaaaaacaaaaaaaa",
"aaaaccaaaaaaaaaaaaaaaaacaaaaaaaa",
"aaaacaaaaaaaaaaaaaaaaaccaaaaaaaa",
"aaaadaaaaaaaaaaaaaaaaacaaaaaaaaa",
"aaacdcaaaaaaaaaaaaaaaacaaaaaaaaa",
"aaadccaaaaaaaaaaaaaaacaaaaaaaaaa",
"aacbaacaaaaaaaaaaaaaadaaaaaaaaaa",
"aabbaadcaaaaaaaaaaaabbaaaabbbaaa",
"aabbaccdcbbbbaaaaaabbbaaabbbbbaa",
"aabcaaaabbbbbbbaabbbbbcaabbbbbaa",
"abbbbcaabbbbbbbccbbbbbcaabbbbbaa",
"bbbbbbaaacbbbbaacbbbbbbcaabbbaac",
"bbbbbbaaaaaaaaaadbbbbbbbaaaaaacb",
};
