/* XPM */
static char * image[] = {
/* width height num_colors chars_per_pixel */
"32 32 4 1",
"a c #eb9661",
"b c #d07753",
"c c #a6b04f",
"d c #b55945",
"ccbaaabbcccccccccccbcccccccccccc",
"cbbbcccbbccccccccbaabccccccccccc",
"caabccccabccccccbaaaaccccccccccc",
"baaadcccaaaccccbaaaaaccccccccccb",
"dbaabaaaaabbdddaaaaaacccccccccba",
"ccbbaaaaaaaaabdaaaaaabcccccccaaa",
"ccbaaaaaaaaaaabaaaaaaabcccccaaac",
"accaaaaaaaaaaabaaaaaaaaaaaaaaacc",
"aaaaaaaaaaaaaabaaaaaaaaaaaaaaccc",
"aaaaaaaaaaaaaabaaaaaaaaaaaaacccc",
"aaaaaaaaaaaaaaccaaaaaaaaaaaacccc",
"aaaaaaaaaaaaaaccbaaaaaaaaaaacccc",
"aaaaaaaaaaaaabdccbaaaaaaaaaaaccc",
"aaaaaaaaaaaabdbccdbaaaaaaaaabdcc",
"bdbaaaaaabbaaaaaabddbbbaabddbbbd",
"abdddbbbaaaaaaaaaadaabbddbaaaabc",
"aabdddbaaaaaaaaaaaaaaabddbaaaacc",
"aaabdbaaaaaaaaaaaaaaaaadaaaaaccc",
"aaaadbaaaaaaaaaaaaaaaaabaaaacccc",
"aaaabbaaaaaaaaaaaaaaaaabaaaccccc",
"aaaabbaaaaaaaaaaaaaaaaabaaaccccc",
"aaaabaaaaaaaaaaaaaaaaabbaaaccccc",
"aaaadaaaaaaaaaaaaaaaaabccaaccccc",
"aaabdbaaaaaaaaaaaaaaaacccaaccccc",
"aaadbbaaaaaaaaaaaaaaabccaaaacccc",
"aabcaabaaaaaaaaaaaaaadaaaaaaabcc",
"aaccaadbaaaaaaaaaaaaccaaaacccabc",
"aaccabbdbccccaaaaaacccaaacccccab",
"aacbaaaacccccccaacccccbaacccccaa",
"accccbaacccccccbbcccccbaacccccaa",
"ccccccaaabccccaabccccccbaacccaac",
"ccccccaaaaaaaaaadcccccccaaaaaacc",
};
