/* XPM */
static char * image[] = {
/* width height num_colors chars_per_pixel */
"32 32 4 1",
"a c #eb9661",
"b c #d07753",
"c c #a6b04f",
"d c #b55945",
"cccccccccccccccccccccccccccccccc",
"cbbccccccccccccccccccccccccaaacc",
"caabccccccccccccccccccccccaaaaac",
"baaadbbbcccccbdccccccccccaaccaac",
"dbaabaacccbbdddbcccccccbaabcccac",
"ccbbaaccccccabdaabbbbaaaaaccccac",
"ccaaaaccccccaabaaaaaaaaaaacccbac",
"accaaaaacccaaabaaaaaaaaaaaaccabc",
"aaaaaaaaaaaaaabaaaaaaaaaaaaaaacc",
"aaaaaaaaaaaaaabaaaaaaaaaaaaaaccc",
"aaaaaaaaaaaaaadbaaaaaaaaaaaaaccc",
"aaaaaaaaaaaaaadbaaaaaaaaaaaaaccc",
"aaaaaaaaaaaaabddbbaaaaaaaaaaabcc",
"aaaaaaaaaaaabdbbbdbaaaaaaaaabddc",
"bdbaaaaaabbaaaaaabddbccdbbddbaaa",
"abdddbbbaaaaaaaaaadaaccccbaaaaaa",
"aabdaaaaaaaaaaaaaabaaadccaaaaaac",
"aaadaaaaaaaaaaaaaabaaabaaaaaaaac",
"aaabaaaaaaaaaaaaaaabaaaaaaaaaabc",
"aaabbaaaaaaaaaaaaaabbaaaaaaaabcc",
"aaaadaaaaaaaaaaaaaadbaaaaaaccccc",
"aaaadaaaaaaaaaaaaaadaaaaaacccccc",
"aaaabaaaaaaaaaaaaaabaaaaaacccccc",
"aaabccaaaaaaaaaaaaabaaaaaacccccc",
"aaacccaaaaaaaaaaaaadaaaaaacccccc",
"aabccbbaaaaaaaaaaabdaaaaaacccccc",
"aaddbbdbbbbbaaaaabddaaaaaacccccc",
"aadaaaaaaaaabbbbdddbaaaaaabccccc",
"aabaaaaaaaaaaaabbaaabaaaaaabcccc",
"bbaaaaaaaaaaaaaabaaaaaaaaaaaaaab",
"cdabcccaaaaaaaaaacccabaaaaaaaaac",
"cbbcccccaaaaaaaaadccdbaaaaaaaacc",
};
