/* XPM */
static char * image[] = {
/* width height num_colors chars_per_pixel */
"32 32 4 1",
"a c #d07753",
"b c #eb9661",
"c c #b55945",
"d c #a6b04f",
"cabbbbbbbbbbbbbbbcabbbbbacccacdd",
"aaabbbbbbbbbbbbbbabbbbbbbbcbbadd",
"abbabbbbbbbbbbbbbcbbbbbbbbabbbad",
"abbbcbbbbbbbbbbbbcbbbbbbbbabbbba",
"cabbabbbbbbbbbbbbcbbbbbbbbabbbbb",
"ccaabbbbbbbbbbbbbabbbbbbbbcabbba",
"abbbbbbbbbbbbbbbbabbbbbbbbccddac",
"bbbbbbbbbbbbbbbbcbbbbbbbbbadddbb",
"bbbbbbbbbbbbbaaccbbbbbbbbbbdabbb",
"bbbbbbbbbbbbbbbaabbbbbbbbbbabbbb",
"bbbbbbaabbbbbbbbcbbbbbbbbbbabbbb",
"bbbbbbbabbbbbbbbcabbbbbbbbbcabbb",
"bbbbbbbcabbbbbacacabbbbbbbcccabb",
"babbbbbccaabbbbbbbcbbbbbaaacaaaa",
"acbbbbbaabbbbbbbbbacccccabbbbbbb",
"bacbbbcabbbbbbbbbbbaccabbbbbbbbb",
"bbacccabbbbbbbbbbbbacabbbbbbbbbb",
"bbbacabbbbbbbbbbbbbbcbbbbbbbbbbb",
"bbbbcabbbbbbbbbbbbbbabbbbbbbbbbb",
"bbbbaabbbbbbbbbbbbbbabbbbbbbbbbb",
"bbbbaabbbbbbbbbbbbbbabbbbbbbbbbb",
"bbbbabbbbbbbbbbbbbbbcbbbbbbbbbbb",
"bbbbcbbbbbbbbbbbbbbbcbbbbbbbbbbb",
"bbbaddbbbbbbbbbbbbbaabbbbbbbbbbb",
"bbbdddbbbbbbbbbbbbbabbbbbbbbbbbb",
"bbbddaabbbbbbbbbbbbcbbbbbbbbbbbb",
"bbaabbcabbbbbbbbbbbcbbbbbbbbbbbb",
"bbabbaacabbbbbbbbbacbbbbbbbbbbbb",
"bbabbbbbaccabbbbbbaabbbbbbbbbbbb",
"aabbbbbbbbbaccaabbcbbbbbbbbbbbbb",
"dcbadddbbbbbbbbbbacbbbbbbbbbbbbb",
"daadddddbbbbbbbbbccccccbbbbbbbba",
};
