/* XPM */
static char * image[] = {
/* width height num_colors chars_per_pixel */
"32 32 4 1",
"a c #eb9661",
"b c #d07753",
"c c #a6b04f",
"d c #b55945",
"dbbcccccaaaaaaaaadbaaaaabbddbddd",
"caacccccaaaaaaaaabaaaaaaaaabbbbd",
"caabcccaaaaaaaaaaaaaaaaaaaaaaaab",
"baaaaaaaaaaaaaaaaaaaaaaaaaaaaaaa",
"daaaaaaaaaaaaaabaaaaaaaaaaaaaaaa",
"dccaaaaaaaaaaaabaaaaaaaaaaaaaaab",
"bccaaaaaaaaaaaabaaaaaaaaaaaaaadb",
"abbbaaaaaaaaaaadaaaaaaaaaaaaabaa",
"aabbbbbaaaaaabbdaaaaaaaaaaaaaaaa",
"aabaaadbbbaaaaabbaaaaaaaaaaabaaa",
"aaaaaabbaaaaaaaadaaaaaaaaaaabaaa",
"aaaaaaabaaaaaaaadbaaaaaaaaaabaaa",
"aaaaaaadbaaaaabdddbaaaaaaaaadbaa",
"abaaaaaddbbaaaaabddbaaaaaaaaddbb",
"bdaaaaabbaaaaaaaaaabbaaaaaaabaaa",
"abdaaadbaaaaaaaaaaaaabdaaaabaaaa",
"aabdddbaaaaaaaaaaaaaaabddbaaaaaa",
"aaabdbaaaaaaaaaaaaaaaaadaaaaaaaa",
"aaaadbaaaaaaaaaaaaaaaaabaaaaaaaa",
"aaaabbaaaaaaaaaaaaaaaaabaaaaaaaa",
"aaaabbaaaaaaaaaaaaaaaaabaaaaaaaa",
"aaaabaaaaaaaaaaaaaaaaabbaaaaaaaa",
"aaaadaaaaaaaaaaaaaaaaabaaaaaaaaa",
"aaabccaaaaaaaaaaaaaaaabaaaaaaaaa",
"aaacccaaaaaaaaaaaaaaabaaaaaaaaaa",
"aaaccbbaaaaaaaaaaaaaadaaaaaaaaaa",
"aabbaadbaaaaaaaaaaaabdaaaaaaaaaa",
"aabaabbdbaaaaaaaaaabddaaaaaaaaaa",
"aabaaaaabddbaaaaabaabdaaaaaaaaaa",
"bbaaaaaaaaabddbbbbaaabaaaaaaaaaa",
"cdabcccaaaaaaaaaaddaadbaaaaaaaaa",
"cbbcccccaaaaaaaaaddddddbaaaaaaab",
};
