/* XPM */
static char * image[] = {
/* width height num_colors chars_per_pixel */
"32 32 29 1",
"a c #87947c",
"b c #3a2b28",
"c c #dbcbbc",
"d c #6e7d61",
"e c #844233",
"f c #634a45",
"g c #d2a394",
"h c #a4513e",
"i c #291a18",
"j c #b0b0b0",
"k c #d4d4d4",
"l c #ab6e47",
"m c #d07753",
"n c #bc6c4b",
"o c #362623",
"p c #4c403d",
"q c #553d39",
"r c #413431",
"s c #57636b",
"t c #4c342f",
"u c #d48858",
"v c #554c3c",
"w c #0c0a07",
"x c #b56a68",
"y c #eb9661",
"z c #425059",
"A c #c0ac98",
"B c #e4b5a5",
"C c #b55945",
"CyyyyyyyyyyyyyyyyCmyyyyymmCCmCCC",
"myyyyyyyyyyyyyyyymyyyyyyyyymmmmC",
"myyyyyyyyyyyyyyyyyyyyyyyyyyyyyym",
"myyyyyyyyyyyyyyyyyyyyyyyyyyyyyyy",
"Cyyyyyyyyyyyyyymyyyyyyyyyyyyyyyy",
"Cmyyyyyyyyyyyyymyyyyyyyyyyyyyyym",
"mCyyyyyyyyyyyywwyywyyyyyyyyyyyCm",
"ymmmyyyyyyywwwttwwtwyyyyyyyyymyy",
"yymmmmmyyywtttffttftwyyyyyyyyyyy",
"yymyyyCmmmywfffffffffwyyyyyymyyy",
"yyyyyymmyywfffffffffftwyyyyymyyy",
"yyyyyyymyywfffttftfffttwyyyymyyy",
"yyyyyyyCmwttffgtfgffffwyyyyyCmyy",
"ymyyyyyCCmwtfgggfggfffwyyyyyCCmm",
"mCyyyyymmywffgwBgBwgtffwyyyymyyy",
"ymCyyyCmywqfxgiBBBigxqwyyyymyyyy",
"yymCCCmyyywqqgBBBBBgqqwCCmyyyyyy",
"yyymCmyyyyywqqgBBBgqqwwCyyyyyyyy",
"yyyyCmyyyywppqwgggwrppBwyyyyyyyy",
"yyyymmyyyywrppppppppppBwyyyyyyyy",
"yyyymmyyyyywrppppppprkjmyyyyyyyy",
"yyyymyyyyyyywrrrrrrakjbwyyyyyyyy",
"yyyyCyyyyyyywdbAccbkjwbbwyyyyyyy",
"yyymCmyyyyyywbbcAcbbwywggwyyyyyy",
"yyyCmmyyyyyywbbzszbbwmywwyyyyyyy",
"yyymyymyyyyywzsszsszwCyyyyyyyyyy",
"yymmyyCmyyywzszwwzszwCyyyyyyyyyy",
"yymyymmCmyywzzwyywzzwCyyyyyyyyyy",
"yymyyyyymCCwoowyywoowCyyyyyyyyyy",
"ymyyyyyyyywvvowmmwovvwyyyyyyyyyy",
"mCyyyyyyyuulllllleellenuyyyyyyyy",
"Cmyyyyyyyyuuuuuuuhhhhhhmyyyyyyym",
};
