/* XPM */
static char * image[] = {
/* width height num_colors chars_per_pixel */
"32 32 28 1",
"a c #e3e3e3",
"b c #87947c",
"c c #3a2b28",
"d c #dbcbbc",
"e c #6e7d61",
"f c #844233",
"g c #634a45",
"h c #d2a394",
"i c #a4513e",
"j c #291a18",
"k c #b0b0b0",
"l c #d4d4d4",
"m c #ab6e47",
"n c #d07753",
"o c #bc6c4b",
"p c #362623",
"q c #553d39",
"r c #57636b",
"s c #4c342f",
"t c #d48858",
"u c #554c3c",
"v c #0c0a07",
"w c #b56a68",
"x c #eb9661",
"y c #425059",
"z c #c0ac98",
"A c #e4b5a5",
"B c #b55945",
"BxxxxxxxxxxxxxxxxBnxxxxxnnBBnBBB",
"nxxxxxxxxxxxxxxxxnxxxxxxxxxnnnnB",
"nxxxxxxxxxxxxxxxxxxxxxxxxxxxxxxn",
"nxxxxxxxxxxxxxxxxxxxxxxxxxxxxxxx",
"Bxxxxxxxxxxxxxxnxxxxxxxxxxxxxxxx",
"Bnxxxxxxxxxxxxxnxxxxxxxxxxxxxxxn",
"nBxxxxxxxxxxxxvvxxvxxxxxxxxxxxBn",
"xnnnxxxxxxxvvvssvvsvxxxxxxxxxnxx",
"xxnnnnnxxxvsssggssgsvxxxxxxxxxxx",
"xxnxxxBnnnxvgggggggggvxxxxxxnxxx",
"xxxxxxnnxxvggggggggggsvxxxxxnxxx",
"xxxxxxxnxxvgggssgsgggssvxxxxnxxx",
"xxxxxxxBnvssgghsghggggvxxxxxBnxx",
"xnxxxxxBBnvsghhhghhgggvxxxxxBBnn",
"nBxxxxxnnxvgghAAhAhhsggvxxxxnxxx",
"xnBxxxBnxvqgwhjAAAjhwqvxxxxnxxxx",
"xxnBBBnxxxvqqhAAAAAhqqvBBnxxxxxx",
"xxxnBnxxxxxvqqhAAAhqqvxBxxxxxxxx",
"xxxxBnxxxxxvvqvhhhvqvxxnxxxxxxxx",
"xxxxnnxxxxvcceczzzcecvxnxxxxxxxx",
"xxxxnnxxxacccecddzceccanxxxxxxxx",
"xxxxnxxxxklalbcdddclalkvxxxxxxxx",
"xxxxBxxxxxkkklaaaalkkkccvxxxxxxx",
"xxxnBnxxxxxxvkkkkkkcvxvhhvxxxxxx",
"xxxBnnxxxxxxvccyryccvnxvvxxxxxxx",
"xxxnxxnxxxxxvyrryrryvBxxxxxxxxxx",
"xxnnxxBnxxxvyryvvyryvBxxxxxxxxxx",
"xxnxxnnBnxxvyyvxxvyyvBxxxxxxxxxx",
"xxnxxxxxnBBvppvxxvppvBxxxxxxxxxx",
"xnxxxxxxxxvuupvnnvpuuvxxxxxxxxxx",
"nBxxxxxxxttmmmmmmffmmfotxxxxxxxx",
"Bnxxxxxxxxtttttttiiiiiinxxxxxxxn",
};
