/* XPM */
static char * image[] = {
/* width height num_colors chars_per_pixel */
"32 32 28 1",
"a c #87947c",
"b c #3a2b28",
"c c #dbcbbc",
"d c #6e7d61",
"e c #844233",
"f c #634a45",
"g c #d2a394",
"h c #a4513e",
"i c #291a18",
"j c #b0b0b0",
"k c #d4d4d4",
"l c #ab6e47",
"m c #d07753",
"n c #bc6c4b",
"o c #362623",
"p c #4c403d",
"q c #553d39",
"r c #57636b",
"s c #4c342f",
"t c #d48858",
"u c #554c3c",
"v c #0c0a07",
"w c #b56a68",
"x c #eb9661",
"y c #425059",
"z c #c0ac98",
"A c #e4b5a5",
"B c #b55945",
"BxxxxxxxxxxxxxxxxBmxxxxxmmBBmBBB",
"mxxxxxxxxxxxxxxxxmxxxxxxxxxmmmmB",
"mxxxxxxxxxxxxxxxxxxxxxxxxxxxxxxm",
"mxxxxxxxxxxxxxxxxxxxxxxxxxxxxxxx",
"Bxxxxxxxxxxxxxxmxxxxxxxxxxxxxxxx",
"Bmxxxxxxxxxxxxvvxxvxxxxxxxxxxxxm",
"mBxxxxxxxxxvvvssvvsvxxxxxxxxxxBm",
"xmmmxxxxxxvsssffssfsvxxxxxxxxmxx",
"xxmmmmmxxxxvfffffffffvxxxxxxxxxx",
"xxmxxxBmmmvffffffffffsvxxxxxmxxx",
"xxxxxxmmxxvfffssfsfffssvxxxxmxxx",
"xxxxxxxmxvssffgsfgffffvxxxxxmxxx",
"xxxxxxxBmxvsfgggfggfffvxxxxxBmxx",
"xmxxxxxBBmvffgvAgAvgsffvxxxxBBmm",
"mBxxxxxmmvqfwgiAAAigwqvxxxxxmxxx",
"xmBxxxBmxxvqqgAAAAAgqqvxxxxmxxxx",
"xxmBBBmxxxxvqqgAAAgqqvmBBmxxxxxx",
"xxxmBmxxxxxxvqvgggvqvxxBxxxxxxxx",
"xxxxBmxxxxxvpdbzzzbdvxxmxxxxxxxx",
"xxxxmmxxxxxvppbcczbdbvxmxxxxxxxx",
"xxxxmmxxxxxvkppcccbabvxmxxxxxxxx",
"xxxxmxxxxxxvjkppccbdbpvmxxxxxxxx",
"xxxxBxxxxxxxvjkppcbbvpvxxxxxxxxx",
"xxxmBmxxxxxxvbjAAybbvgvxxxxxxxxx",
"xxxBmmxxxxxxvyrrrrryvvxxxxxxxxxx",
"xxxmxxmxxxxxvyrryrryvBxxxxxxxxxx",
"xxmmxxBmxxxxvyryvyryvBxxxxxxxxxx",
"xxmxxmmBmxxxvyyvxvyyvBxxxxxxxxxx",
"xxmxxxxxmBBmvoovxvoovBxxxxxxxxxx",
"xmxxxxxxxxxvuuovmvouuvxxxxxxxxxx",
"mBxxxxxxxttlllllleellentxxxxxxxx",
"Bmxxxxxxxxttttttthhhhhhmxxxxxxxm",
};
