/* XPM */
static char * image[] = {
/* width height num_colors chars_per_pixel */
"32 32 69 1",
"a c #804432",
"b c #45df2d",
"c c #ae6138",
"d c #927533",
"e c #996c44",
"f c #23802d",
"g c #bd673f",
"h c #af523a",
"i c #713e2b",
"j c #f7fac8",
"k c #a5583b",
"l c #54a62d",
"m c #b86862",
"n c #45822d",
"o c #c46b40",
"p c #547e46",
"q c #971f2f",
"r c #6f7f2d",
"s c #27992d",
"t c #b89f6b",
"u c #a48758",
"v c #a65c37",
"w c #aba76f",
"x c #907c57",
"y c #964f3a",
"z c #943534",
"A c #dab65f",
"B c #794635",
"C c #b25e37",
"D c #43df2b",
"E c #765137",
"F c #000000",
"G c #ddbd80",
"H c #39cc2d",
"I c #5b4528",
"J c #852f2d",
"K c #3dd22d",
"L c #8f5c33",
"M c #e1ca89",
"N c #bfb979",
"O c #906634",
"P c #c27f39",
"Q c #9c542f",
"R c #30b32d",
"S c #89975f",
"T c #a44430",
"U c #9e533b",
"V c #eee664",
"W c #991e2e",
"X c #9e5344",
"Y c #a95631",
"Z c #991f2f",
"0 c #7d602e",
"1 c #20662d",
"2 c #f4f3a7",
"3 c #cdb87f",
"4 c #b4613d",
"5 c #7b362f",
"6 c #ebdf42",
"7 c #b45e35",
"8 c #80482d",
"9 c #b9a774",
"! c #ccb176",
"@ c #8f512f",
"# c #f5db93",
"$ c #f1ed85",
"% c #d7af3d",
"^ c #a2785b",
"& c #8a4139",
"FFFFFFFFFFFFFFFFFFFFFFFFFFFFFFFF",
"FFFFFFFFFFFFFFFFFFFFFFFFFFFFFFFF",
"FFFFFFFFFFFFFFFFFFFFFFFFFFFFFFFF",
"FFFFFFFFFFFFFFFFFFFFFFFFFFFFFFFF",
"FFFFFFFFFFFFFFFFFFFFFFFFFFFFFFFF",
"FFFFFFFFFFFFFFFFFFFFFFFFFFFFFFFF",
"FFFFFFFFFFFFFFFFFFFFFFFFFFFFFFFF",
"FFFFFFFFFFFFFFFFFFFFFFFFFFFFFFFF",
"FFFFFFFFFFFFFFFFFFFFFFFFFFFFFFFF",
"FFFFFFFFFFFFFFFqFFFFFFFFFFFFFFFF",
"FFFFFFFFFFFFFTWAqFFFFFFFFFFFFFFF",
"FFFFFFFFFFFF7ZFmqq7FFFFFFFFFFFFF",
"FFFFFFFFFFFZGqFFqqGZFFFFFFFFFFFF",
"FFFFFFFFFFFFrbb7PT0FFFFFFFFFFFFF",
"FFFFFFFFFFblYndVV5sHKDFFFFFFFFFF",
"FFFFFFFFDKs1ZL62$%LOfRbDFFFFFFFF",
"FFFFFFFKRfSX6%2jjV6PIpsRDFFFFFFF",
"FFFFFFKfpNMiPVjjjjVQE#SpRDFFFFFF",
"FFFFFKfN##Mx&Vjjj$%^3###pRDFFFFF",
"FFFFKfN####tcC6$$%B3#####1HFFFFF",
"FFFFH1####!@4UJJzhoe#####1HFFFFF",
"FFFFbsS###ug8axxiykve###pRDFFFFF",
"FFFFFKfSN#3EixMM9Eac8##NfKFFFFFF",
"FFFFFFKsfN#33M###9Eix#NfKFFFFFFF",
"FFFFFFFbRp########33wSfKFFFFFFFF",
"FFFFFFFFDR11SSSSSSp1fsKFFFFFFFFF",
"FFFFFFFFFDHHssssssRHKbFFFFFFFFFF",
"FFFFFFFFFFFFbbbbbbDFFFFFFFFFFFFF",
"FFFFFFFFFFFFFFFFFFFFFFFFFFFFFFFF",
"FFFFFFFFFFFFFFFFFFFFFFFFFFFFFFFF",
"FFFFFFFFFFFFFFFFFFFFFFFFFFFFFFFF",
"FFFFFFFFFFFFFFFFFFFFFFFFFFFFFFFF",
};
