/* XPM */
static char * image[] = {
/* width height num_colors chars_per_pixel */
"32 32 69 1",
"a c #804432",
"b c #45df2d",
"c c #ae6138",
"d c #927533",
"e c #996c44",
"f c #23802d",
"g c #bd673f",
"h c #af523a",
"i c #713e2b",
"j c #f7fac8",
"k c #a5583b",
"l c #b16d43",
"m c #45822d",
"n c #c46b40",
"o c #547e46",
"p c #971f2f",
"q c #6f7f2d",
"r c #27992d",
"s c #b89f6b",
"t c #a48758",
"u c #a65c37",
"v c #aba76f",
"w c #907c57",
"x c #964f3a",
"y c #943534",
"z c #dab65f",
"A c #794635",
"B c #b25e37",
"C c #43df2b",
"D c #a13a30",
"E c #765137",
"F c #000000",
"G c #ddbd80",
"H c #f5db93",
"I c #5b4528",
"J c #39cc2d",
"K c #852f2d",
"L c #3dd22d",
"M c #61a02d",
"N c #8f5c33",
"O c #bfb979",
"P c #e1ca89",
"Q c #906634",
"R c #936d55",
"S c #4e9c2d",
"T c #c27f39",
"U c #9c542f",
"V c #30b32d",
"W c #89975f",
"X c #a44430",
"Y c #9e533b",
"Z c #eee664",
"0 c #b4613d",
"1 c #20662d",
"2 c #991f2f",
"3 c #7d602e",
"4 c #f4f3a7",
"5 c #4b4729",
"6 c #cdb87f",
"7 c #ebdf42",
"8 c #80482d",
"9 c #b45e35",
"! c #b9a774",
"@ c #ccb176",
"# c #8f512f",
"$ c #42732e",
"% c #f1ed85",
"^ c #d7af3d",
"& c #3f592e",
"FFFFFFFFFFFFFFFFFFFFFFFFFFFFFFFF",
"FFFFFFFFFFFFFFFFFFFFFFFFFFFFFFFF",
"FFFFFFFFFFFFFFFFFFFFFFFFFFFFFFFF",
"FFFFFFFFFFFFFFFFFFFFFFFFFFFFFFFF",
"FFFFFFFFFFFFFFFFFFFFFFFFFFFFFFFF",
"FFFFFFFFFFFFFFFFFFFFFFFFFFFFFFFF",
"FFFFFFFFFFFFFFFFFFFFFFFFFFFFFFFF",
"FFFFFFFFFFFFFFFFFFFFFFFFFFFFFFFF",
"FFFFFFFFFFFFFFFFFFFFFFFFFFFFFFFF",
"FFFFFFFFFFFFFFpXFFFFFFFFFFFFFFFF",
"FFFFFFFFFFFFFFp9FFFFFFFFFFFFFFFF",
"FFFFFFFFFFFFpFpG9XpFFFFFFFFFFFFF",
"FFFFFFFFFFFpDFF2p29FFFFFFFFFFFFF",
"FFFFFFFFFFFpz33^qMG9FFFFFFFFFFFF",
"FFFFFFFFFFbdRrT%^m$SLCFFFFFFFFFF",
"FFFFFFFFCLr&5N7jZ^NQfVbCFFFFFFFF",
"FFFFFFFLVfWT^74jjZZTIorVCFFFFFFF",
"FFFFFFLfoOPUZjjjjjZUEHWoVCFFFFFF",
"FFFFFLfOHHPwlZjjj4Tw6HHHoVCFFFFF",
"FFFFLfOHHHHscBZ%Z^A6HHHHH1JFFFFF",
"FFFFJ1HHHH@#0YKKyhneHHHHH1JFFFFF",
"FFFFbrWHHHtg8awwixkueHHHoVCFFFFF",
"FFFFFLfWOH6EiwPP!Eac8HHOfLFFFFFF",
"FFFFFFLrfOH66PHHH!EiwHOfLFFFFFFF",
"FFFFFFFbVoHHHHHHHH66vWfLFFFFFFFF",
"FFFFFFFFCV11WWWWWWo1frLFFFFFFFFF",
"FFFFFFFFFCJJrrrrrrVJLbFFFFFFFFFF",
"FFFFFFFFFFFFbbbbbbCFFFFFFFFFFFFF",
"FFFFFFFFFFFFFFFFFFFFFFFFFFFFFFFF",
"FFFFFFFFFFFFFFFFFFFFFFFFFFFFFFFF",
"FFFFFFFFFFFFFFFFFFFFFFFFFFFFFFFF",
"FFFFFFFFFFFFFFFFFFFFFFFFFFFFFFFF",
};
