/* XPM */
static char * image[] = {
/* width height num_colors chars_per_pixel */
"32 32 20 1",
"a c #70805f",
"b c #3c312c",
"c c #5a5237",
"d c #bec49f",
"e c #512d23",
"f c #8dab5f",
"g c #5e724a",
"h c #677755",
"i c #342a25",
"j c #453a35",
"k c #6a7a5a",
"l c #778667",
"m c #4a413c",
"n c #5b3c2c",
"o c #7a2d18",
"p c #695d58",
"q c #000000",
"r c #60583c",
"s c #645c3f",
"t c #a2a97f",
"qqqqqqqqqqqqqqqqqqqqqqqqqqqqqqqq",
"qqqqqqqqqqqqqqqqqqqqqqqqqqqqqqqq",
"qqqqqqqqqqqqqqqqqqqqqqqqqqqqqqqq",
"qqqqqqqqqqqqqqqqqqqqqqqqqqqqqqqq",
"qqqqqqqqqqqqqqqqqqqqqqqqqqqqqqqq",
"qqqqqqqqqqqqqqqqqqqqqqqqqqqqqqqq",
"qqqqqqqqqqqqoeenoqqqqqqqqqqqqqqq",
"qqqqqqqqqqqnoeeoggqqqqqqqqqqqqqq",
"qqqqqqqqqqnooeoogggqqqqqqqqqqqqq",
"qqqqqqqqqqogoooooggqqqqqqqqqqqqq",
"qqqqqqqqqqohoaaooggqqqqqqqqqqqqq",
"qqqqqqqqqqhaoaaaoogqqqqqqqqqqqqq",
"qqqqqqqqqqqqaoqqqogqqqqqqqqqqqqq",
"qqqqqqqqqqdfonfdooqqqqqqqqqqqqqq",
"qqqqqqqqqqhaanaaaoqqqqqqqqqqqqqq",
"qqqqqqqqqqoaaannagqqqqqqqqqqqqqq",
"qqqqqqqqqqgtatatnbbjqqqqqqqqqqqq",
"qqqqqqqqqqqgtotobbbjqqqqqqqqqqqq",
"qqqqqqqqqqqqgoobbbbjqqqqqqqqqqqq",
"qqqqqqqqqqqqebbbbbbjjqqqqqqqqqqq",
"qqqqqqqqqqqqlbbbbaijjqqqqqqqqqqq",
"qqqqqqqqqqqqjoiikkijjqqqqqqqqqqq",
"qqqqqqqqqqqqjqiikiiqjqqqqqqqqqqq",
"qqqqqqqqqqqjjqiiiiiqjjqqqqqqqqqq",
"qqqqqqqqqqqllsssssscllqqqqqqqqqq",
"qqqqqqqqqqqqqsscssscqqqqqqqqqqqq",
"qqqqqqqqqqqqqsrqsssqqqqqqqqqqqqq",
"qqqqqqqqqqqqqssqsssqqqqqqqqqqqqq",
"qqqqqqqqqqqqqmmqkkkqqqqqqqqqqqqq",
"qqqqqqqqqqqqppmqaaaqqqqqqqqqqqqq",
"qqqqqqqqqqqqqqqqqqqqqqqqqqqqqqqq",
"qqqqqqqqqqqqqqqqqqqqqqqqqqqqqqqq",
};
