/* XPM */
static char * image[] = {
/* width height num_colors chars_per_pixel */
"32 32 20 1",
"a c #70805f",
"b c #3c312c",
"c c #5a5237",
"d c #2d2420",
"e c #bec49f",
"f c #512d23",
"g c #8dab5f",
"h c #5e724a",
"i c #677755",
"j c #342a25",
"k c #453a35",
"l c #6a7a5a",
"m c #778667",
"n c #5b3c2c",
"o c #7a2d18",
"p c #000000",
"q c #60583c",
"r c #645c3f",
"s c #70694f",
"t c #a2a97f",
"pppppppppppppppppppppppppppppppp",
"pppppppppppppppppppppppppppppppp",
"pppppppppppppppppppppppppppppppp",
"pppppppppppppppppppppppppppppppp",
"pppppppppppppppppppppppppppppppp",
"pppppppppppppppppppppppppppppppp",
"pppppppppppppppppppppppppppppppp",
"pppppppppppppppppppppppppppppppp",
"pppppppppppppppppppppppppppppppp",
"pppppppppoffnopppppppppppppppppp",
"ppppppppnoffohhppppppppppppppppp",
"pppppppnoofoohhhpppppppppppppppp",
"pppppppohooooohhpppppppppppppppp",
"pppppppoioaaoohhpppppppppppppppp",
"pppppppiaoaaaoohpppppppppppppppp",
"pppppppppaopppohpppppppppppppppp",
"pppppppegongeooppppppppppppppppp",
"pppppppiaanaaaappppppppppppppppp",
"pppppppiaaannahppppppppppppppppp",
"ppppppphtatatnmbkppppppppppppppp",
"pppppppphtotoabbkppppppppppppppp",
"ppppppppphoobbbkkppppppppppppppp",
"ppppppppppfbbbbkfppppppppppppppp",
"ppppppppppmbbbaffppppppppppppppp",
"ppppppppppkjjljfmppppppppppppppp",
"ppppppppppkkdddmkppppppppppppppp",
"ppppppppppkrrrrkkcpppppppppppppp",
"ppppppppppkrrcrkkopppppppppppppp",
"ppppppppppmrqoromhhppppppppppppp",
"pppppppppposspsssllppppppppppppp",
"pppppppppppppppppppppppppppppppp",
"pppppppppppppppppppppppppppppppp",
};
