/* XPM */
static char * image[] = {
/* width height num_colors chars_per_pixel */
"32 32 19 1",
"a c #d6d6d6",
"b c #c9c9c9",
"c c #d1d1d1",
"d c #d0d0d0",
"e c #7e7e7e",
"f c #abacaf",
"g c #aeafb6",
"h c #9597a1",
"i c #b8b9bb",
"j c #dedede",
"k c #4e4e4e",
"l c #9b9b9b",
"m c #d07753",
"n c #97989c",
"o c #d2d1d1",
"p c #73747b",
"q c #eb9661",
"r c #a4a4a8",
"s c #b55945",
"sqqqqqqqqqqqqqqqqsmqqqqqmmssmsss",
"mqqqqqqqqqqqkkkkkeeeqqqqqqqmmmms",
"mqqqqqqqqkkkkpppniieeekqqqqqqqqm",
"mqqqqqqqkkpppbbdddaiirkkqqqqqqqq",
"sqqqqqkkkpbbbbdddddaobpkkkqqqqqq",
"smqqqkkppbbbbnnnnnpbbbbppkkqqqqm",
"msqqkkpbbbbnngggghhppbbbbpeeqqsm",
"qmmmkpbbbpnggggghhhhhppbddneqmqq",
"qqmkkpbbpgggggghhhhhhhhnddnkkqqq",
"qqkkpbbpgggggghhhhhhhhggndbpkkqq",
"qqkpbbbnggggjjbhbbbhhgggpbbbpkqq",
"qqkpbbnggggjjbhjjjjjggghhpbbnlqq",
"qkkpddngggbjbhhbjbdjjghhhpbdfllq",
"qkpddnggghjbbjhhhgdddbhhhhndcflm",
"mknddngghhbbjhhjjggdbhbhggndcflq",
"qenddnghhjjbhhjggdhhbhbgggnddflq",
"qenddphhhbjpjnggdbpphbjgggnddnlq",
"qendbphhhppbjnndbppjjjjgggnddneq",
"qenbbphhhpjdjjnpppbjjjngggnddneq",
"qekpbbphhpnddjjjjpjddnnggnddneeq",
"qqkpbbphggnnbbbbdndddnnggnddneqq",
"qqkpbbbngggppbbdnnndnnggndddnkqq",
"qqkkpbdngghhppnnnnnnngggnddnkkqq",
"qqqkknddphhhgnnnnnnggggnddpkkqqq",
"qqqsendbbppggggggggggnnddbpkqqqq",
"qqqmeepbbbdnnggggggnndddbpkkqqqq",
"qqmmqkkpnddddnnnnnndddbppkkqqqqq",
"qqmqqmkeendddddddddddbpkkkqqqqqq",
"qqmqqqqqeennnddddddnppkkqqqqqqqq",
"qmqqqqqqqeeeennnnnpkkkkqqqqqqqqq",
"msqqqqqqqqqqeeeeekkkqsmqqqqqqqqq",
"smqqqqqqqqqqqqqqqssssssmqqqqqqqm",
};
