/* XPM */
static char * image[] = {
/* width height num_colors chars_per_pixel */
"32 32 14 1",
"a c #9597a1",
"b c #eb9661",
"c c #d07753",
"d c #c9c9c9",
"e c #aeafb6",
"f c #97989c",
"g c #d0d0d0",
"h c #73747b",
"i c #dedede",
"j c #7e7e7e",
"k c #93949e",
"l c #4e4e4e",
"m c #b55945",
"n c #6d6f7d",
"mbbbbbbbbbbbbbbbbmcbbbbbccmmcmmm",
"cbbbbbbbbblllllllllllbbbbbbccccm",
"cbbbbbbbbllaaalllhhhlljbbbbbbbbc",
"cbbbbbbbllnnnllhhdddhfjjbbbbbbbb",
"mbbbbbbblaaallhdddddggfjjbbbbbbb",
"mcbbbbbllnnnlhdddhhfgggflbbbbbbc",
"cmbbbbblaaalldddheeefggdllbbbbmc",
"bcccbbllnnnlhdhheeeeefhdhlbbbcbb",
"bbcccclaaallhdaeeeeieaadhllbbbbb",
"bbcbbblnnnlhdheeeffiaaahdhlbcbbb",
"bbbbbblaaalddfeeffiihaahddlbcbbb",
"bbbbbllnnnldgeeeiidaiiaaddjbcbbb",
"bbbbblaaaljggeefdddddihaggjjmcbb",
"bcbbblnnnjfgfeehhhhhhhhefgflmmcc",
"cmbbblaaejfgfeahhhiddhfefghlcbbb",
"bcmbblnkkjfgfahhhiiddffehdhlbbbb",
"bbcmmleeejfdhahhhiageffahdhlbbbb",
"bbbcmlkkkjhdhahhhafgffaahdfjbbbb",
"bbbbmleeelhdhahhhfigfhaahgfjbbbb",
"bbbbclkknllddahhfiidahhaggjjbbbb",
"bbbbcljaaalddafffiiddhfeggjbbbbb",
"bbbbcblnnnlddffffiiidfffggjbbbbb",
"bbbbmblaaalhgfffhiihgfffgfjbbbbb",
"bbbcmclnnnljfgaahhiiieegfjjbbbbb",
"bbbmccllaeejfdhhafeeeffgfjbbbbbb",
"bbbcbbclkkkjldddfeeefgggjjbbbbbb",
"bbccbbmjjeealhgggfffgggfjbbbbbbb",
"bbcbbccmjnnnljfgggggggfjjbbbbbbb",
"bbcbbbbbllaaejjffgggffjjbbbbbbbb",
"bcbbbbbbbljkkkjjjfffjjjbbbbbbbbb",
"cmbbbbbbbbjjjjjjjjjjjmcbbbbbbbbb",
"mcbbbbbbbbbbbbbbbmmmmmmcbbbbbbbc",
};
