/* XPM */
static char * image[] = {
/* width height num_colors chars_per_pixel */
"96 128 23 1",
"a c #87947c",
"b c #3a2b28",
"c c #dbcbbc",
"d c #6e7d61",
"e c #634a45",
"f c #d2a394",
"g c #4b5b3c",
"h c #291a18",
"i c #8f9d84",
"j c #362623",
"k c #4c403d",
"l c #000000",
"m c #553d39",
"n c #57636b",
"o c #4c342f",
"p c #554c3c",
"q c #0c0a07",
"r c #657358",
"s c #b56a68",
"t c #425059",
"u c #5f7050",
"v c #c0ac98",
"w c #e4b5a5",
"llllllllllllllllllllllllllllllllllllllllllllllllllllllllllllllllllllllllllllllllllllllllllllllll",
"llllllllllllllllllllllllllllllllllllllllllllllllllllllllllllllllllllllllllllllllllllllllllllllll",
"llllllllllllllllllllllllllllllllllllllllllllllllllllllllllllllllllllllllllllllllllllllllllllllll",
"llllllllllllllllllllllllllllllllllllllllllllllllllllllllllllllllllllllllllllllllllllllllllllllll",
"llllllllllllllllllllllllllllllllllllllllllllllqqllqlllllllllllllllllllllllllllllllllllllllllllll",
"llllllllllllllqqllqllllllllllllllllllllllllqqqooqqoqllllllllllllllllllllllllllllllllllllllllllll",
"lllllllllllqqqooqqoqllllllllllllllllllllllqoooeeooeoqlllllllllllllllllllllllllllllllllllllllllll",
"llllllllllqoooeeooeoqllllllllllllllllllllllqeeeeeeeeeqllllllllllllllllllllllllllllllllllllllllll",
"lllllllllllqeeeeeeeeeqllllllllllllllllllllqeeeeeeeeeeoqlllllllllllllllllllllllllllllllllllllllll",
"llllllllllqeeeeeeeeeeoqlllllllllllllllllllqeeeooeoeeeooqllllllllllllllllllllllllllllllllllllllll",
"llllllllllqeeeooeoeeeooqlllllllllllllllllqooeefoefeeeeqlllllllllllllllllllllllllllllllllllllllll",
"lllllllllqooeefoefeeeeqlllllllllllllllllllqoefffeffeeeqlllllllllllllllllllllllllllllllllllllllll",
"llllllllllqoefffeffeeeqlllllllllllllllllllqeefqwfwqfoeeqlllllllllllllgggglggglllggllgllglgggglll",
"llllllllllqeefqwfwqfoeeqlllllllllllllllllqmesfhwwwhfsmqllllllllllllllgllllgllglgllglgglgllglllll",
"lllllllllqmesfhwwwhfsmqlllllllllllllllllllqmmfwwwwwfmmqllllllllllllllgllllgllglgllglgglgllglllll",
"llllllllllqmmfwwwwwfmmqllllllllllllllllllllqmmfwwwfmmqlllllllllllllllgggllgggllgllglglggllglllll",
"lllllllllllqmmfwwwfmmqllllllllllllllllllllllqmqfffqmqllllllllllllllllgllllgllglgllglglggllglllll",
"llllllllllllqmqfffqmqllllllllllllllllllllllqbdbvvvbdbqlllllllllllllllgllllgllglgllglgllgllglllll",
"lllllllllllqbdbvvvbdbqlllllllllllllllllllllqbdkccvkdbqlllllllllllllllgllllgllgllggllgllgllglllll",
"lllllllllllqbdkccvkdbqllllllllllllllllllllqbbakccckabbqlllllllllllllllllllllllllllllllllllllllll",
"llllllllllqbbakccckabbqlllllllllllllllllllqkbdkvcckdbkqlllllllllllllllllllllllllllllllllllllllll",
"llllllllllqkbdkvcckdbkqllllllllllllllllllqkkbbkcvckbbkkqllllllllllllllllllllllllllllllllllllllll",
"lllllllllqkkqbkcvckbqkkqlllllllllllllllllqwfqbbtttbbqfwqllllllllllllllllllllllllllllllllllllllll",
"lllllllllqwfqbbtttbbqfwqllllllllllllllllllqqqtttttttqqqlllllllllllllllllllllllllllllllllllllllll",
"llllllllllqqqtnnnnntqqqlllllllllllllllllllllqtnnnnntqlllllllllllllllllllllllllllllllllllllllllll",
"llllllllllllqtnntnntqlllllllllllllllllllllllqtnntnntqlllllllllllllllllllllllllllllllllllllllllll",
"llllllllllllqtntqtntqlllllllllllllllllllllllqtntqtntqlllllllllllllllllllllllllllllllllllllllllll",
"llllllllllllqttqlqttqlllllllllllllllllllllllqttqlqttqlllllllllllllllllllllllllllllllllllllllllll",
"llllllllllllqjjqlqjjqlllllllllllllllllllllllqjjqlqjjqlllllllllllllllllllllllllllllllllllllllllll",
"lllllllllllqppjqlqjppqlllllllllllllllllllllqppjqlqjppqllllllllllllllllllllllllllllllllllllllllll",
"lllllllllqqqqqqqqqqqqqqqlllllllllllllllllqqqqqqqqqqqqqqqllllllllllllllllllllllllllllllllllllllll",
"llllllllllqqqqqqqqqqqqqlllllllllllllllllllqqqqqqqqqqqqqlllllllllllllllllllllllllllllllllllllllll",
"llllllllllllllllllllllllllllllllllllllllllllllllllllllllllllllllllllllllllllllllllllllllllllllll",
"llllllllllllllllllllllllllllllllllllllllllllllllllllllllllllllllllllllllllllllllllllllllllllllll",
"llllllllllllllllllllllllllllllllllllllllllllllllllllllllllllllllllllllllllllllllllllllllllllllll",
"llllllllllllllllllllllllllllllllllllllllllllllllllllllllllllllllllllllllllllllllllllllllllllllll",
"llllllllllllllllllllllllllllllllllllllllllllllqllqqlllllllllllllllllllllllllllllllllllllllllllll",
"llllllllllllllqllqqllllllllllllllllllllllllllqoqqooqqqllllllllllllllllllllllllllllllllllllllllll",
"lllllllllllllqoqqooqqqllllllllllllllllllllllqoeooeeoooqlllllllllllllllllllllllllllllllllllllllll",
"llllllllllllqoeooeeoooqllllllllllllllllllllqeeeeeeeeeqllllllllllllllllllllllllllllllllllllllllll",
"lllllllllllqeeeeeeeeeqllllllllllllllllllllqoeeeeeeeooeqlllllllllllllllllllllllllllllllllllllllll",
"llllllllllqoeeeeeeeooeqllllllllllllllllllqooeeeeeeoeeeqlllllllllllllllllllllllllllllllllllllllll",
"lllllllllqooeeeeeeoeeeqlllllllllllllllllllqeeeeeeeeeeeoqllllllllllllllllllllllllllllllllllllllll",
"llllllllllqeeeeeeeeeeeoqllllllllllllllllllqmeeoeoeeeeoqlllllllllllllllllllllllllllllllllllllllll",
"llllllllllqmeeoeoeeeeoqllllllllllllllllllqmmeeeoeeeeemqllllllllllllllggglllgglllggllgllgllllllll",
"lllllllllqmmeeeoeeeeemqlllllllllllllllllllqmmeeeeeeeemmqlllllllllllllgllglgllglgllglglglllllllll",
"llllllllllqmmeeeeeeeemmqllllllllllllllllllqmmmeeeeeemmqllllllllllllllgllglgllglgllllggllllllllll",
"llllllllllqmmmeeeeeemmqllllllllllllllllllllqmmeeeemmmqlllllllllllllllgggllgggglgllllggglllllllll",
"lllllllllllqmmeeeemmmqllllllllllllllllllllllqmmmmmmmqllllllllllllllllgllglgllglgllllgllgllllllll",
"llllllllllllqmmmmmmmqllllllllllllllllllllllqbdbdddbdbqlllllllllllllllgllglgllglgllglgllgllllllll",
"lllllllllllqbdbdddbdbqlllllllllllllllllllllqbbdddddbbqlllllllllllllllgggllgllgllggllgllgllllllll",
"lllllllllllqbbdddddbbqllllllllllllllllllllqbbbdddddbbbqlllllllllllllllllllllllllllllllllllllllll",
"llllllllllqbbbdddddbbbqlllllllllllllllllllqkdbdiiidbdkqlllllllllllllllllllllllllllllllllllllllll",
"llllllllllqkdbdiiidbdkqllllllllllllllllllqkkqdduuuddqkkqllllllllllllllllllllllllllllllllllllllll",
"lllllllllqkkqdduuuddqkkqlllllllllllllllllqwfqbdiiidbqfwqllllllllllllllllllllllllllllllllllllllll",
"lllllllllqwfqbdiiidbqfwqllllllllllllllllllqqqtttttttqqqlllllllllllllllllllllllllllllllllllllllll",
"llllllllllqqqtttttttqqqlllllllllllllllllllllqtnnnnntqlllllllllllllllllllllllllllllllllllllllllll",
"llllllllllllqtnnnnntqlllllllllllllllllllllllqtnnnnntqlllllllllllllllllllllllllllllllllllllllllll",
"llllllllllllqtttqtttqlllllllllllllllllllllllqtttqtttqlllllllllllllllllllllllllllllllllllllllllll",
"llllllllllllqttqlqttqlllllllllllllllllllllllqttqlqttqlllllllllllllllllllllllllllllllllllllllllll",
"llllllllllllqjjqlqjjqlllllllllllllllllllllllqjjqlqjjqlllllllllllllllllllllllllllllllllllllllllll",
"lllllllllllqpjjqlqjjpqlllllllllllllllllllllqpjjqlqjjpqllllllllllllllllllllllllllllllllllllllllll",
"lllllllllqqqqqqqqqqqqqqqlllllllllllllllllqqqqqqqqqqqqqqqllllllllllllllllllllllllllllllllllllllll",
"llllllllllqqqqqqqqqqqqqlllllllllllllllllllqqqqqqqqqqqqqlllllllllllllllllllllllllllllllllllllllll",
"llllllllllllllllllllllllllllllllllllllllllllllllllllllllllllllllllllllllllllllllllllllllllllllll",
"llllllllllllllllllllllllllllllllllllllllllllllllllllllllllllllllllllllllllllllllllllllllllllllll",
"llllllllllllllllllllllllllllllllllllllllllllllllllllllllllllllllllllllllllllllllllllllllllllllll",
"llllllllllllllllllllllllllllllllllllllllllllllllllllllllllllllllllllllllllllllllllllllllllllllll",
"llllllllllllllllllllllllllllllllllllllllllllllqqqlqlllllllllllllllllllllllllllllllllllllllllllll",
"llllllllllllllqqqlqlllllllllllllllllllllllqqqqoooqoqllllllllllllllllllllllllllllllllllllllllllll",
"llllllllllqqqqoooqoqlllllllllllllllllllllqooomeeeoeqllllllllllllllllllllllllllllllllllllllllllll",
"lllllllllqooomeeeoeqllllllllllllllllllllllqmeeeeeeeeqlllllllllllllllllllllllllllllllllllllllllll",
"llllllllllqmeeeeeeeeqllllllllllllllllllllqmeeeeeeeeeqlllllllllllllllllllllllllllllllllllllllllll",
"lllllllllqmeeeeeeeeeqllllllllllllllllllllqmeeeeooeeellllllllllllllllllllllllllllllllllllllllllll",
"lllllllllqmeeeeooeeellllllllllllllllllllqoomeeefoeoemlllllllllllllllllllllllllllllllllllllllllll",
"llllllllqoomeeefoeoemllllllllllllllllllllqoeeefffefellllllllllllllllllllllllllllllllllllllllllll",
"lllllllllqoeeefffefelllllllllllllllllllllqmeeffqwwqfmllllllllllllllllgggllggggllggllgllglgggglll",
"lllllllllqmeeffqwfqfmlllllllllllllllllllqomesffhwwhflllllllllllllllllgllgllglllgllglgllgllglllll",
"llllllllqomesffhwwhflllllllllllllllllllllqmmmffwwwwflllllllllllllllllgllgllglllgllllgllgllglllll",
"lllllllllqmmmffwwwwfllllllllllllllllllllllqmmmfwwwfllllllllllllllllllggglllglllglgglggggllglllll",
"llllllllllqmmmfwwwfllllllllllllllllllllllllqmmqfffqllllllllllllllllllgllgllglllgllglgllgllglllll",
"llllllllllllqmmfffqllllllllllllllllllllllllqbdbvvvbqlllllllllllllllllgllgllglllgllglgllgllglllll",
"lllllllllllqbdbvvvbqlllllllllllllllllllllllqbdkccvbqlllllllllllllllllgllglggggllggllgllgllglllll",
"lllllllllllqbdkccvbqllllllllllllllllllllllqbbakcccbkqlllllllllllllllllllllllllllllllllllllllllll",
"llllllllllqbbakcccbkqlllllllllllllllllllllqkdkkvccbkqlllllllllllllllllllllllllllllllllllllllllll",
"llllllllllqkdkkvccbkqllllllllllllllllllllqkkrbkcvcbbkqllllllllllllllllllllllllllllllllllllllllll",
"lllllllllqkkrbkcvcbbkqlllllllllllllllllllqwfrbbtttbbfqllllllllllllllllllllllllllllllllllllllllll",
"lllllllllqwfrbbtttbbfqllllllllllllllllllllqqqttttttqqlllllllllllllllllllllllllllllllllllllllllll",
"llllllllllqqqttnnnnqqlllllllllllllllllllllllqttnnntqllllllllllllllllllllllllllllllllllllllllllll",
"llllllllllllqtnntnnqllllllllllllllllllllllllqtnntnnqllllllllllllllllllllllllllllllllllllllllllll",
"llllllllllllqtntqtnqllllllllllllllllllllllllqtntqtnqllllllllllllllllllllllllllllllllllllllllllll",
"llllllllllllqtntqttqllllllllllllllllllllllllqtntqttqllllllllllllllllllllllllllllllllllllllllllll",
"llllllllllllqjjjqjjqllllllllllllllllllllllllqjjjqjjqllllllllllllllllllllllllllllllllllllllllllll",
"llllllllllllqpppqjppqlllllllllllllllllllllllqpppqjppqlllllllllllllllllllllllllllllllllllllllllll",
"lllllllllqqqqqqqqqqqqqqllllllllllllllllllqqqqqqqqqqqqqqlllllllllllllllllllllllllllllllllllllllll",
"llllllllllqqqqqqqqqqqqllllllllllllllllllllqqqqqqqqqqqqllllllllllllllllllllllllllllllllllllllllll",
"llllllllllllllllllllllllllllllllllllllllllllllllllllllllllllllllllllllllllllllllllllllllllllllll",
"llllllllllllllllllllllllllllllllllllllllllllllllllllllllllllllllllllllllllllllllllllllllllllllll",
"llllllllllllllllllllllllllllllllllllllllllllllllllllllllllllllllllllllllllllllllllllllllllllllll",
"llllllllllllllllllllllllllllllllllllllllllllllllllllllllllllllllllllllllllllllllllllllllllllllll",
"lllllllllllllllllllllllllllllllllllllllllllllllqlqqlllllllllllllllllllllllllllllllllllllllllllll",
"lllllllllllllllqlqqllllllllllllllllllllllllllqqoqooqqlllllllllllllllllllllllllllllllllllllllllll",
"lllllllllllllqqoqooqqlllllllllllllllllllllllqmeeoeemoqqlllllllllllllllllllllllllllllllllllllllll",
"llllllllllllqmeeoeemoqqllllllllllllllllllllllqeeeeeeeomqllllllllllllllllllllllllllllllllllllllll",
"lllllllllllllqeeeeeeeomqllllllllllllllllllllqmeeeeeeemmqllllllllllllllllllllllllllllllllllllllll",
"llllllllllllqmeeeeeeemmqllllllllllllllllllllqeooeeeeeemqllllllllllllllllllllllllllllllllllllllll",
"llllllllllllqeooeeeeeemqlllllllllllllllllllqoefoeoeeemooqlllllllllllllllllllllllllllllllllllllll",
"lllllllllllqoefoeoeeemooqlllllllllllllllllllqeffefeeeeoqllllllllllllllllllllllllllllllllllllllll",
"llllllllllllqeffefeeeeoqllllllllllllllllllllqfqfwqfeoemmqllllllllllllgllllgggglgggglggggllllllll",
"llllllllllllqfqfwqfeoemmqllllllllllllllllllqofhwwhffsemqlllllllllllllgllllgllllglllllgllllllllll",
"lllllllllllqofhwwhffsemqllllllllllllllllllllqfwwwwffmmmqlllllllllllllgllllgllllglllllgllllllllll",
"llllllllllllqfwwwwffmmmqlllllllllllllllllllllqfwwwfmmmqllllllllllllllgllllgggllggglllgllllllllll",
"lllllllllllllqfwwwfmmmqlllllllllllllllllllllllqfffqmmqlllllllllllllllgllllgllllglllllgllllllllll",
"llllllllllllllqfffqmmqlllllllllllllllllllllllqbvvvbdbqlllllllllllllllgllllgllllglllllgllllllllll",
"lllllllllllllqbvvvbdbqlllllllllllllllllllllllqbccvkdbqlllllllllllllllgggglgggglglllllgllllllllll",
"lllllllllllllqbccvkdbqllllllllllllllllllllllqkbccckabbqlllllllllllllllllllllllllllllllllllllllll",
"llllllllllllqkbccckabbqlllllllllllllllllllllqkbvcckkdkqlllllllllllllllllllllllllllllllllllllllll",
"llllllllllllqkbvcckkdkqllllllllllllllllllllqkbbcvckbrkkqllllllllllllllllllllllllllllllllllllllll",
"lllllllllllqkbbcvckbrkkqlllllllllllllllllllqfbbtttbbrfwqllllllllllllllllllllllllllllllllllllllll",
"lllllllllllqfbbtttbbrfwqllllllllllllllllllllqqttttttqqqlllllllllllllllllllllllllllllllllllllllll",
"llllllllllllqqnnnnttqqqllllllllllllllllllllllqnnnnttqlllllllllllllllllllllllllllllllllllllllllll",
"lllllllllllllqnntnntqllllllllllllllllllllllllqnntnntqlllllllllllllllllllllllllllllllllllllllllll",
"lllllllllllllqntqtntqllllllllllllllllllllllllqntqtntqlllllllllllllllllllllllllllllllllllllllllll",
"lllllllllllllqttqtntqllllllllllllllllllllllllqttqtntqlllllllllllllllllllllllllllllllllllllllllll",
"lllllllllllllqjjqjjjqllllllllllllllllllllllllqjjqjjjqlllllllllllllllllllllllllllllllllllllllllll",
"llllllllllllqppjqpppqlllllllllllllllllllllllqppjqpppqlllllllllllllllllllllllllllllllllllllllllll",
"llllllllllqqqqqqqqqqqqqqllllllllllllllllllqqqqqqqqqqqqqqllllllllllllllllllllllllllllllllllllllll",
"lllllllllllqqqqqqqqqqqqllllllllllllllllllllqqqqqqqqqqqqlllllllllllllllllllllllllllllllllllllllll",
};
